<?xml version="1.0" encoding="UTF-8"?><svg id="Layer_2" xmlns="http://www.w3.org/2000/svg" viewBox="0 0 622.52 157.4"><g id="Layer_1-2"><path d="M0,123.8c0-16.4,6.68-32.6,16.76-32.6,1.01,0,1.89,1,1.89,2.4,0,8.8,5.42,14.8,12.73,14.8,17.64,0,30.62-38.2,30.62-59.8,0-10.8-3.15-16.6-8.44-16.6-4.91,0-9.32,5.2-9.32,14.2,0,7,2.77,12.4,6.43,12.4,2.27,8.2-3.78,24-14.99,24-9.95,0-17.26-12.4-17.26-31.8C18.4,24.4,31.75.2,56.2.2c19.66,0,31.75,19.8,31.75,76,0,6.2,3.53,5,3.91,0C94.51,38.6,105.59,0,129.28,0c12.6,0,17.77,10.4,17.77,20.8,0,12.2-4.28,20.2-13.36,20.2-4.16,0-3.65-4-6.93-4-13.86,0-23.82,37-29.99,90-1.89,15.6-6.93,22-12.85,22-8.95,0-11.97-12.6-11.97-34.2,0-13.4.5-29.6,1.51-45,.38-5.6-3.15-5.6-3.78-.6-8.06,64-26.84,88.2-47.88,88.2-14.62,0-21.8-17-21.8-33.6Z"/><path d="M165.58,47.29c4.39,3.48,7.73,7.99,10.03,13.53,2.21,5.27,3.69,11.43,4.43,18.46.66,4.82.98,12.5.98,23.05h-48.3c.2,10.61,1.78,19.13,4.74,25.54,2.95,6.41,7.53,9.62,13.72,9.62,5.78,0,10.4-3.03,13.84-9.08,1.97-3.52,3.36-7.58,4.18-12.21h10.89c-.29,3.84-1.24,8.12-2.86,12.84-1.62,4.72-3.44,8.58-5.44,11.57-3.36,5.21-7.53,8.72-12.49,10.55-2.67,1.04-5.68,1.56-9.04,1.56-8.2,0-15.16-4.74-20.86-14.21-5.7-9.47-8.55-22.74-8.55-39.79s2.87-30.44,8.61-40.92c5.74-10.48,13.25-15.72,22.52-15.72,4.68,0,9.21,1.74,13.6,5.22ZM169.64,88.35c-.45-7.62-1.5-13.7-3.14-18.26-3.04-8.46-8.1-12.7-15.2-12.7-5.09,0-9.35,2.91-12.8,8.74-3.45,5.83-5.27,13.23-5.48,22.22h36.61Z"/><path d="M251.26,149h-7.88v-12.5h-15.75v12.5h-15.75v-12.5h-7.88v-12.5h-7.88v-37.5h-7.88v-12.5h7.88v-12.5h7.88v-12.5h7.88v62.5h7.88v12.5h7.88v-37.5h7.88v-12.5h7.88v50h7.88v12.5h7.88v12.5h-7.88ZM259.14,136.5V61.5h7.88v-12.5h7.88v75h-7.88v12.5h-7.88Z"/><path d="M340.62,106.22c0,12.11-1.13,21.52-3.38,28.22-4.18,12.24-12.14,18.36-23.87,18.36-6.77,0-12.55-2.91-17.35-8.74s-7.2-16.19-7.2-31.1v-10.25h11.5v10.25c0,7.81,1.1,13.69,3.29,17.63,2.19,3.94,5.61,5.91,10.24,5.91,6.52,0,10.79-3.55,12.8-10.64,1.23-4.36,1.85-12.6,1.85-24.71V5.54h12.12v100.68Z"/><path d="M398.45,47.29c4.39,3.48,7.73,7.99,10.03,13.53,2.21,5.27,3.69,11.43,4.43,18.46.66,4.82.98,12.5.98,23.05h-48.3c.21,10.61,1.78,19.13,4.74,25.54,2.95,6.41,7.53,9.62,13.72,9.62,5.78,0,10.4-3.03,13.84-9.08,1.97-3.52,3.36-7.58,4.18-12.21h10.89c-.29,3.84-1.24,8.12-2.86,12.84-1.62,4.72-3.44,8.58-5.45,11.57-3.36,5.21-7.53,8.72-12.49,10.55-2.67,1.04-5.68,1.56-9.04,1.56-8.2,0-15.16-4.74-20.86-14.21-5.7-9.47-8.55-22.74-8.55-39.79s2.87-30.44,8.61-40.92c5.74-10.48,13.25-15.72,22.52-15.72,4.68,0,9.21,1.74,13.6,5.22ZM402.51,88.35c-.45-7.62-1.5-13.7-3.14-18.26-3.04-8.46-8.1-12.7-15.2-12.7-5.09,0-9.35,2.91-12.8,8.74-3.45,5.83-5.27,13.23-5.48,22.22h36.61Z"/><path d="M432.78,149.26c-3.15,0-11.4-19.95-11.4-36.18,0-10.11,4.95-23.67,13.95-37.24,6.75-9.84,14.1-17.29,22.95-23.14,8.25-5.59,13.8-7.18,15-7.18,3.3,0,6.75,8.51,6.75,13.03,0,1.86-.75,2.66-2.55,4.52l-2.55,2.66,2.4,9.04c.45,1.86.9,3.46.9,4.79,0,7.18-10.95,24.74-10.95,38.57,0,3.99,1.5,6.12,4.05,6.12,4.65,0,10.8-8.78,20.4-24.74l.15,10.91c-14.55,27.93-23.25,44.16-30.15,44.16-4.2,0-7.8-6.12-7.8-15.16,0-6.12,1.5-13.83,3.45-25-12.45,23.14-20.55,34.85-24.6,34.85ZM432.48,119.74c0,3.99,1.05,6.65,2.4,6.65,3.45,0,17.25-17.56,33.9-55.6-23.7,17.82-36.3,28.99-36.3,48.95Z"/><path d="M495.08,73.45c0-10.7-.13-19.47-.5-28.03h9.83l.63,17.12h.25c3.02-9.84,10.08-19.47,20.16-19.47,8.44,0,21.55,8.56,21.55,44.08v61.85h-11.09v-59.71c0-16.69-3.65-30.6-14.11-30.6-7.31,0-12.98,8.77-14.87,19.26-.5,2.35-.76,5.56-.76,8.77v62.28h-11.09v-75.54Z"/><path d="M560.85,149v-20.83h37v20.83h-37ZM610.18,128.16h-12.33v-20.83h-24.67v-41.67h12.33v20.83h24.67v41.67ZM622.52,44.83v20.83h-37v-20.83h37Z"/></g></svg>