<?xml version="1.0" encoding="utf-8"?>
<!DOCTYPE svg PUBLIC "-//W3C//DTD SVG 1.0//EN" "http://www.w3.org/TR/2001/REC-SVG-20010904/DTD/svg10.dtd">
<svg version="1.0" xmlns="http://www.w3.org/2000/svg" width="512px" height="512px" viewBox="0 0 512 512" preserveAspectRatio="xMidYMid meet">
 <g>
  <path d="M116.2 507.5 c-2.7 -2.4 -6.2 -6.9 -7.8 -9.9 l-2.9 -5.5 2 -3.7 c2.2 -4.1 18.8 -22.4 32.8 -36.3 l9.5 -9.4 -5.8 -7.6 c-6.7 -8.9 -18.3 -28.8 -22.2 -38.1 -14.5 -35.2 -17.1 -46 -17.2 -71.8 l-0.1 -15.3 -18 0.7 c-9.9 0.4 -28.8 0.7 -42 0.8 -22.6 0.1 -24.3 -0.1 -29.6 -2.2 -10.1 -4 -12.4 -8.2 -13.9 -25.3 -1.3 -14.1 -1.2 -105.1 0 -121.9 1.3 -16.7 3.2 -21.3 10 -24.7 3.9 -2 7.1 -2.4 24.5 -3.3 23.8 -1.2 117.5 -1.2 132.5 -0.1 11.5 0.9 15.6 2.4 20.3 7.4 l2.8 3 -0.3 -14.9 -0.3 -14.8 -17 -2.2 c-44.5 -5.9 -71.2 -17.1 -81.1 -34.1 -3.6 -6 -4.4 -15.5 -1.9 -22 5 -12.9 22.4 -24.1 49.5 -31.6 18.8 -5.2 25.3 -5.9 60 -6.4 39.9 -0.6 54.9 0.4 73.5 5.2 38.2 9.8 55.5 23 55.5 42.6 0 11.8 -5.5 19.4 -20.5 28.2 -15.5 9.1 -33.5 14.2 -64.4 18.3 l-13.4 1.8 0.6 14.4 c0.4 7.9 0.9 14.7 1.1 15.1 0.3 0.5 4.1 -0.2 8.5 -1.5 13.3 -3.8 27.3 -5.5 50.3 -6.1 19.6 -0.5 34.9 0.3 43.6 2.4 l2.2 0.5 0 -17.3 c0.1 -21.4 1.4 -35.7 3.8 -41.2 2.3 -5.1 7 -9.3 12 -10.7 15.2 -4 129.3 -4 144.4 0.1 5.7 1.5 10.5 6.2 12.5 12.2 1.4 4.4 1.7 10.9 2.1 43.2 0.5 48.4 -0.6 55.9 -8.8 62.8 -5.4 4.6 -8.6 5 -40.7 5.4 l-30.1 0.5 8.1 10.7 c21.2 28 33.7 56.8 39.3 90.6 3.2 19.4 1.7 54.1 -3 69.5 -1.5 5 -8.1 21.8 -12.7 32.5 -4.7 11.1 -13.8 26.9 -20.9 36.3 l-6.6 8.7 18.1 18.5 c9.9 10.2 19.8 21.1 21.9 24.3 3.8 5.6 3.9 5.8 2.7 9.9 -0.9 2.9 -3.3 6.2 -7.6 10.5 -10.6 10.6 -11.7 10.1 -42.2 -20 -16.8 -16.6 -18.4 -17.9 -20.1 -16.6 -12.7 9.3 -18.9 13.1 -31.4 19.5 -17.6 8.9 -34.5 15.6 -44.8 17.9 -10.2 2.2 -48.5 3.2 -64.2 1.6 -14 -1.4 -30.4 -5.9 -46.9 -12.8 -18 -7.7 -26.7 -12.7 -45.1 -26.2 -1.8 -1.3 -3.2 -0.1 -20.1 16.6 -29.3 29 -31.3 30.1 -40.5 21.8z m199.3 -56.1 c16.1 -3.3 35.3 -11.4 49.7 -21 26.6 -17.7 43.2 -41.8 56.4 -81.5 2.6 -7.8 2.8 -9.5 2.8 -25.4 0.1 -18.8 -1.2 -27.2 -6.6 -42.5 -9.8 -27.7 -27.5 -50.8 -51.3 -67 -18.8 -12.7 -43.8 -21.2 -66.9 -22.6 -23.5 -1.5 -54 8.3 -80.6 25.8 -11.4 7.5 -29 24.2 -35.8 34.2 -7.5 10.8 -17.2 30.2 -18.2 36.6 -3.2 18.5 -3.4 22 -2.2 36.2 2.1 23.7 5.8 38 14.9 56.6 15.3 31.4 40.5 53.2 75.8 65.5 9.7 3.4 21.7 6.2 30 7.1 6.5 0.7 24.5 -0.4 32 -2z m-217 -195.4 l18 -0.1 5 -10.7 c5.9 -12.6 13.8 -26 21.1 -35.7 6.4 -8.7 9.4 -14.5 9.4 -18.5 l0 -3 -48.5 0 -48.5 0 0 34.7 0 34.6 12.8 -0.6 c7 -0.4 20.8 -0.7 30.7 -0.7z m362.5 -125.5 l0 -12.5 -36.5 0 -36.5 0 0 12.5 0 12.5 36.5 0 36.5 0 0 -12.5z"/>
 </g>
</svg>