<?xml version="1.0" encoding="utf-8"?>
<!DOCTYPE svg PUBLIC "-//W3C//DTD SVG 1.0//EN" "http://www.w3.org/TR/2001/REC-SVG-20010904/DTD/svg10.dtd">
<svg version="1.0" xmlns="http://www.w3.org/2000/svg" width="437px" height="437px" viewBox="0 0 437 437" preserveAspectRatio="xMidYMid meet">
 <g>
  <path d="M0 423.9 c0 -13.8 0.3 -15.1 5 -19.9 1.7 -1.7 3 -3.5 3 -4 0 -0.5 0.6 -1.5 1.4 -2.2 0.7 -0.8 2 -2.8 2.9 -4.4 l1.6 -3.1 -7 -6.2 -6.9 -6.2 6 -8.7 c3.4 -4.8 7.1 -9.8 8.3 -11.2 1.2 -1.4 5 -6.5 8.5 -11.5 3.5 -4.9 6.7 -9.2 7.1 -9.5 0.4 -0.3 4 -5 7.9 -10.5 6.9 -9.5 11.5 -15.7 29.2 -39.6 30.1 -40.4 35.3 -47.4 42.5 -57.4 3.6 -4.9 7.3 -9.9 8.3 -11 1 -1.1 4.7 -6 8.2 -11 3.5 -4.9 7 -9.6 7.7 -10.3 0.6 -0.7 3.7 -4.9 6.9 -9.5 3.1 -4.5 6.2 -8.6 6.9 -9.2 0.6 -0.5 3.3 -4.1 6 -8 5.9 -8.6 8.8 -11.5 11.3 -11.5 1.7 0 2 1 2.5 10.8 1 19.4 8.3 38.7 19.8 52.4 8 9.6 11.7 12.9 21.7 19.4 18.2 11.9 27.9 15.1 49.2 16 8.5 0.4 15.4 1.2 15.7 1.7 0.7 1.1 -7 8.5 -20.3 19.5 -11 9.1 -23.5 19.9 -35.8 31 -5.7 5 -10.7 9.2 -11.1 9.2 -0.4 0 -5.4 4.2 -11.1 9.3 -13.2 11.7 -24.3 21.3 -34.9 30.2 -13.7 11.5 -24.1 20.5 -35 30.3 -5.6 5 -10.6 9.2 -11 9.2 -0.4 0 -5.3 4.2 -10.9 9.3 -12.3 11 -34.3 29.1 -35.9 29.5 -0.7 0.1 -5.6 -3.9 -10.9 -8.8 -6.4 -6 -10.2 -8.9 -11 -8.4 -1.3 0.8 -1.6 1 -5.7 4.4 -1.3 1.1 -3.2 2.2 -4.2 2.5 -1.1 0.4 -1.9 1 -1.9 1.4 0 0.5 -1.3 1.4 -3 2.1 -1.6 0.7 -3 1.6 -3 2 0 0.4 -1.3 1.3 -3 2 -1.6 0.7 -3 1.6 -3 2.1 0 0.5 -4.9 0.9 -11 0.9 l-11 0 0 -13.1z"/>
  <path d="M283 239 c-13.5 -1.2 -32.7 -8.4 -45.3 -16.7 -2.3 -1.6 -5.5 -3.5 -7.1 -4.3 -3.3 -1.7 -19.5 -17.4 -24.2 -23.5 -10 -12.8 -18.4 -32.8 -20.9 -49.4 -1.9 -12.1 -1.9 -19.1 0 -31.2 2.2 -15.1 8.3 -30.5 17.3 -44.2 3.8 -5.8 18.9 -22.7 20.2 -22.7 0.4 0 1.3 2.1 2 4.8 6.3 23.9 11 36.4 19.2 51.9 6.1 11.5 18.5 30.1 23.8 35.8 2.1 2.2 6.6 7.2 10 11 3.5 3.9 7.2 7.6 8.4 8.4 1.1 0.8 5.1 4.2 8.7 7.6 3.7 3.3 8.4 7.2 10.5 8.7 13.2 8.8 22.2 14.3 30 18.3 10.8 5.5 36.1 15.5 39.5 15.5 1.3 0 3.1 0.5 3.9 1 1.2 0.8 0.9 1.4 -2 3.9 -1.9 1.6 -4.6 3.6 -6 4.3 -1.3 0.7 -4.7 2.8 -7.5 4.6 -9.1 6 -22.4 11.7 -34.1 14.6 -7.3 1.9 -34.1 2.8 -46.4 1.6z"/>
  <path d="M379.5 190.6 c-6 -2.3 -13.5 -5.5 -16.5 -7.1 -3 -1.5 -6.7 -3.1 -8.2 -3.6 -4.5 -1.3 -27.3 -15.5 -37.9 -23.6 -6.7 -5.1 -19.7 -17.1 -25.1 -23.1 -11.5 -12.7 -13.3 -15.1 -20.3 -25.3 -9.4 -13.8 -17.6 -29.5 -23 -43.9 -3.9 -10.5 -9.5 -29.2 -9.5 -31.8 0 -2.4 14.8 -12.5 27.3 -18.6 15.2 -7.6 26.1 -10.9 40.8 -12.7 25.9 -3 47.8 2 75.4 17 12 6.6 27.6 21.3 35.3 33.3 2.3 3.5 4.5 6.8 4.9 7.3 0.5 0.6 2.2 4.2 4 8 9.4 21.1 12.1 39.2 8.8 60.5 -3.4 22.6 -13 41.8 -30 59.8 -9.4 9.9 -9.8 10 -26 3.8z"/>
 </g>
</svg>