<?xml version="1.0" encoding="utf-8"?>
<!DOCTYPE svg PUBLIC "-//W3C//DTD SVG 1.0//EN" "http://www.w3.org/TR/2001/REC-SVG-20010904/DTD/svg10.dtd">
<svg version="1.0" xmlns="http://www.w3.org/2000/svg" width="264px" height="264px" viewBox="0 0 264 264" preserveAspectRatio="xMidYMid meet">
 <g>
  <path d="M35.3 259.5 c-8.4 -2.3 -14.9 -6.1 -21.3 -12.5 -6.5 -6.5 -10.2 -13 -12.5 -21.7 -2.2 -8.6 -2.2 -178 0 -186.6 2.3 -8.7 6 -15.2 12.5 -21.7 6.5 -6.5 13 -10.2 21.7 -12.5 8.6 -2.2 184 -2.2 192.6 0 8.7 2.3 15.2 6 21.7 12.5 6.5 6.5 10.2 13 12.5 21.7 2.2 8.6 2.2 178 0 186.6 -2.3 8.7 -6 15.2 -12.5 21.7 -6.5 6.5 -13 10.2 -21.7 12.5 -8.3 2.2 -185 2.1 -193 0z m44.7 -55 l0 -35.5 -7.9 0 c-5.9 0 -8.4 -0.4 -9.5 -1.6 -1.4 -1.4 -1.6 -9.3 -1.6 -72.5 l0 -70.9 -10.5 0 c-8 0 -11.7 0.5 -15.8 2 -6.5 2.4 -8.8 4.7 -12.2 12.1 l-2.5 5.6 -0.1 88.1 -0.1 88 2.7 6 c5.6 12.5 9.8 14.1 37.3 14.2 l20.2 0 0 -35.5z m84 0 l0 -35.5 -4.9 0 c-8.8 0 -8.1 6.1 -8.1 -74.1 l0 -70.9 -21 0 -21 0 0 70.9 c0 80.6 0.7 74.1 -8.6 74.1 l-5.4 0 0 35.5 0 35.5 34.5 0 34.5 0 0 -35.5z m67.5 32 c10.9 -5.4 10 3.7 10 -104.5 0 -108.2 0.9 -99.1 -10 -104.5 -5.6 -2.8 -6.9 -3 -19.2 -3.3 l-13.3 -0.4 0 71.1 c0 63.2 -0.2 71.1 -1.6 72.5 -1.2 1.2 -3.6 1.6 -10 1.6 l-8.4 0 0 35.6 0 35.5 23.3 -0.3 23.2 -0.3 6 -3z"/>
 </g>
</svg>