<svg width="1920" height="1080" viewBox="0 0 1920 1080" fill="none" xmlns="http://www.w3.org/2000/svg">
<g clip-path="url(#clip0_1_58)">
<rect width="1920" height="1080" fill="url(#paint0_linear_1_58)"/>
<g style="mix-blend-mode:screen" opacity="0.5">
<path d="M1045.29 738.092C1018.99 745.134 1001 768.314 997.605 793.429C989.599 851.05 963.079 857.428 934.326 854.888L934.547 855.552C929.821 854.592 924.897 855.242 919.774 857.504C901.844 865.421 892.861 889.194 903.331 907.424C909.649 917.585 922.347 922.643 934.117 920.493C946.306 917.396 955.646 907.94 959.177 896.477C966.88 873.27 978.05 853.864 1007.2 853.181C1022.64 853.222 1037.7 858.759 1048.74 869.881C1064.78 887.177 1060.67 905.748 1050.78 924.589L1051.42 924.306C1046.79 932.447 1045.6 942.114 1048.69 951.413C1054.88 970.011 1075.75 977.555 1093.21 966.034C1103.43 959.235 1109.53 946.642 1109.19 934.601C1108.02 924.453 1104.09 917.048 1098.04 912.103C1079.44 895.937 1067.45 875.333 1098.77 834.838L1098.13 835.121C1113.59 815.346 1117.6 787.674 1105.36 764.13C1093.79 742.579 1069.03 732.181 1045.29 738.092ZM870.853 940.048C865.329 923.442 847.242 915.431 831.233 922.5C815.224 929.569 807.057 949.172 812.581 965.778C818.105 982.383 835.552 990.677 851.561 983.608C867.569 976.539 876.377 956.653 870.853 940.048Z" fill="#666666"/>
<path d="M817.849 79.0432C838.581 82.3886 855.888 96.5175 864.226 114.867C888.635 169.111 917.123 166.622 945.326 154.878C950.501 152.879 956.283 151.686 962.503 152.69C979.779 155.478 991.911 171.605 989.715 189.672C987.603 207.045 972.092 218.712 954.816 215.924C945.141 214.363 937.355 208.856 932.587 201.709C914.642 175.433 891.538 156.826 844.653 188.937L844.737 188.242C833.189 196.298 818.692 199.627 803.488 197.174C770.318 191.821 747.267 161.178 751.238 128.518C755.208 95.8587 784.678 73.6906 817.849 79.0432ZM1035.56 189.277C1037.67 171.905 1053.88 160.349 1071.15 163.137C1088.43 165.925 1100.56 182.053 1098.45 199.425C1096.34 216.797 1080.74 229.159 1063.47 226.371C1046.19 223.583 1033.45 206.649 1035.56 189.277Z" fill="#666666"/>
<path d="M1589.41 843.399C1609.46 849.644 1624.94 866.168 1631.13 885.646C1649.18 943.191 1677.52 944.702 1706.59 936.938C1711.91 935.669 1717.74 935.29 1723.75 937.163C1740.46 942.367 1750.63 960.16 1746.47 977.879C1742.47 994.916 1725.91 1004.38 1709.2 999.179C1699.84 996.265 1692.78 989.678 1688.87 981.879C1674.1 953.145 1653.4 931.34 1603.68 956.806L1603.84 956.125C1591.57 962.543 1576.93 963.832 1562.22 959.253C1530.14 949.261 1510.82 915.455 1518.34 883.424C1525.85 851.394 1557.33 833.408 1589.41 843.399ZM1791.67 983.913C1795.67 966.875 1812.9 957.617 1829.61 962.821C1846.32 968.025 1856.49 985.818 1852.49 1002.85C1848.49 1019.89 1831.77 1030.04 1815.06 1024.84C1798.35 1019.63 1787.67 1000.95 1791.67 983.913Z" fill="#666666"/>
<path d="M1902.74 355.493C1906.94 382.793 1892.94 407.293 1871.24 418.493C1821.54 444.393 1826.44 471.693 1840.44 498.293H1839.74C1842.54 502.493 1843.94 507.393 1843.94 512.993C1843.94 532.593 1825.74 548.693 1804.74 544.493C1792.84 541.693 1783.04 531.193 1780.24 519.293C1778.14 506.693 1783.04 494.793 1792.14 487.793C1810.34 473.093 1823.64 456.293 1812.44 428.293C1806.14 413.593 1794.94 400.993 1780.24 393.993C1757.84 384.193 1742.44 393.993 1729.14 409.393V408.693C1723.54 415.693 1715.14 419.893 1705.34 419.893C1685.74 419.893 1670.34 402.393 1673.84 382.093C1675.94 370.193 1685.04 360.393 1696.24 356.893C1706.04 354.793 1714.44 356.193 1721.44 360.393C1743.84 372.993 1767.64 377.893 1792.14 335.193V335.893C1804.04 314.893 1827.84 302.293 1854.44 306.493C1878.94 310.693 1898.54 330.993 1902.74 355.493ZM1787.94 585.793C1805.44 585.793 1820.14 600.493 1820.14 617.993C1820.14 635.493 1805.44 649.493 1787.94 649.493C1770.44 649.493 1755.74 635.493 1755.74 617.993C1755.74 600.493 1770.44 585.793 1787.94 585.793Z" fill="#666666"/>
<path d="M343.353 129.306C344.593 157.043 328.115 179.425 305.435 187.495C253.465 206.226 255.398 234.061 266.414 262.487L265.721 262.388C268.044 266.959 268.907 272.029 268.308 277.597C266.213 297.085 246.475 310.521 226.134 303.379C214.653 298.914 206.073 287.09 204.574 274.862C203.841 262.038 209.964 250.898 219.721 245.224C239.31 233.179 254.272 218.354 246.177 188.932C241.512 173.427 231.771 159.317 217.966 150.28C196.839 137.372 180.546 144.94 165.733 158.373L165.808 157.677C159.516 163.846 150.751 166.835 141.049 165.451C121.646 162.682 108.271 143.107 113.905 123.417C117.256 111.882 127.313 103.424 138.774 101.526C148.701 100.823 156.867 103.401 163.347 108.566C184.176 124.258 207.214 132.492 236.032 93.498L235.957 94.194C249.982 74.9954 274.891 65.8297 300.775 73.7634C324.58 81.4004 341.814 104.353 343.353 129.306ZM205.088 342.069C222.413 344.541 235.394 361.234 233.524 378.633C231.653 396.033 215.604 407.876 198.28 405.404C180.955 402.932 167.899 386.936 169.77 369.536C171.64 352.136 187.764 339.597 205.088 342.069Z" fill="#666666"/>
<path d="M797.878 664.422C772.737 654.208 757.491 628.848 756.822 603.313C755.075 544.7 729.645 535.123 701.069 534.199L701.357 533.561C696.602 533.953 691.824 532.708 687.021 529.828C670.213 519.747 663.9 494.88 676.149 477.903C683.45 468.499 696.49 464.969 707.848 468.538C719.518 473.105 727.706 483.691 729.962 495.585C735.074 519.731 744.005 540.492 772.629 544.688C787.829 546.508 803.246 542.782 815.302 532.987C832.93 517.614 830.867 498.54 823.137 478.499L823.737 478.859C820.04 470.155 819.897 460.34 823.932 451.409C832.003 433.548 853.351 428.515 869.319 442.146C878.659 450.18 883.317 463.514 881.706 475.521C879.472 485.531 874.813 492.466 868.329 496.685C848.3 510.617 834.298 529.785 860.828 574.075L860.228 573.715C873.337 595.361 874.343 623.53 859.788 645.61C846.098 665.777 820.619 673.197 797.878 664.422ZM647.648 441.351C640.442 457.298 621.783 463.133 606.776 454.132C591.768 445.131 585.815 424.534 593.021 408.586C600.226 392.639 618.285 386.444 633.293 395.445C648.301 404.446 654.854 425.403 647.648 441.351Z" fill="#666666"/>
<path d="M134.282 1025.12C147.193 1028.82 159.878 1028.94 171.647 1025.34C183.416 1021.74 193.487 1015 200.482 1004.88C208.352 993.488 215.759 985.566 223.485 980.542C231.303 974.824 237.97 972.454 245.048 972.287C252.126 972.12 258.236 973.912 263.565 976.276C269.584 978.763 276.199 982.065 282.536 987.449C287.773 990.507 292.412 992.749 296.548 993.481C306.887 995.313 315.714 992.614 322.936 986.08C330.847 979.669 334.118 971.015 332.657 960.813C332.111 954.324 330.095 948.285 325.825 943.267C322.338 937.678 317.194 933.926 311.083 932.133C299.046 927.161 288.841 929.615 279.181 938.558L279.274 937.864C258.39 956.893 238.165 960.414 217.312 947.488C203.073 937.864 193.434 925.503 188.392 910.405C182.528 890.9 189.667 874.408 209.625 862.317C217.443 856.6 221.908 849.577 223.111 840.557C224.5 830.15 222.164 821.213 215.416 813.626C209.356 806.16 200.673 802.492 190.056 802.742C177.372 802.627 168.771 808.916 162.969 820.673C159.101 828.511 159.369 837.081 162.394 846.14C165.789 852.423 167.116 858.34 167.754 864.135C168.392 869.93 168.341 875.603 166.129 881.604C164.699 887.032 161.109 892.789 154.762 898.057C148.507 902.631 140.092 907.533 129.012 911.253C117.84 915.666 109.054 923.344 102.059 933.469C95.0636 943.594 92.1113 955.145 92.5128 968.001C92.9143 980.856 97.0399 992.241 104.797 1002.85C112.647 1012.76 122.245 1020.14 134.282 1025.12ZM376.328 950.791C375.217 959.117 377.645 967.36 382.326 974.581C387.696 981.924 394.815 986.736 403.087 988.201C412.047 989.788 420.092 987.661 427.129 982.515C434.165 977.369 437.941 970.225 439.052 961.899C440.162 953.573 438.424 945.452 433.053 938.109C427.683 930.765 420.471 926.647 411.511 925.06C403.239 923.596 395.287 925.028 388.251 930.174C381.903 935.442 377.439 942.464 376.328 950.791Z" fill="#666666"/>
</g>
</g>
<defs>
<linearGradient id="paint0_linear_1_58" x1="960" y1="0" x2="960" y2="1080" gradientUnits="userSpaceOnUse">
<stop stop-color="#C2E4FD"/>
<stop offset="1" stop-color="#01ACFE"/>
</linearGradient>
<clipPath id="clip0_1_58">
<rect width="1920" height="1080" fill="white"/>
</clipPath>
</defs>
</svg>
