<svg width="26" height="25" viewBox="0 0 26 25" fill="none" xmlns="http://www.w3.org/2000/svg">
<mask id="path-1-outside-1_121_361" maskUnits="userSpaceOnUse" x="0" y="0" width="26" height="25" fill="black">
<rect fill="white" width="26" height="25"/>
<path d="M1.00044 20.9913C1.00044 17.6642 0.958973 17.8798 1.68458 17.3767C1.84007 17.2637 2.04739 17.0891 2.13032 16.9967C2.22361 16.894 2.33763 16.8119 2.38946 16.8119C2.52422 16.8119 3.17727 16.0931 3.17727 15.9493C3.17727 15.7029 2.72117 14.5014 2.57605 14.3577C2.38946 14.1728 2.44129 12.3861 2.63824 12.3142C2.7108 12.2936 2.76263 12.2218 2.76263 12.1601C2.76263 11.9342 3.45715 11.2976 3.83032 11.1743C4.45227 10.969 4.26568 10.7533 3.47788 10.7533C3.26019 10.7533 3.07361 10.7123 3.07361 10.6506C3.07361 10.5993 2.95958 10.5274 2.81446 10.4863C2.48275 10.4042 2.24434 9.88048 2.24434 9.24382C2.24434 8.73038 2.50349 8.08345 2.7108 8.08345C2.85593 8.08345 2.96995 7.86781 2.96995 7.59055C2.98032 7.49813 3.07361 7.30303 3.18763 7.15927C3.37422 6.94362 3.49861 6.90255 3.9858 6.90255C4.34861 6.90255 4.57666 6.95389 4.60776 7.03604C4.62849 7.10792 4.83581 7.15927 5.10532 7.15927C5.84129 7.15927 6.29739 7.4776 6.47361 8.10399C6.60837 8.58662 6.45288 9.21301 6.12117 9.57242C5.98642 9.71618 5.87239 9.91129 5.87239 9.99344C5.87239 10.1783 6.12117 10.1783 6.31812 9.99344C6.39069 9.91129 6.6602 9.78806 6.88825 9.71618C7.12666 9.6443 7.32361 9.55188 7.32361 9.51081C7.32361 9.46973 7.46874 9.40812 7.63459 9.36705C7.81081 9.32597 7.94556 9.26436 7.94556 9.21301C7.94556 9.16167 8.08032 9.10006 8.24617 9.05898C8.76447 8.94603 8.723 8.73038 8.15288 8.67904C7.75898 8.63797 7.58276 8.55581 7.27178 8.25802C6.94008 7.93969 6.88825 7.81647 6.83642 7.28249C6.78459 6.75879 6.80532 6.6561 6.98154 6.53287C7.27178 6.31723 7.53093 5.91675 7.53093 5.64976C7.53093 5.52654 7.64495 5.30062 7.79008 5.14659C7.98703 4.93095 8.14252 4.86934 8.47422 4.86934C8.71264 4.86934 8.93032 4.92068 8.97179 4.97203C9.00288 5.03364 9.29313 5.09525 9.62483 5.12606C10.1017 5.16713 10.2572 5.22874 10.5267 5.48546C10.9828 5.93729 11.0864 6.26589 10.9309 6.75879C10.8687 6.9847 10.7547 7.21061 10.6718 7.27222C10.5992 7.33384 10.537 7.49813 10.537 7.62136C10.537 7.75485 10.4748 7.88835 10.4126 7.91915C10.3401 7.96023 10.4334 7.96023 10.62 7.92942C10.8065 7.90888 11.0346 7.8062 11.1175 7.72405C11.2108 7.6419 11.3663 7.57002 11.4803 7.57002C11.584 7.57002 11.6773 7.52894 11.6773 7.46733C11.6773 7.41599 11.8639 7.3133 12.0919 7.25169C12.32 7.1798 12.5065 7.08739 12.5065 7.04631C12.5065 7.00524 12.6102 6.95389 12.7346 6.93335C13.1181 6.88201 13.0663 6.66637 12.6413 6.59449C11.9675 6.48153 11.9053 6.44045 11.7913 6.12212C11.7291 5.94756 11.584 5.78326 11.47 5.75245C11.3456 5.72164 11.2419 5.57788 11.2004 5.36224C11.1175 4.93095 11.2212 4.61262 11.5322 4.29429C11.6669 4.16079 11.8017 3.90408 11.8431 3.71924C11.9364 3.21607 12.237 2.94908 12.7139 2.94908C12.9315 2.94908 13.1803 3.02096 13.2736 3.10311C13.3565 3.18526 13.5639 3.25715 13.7401 3.25715C14.4968 3.25715 15.1395 3.80139 15.2017 4.48939C15.2328 4.82826 15.0254 5.38277 14.8285 5.45466C14.673 5.51627 14.6212 5.92702 14.7767 5.92702C14.9633 5.92702 15.5126 5.69084 15.5126 5.60869C15.5126 5.56761 15.6785 5.49573 15.8755 5.45466C16.0724 5.42385 16.2383 5.35197 16.2383 5.31089C16.2383 5.26982 16.3523 5.19794 16.4974 5.16713C16.6425 5.12606 16.7565 5.05417 16.7565 5.00283C16.7565 4.94122 16.8498 4.90014 16.9639 4.90014C17.0779 4.90014 17.1712 4.85907 17.1712 4.79746C17.1712 4.74611 16.9846 4.69477 16.7565 4.69477C16.5285 4.69477 16.3419 4.65369 16.3419 4.59208C16.3419 4.54074 16.2383 4.46886 16.1139 4.43805C15.3675 4.24294 15.1498 2.49726 15.834 2.28162C15.948 2.24054 16.0309 2.11732 16.0309 1.99409C16.0309 1.55253 16.1657 1.30609 16.4041 1.24447C16.5389 1.21367 16.6529 1.14179 16.6529 1.09044C16.6529 0.956948 16.9431 0.977485 16.9846 1.11098C17.0053 1.17259 17.3163 1.24447 17.6687 1.27528C18.0212 1.30609 18.3114 1.37797 18.3114 1.41904C18.3114 1.47038 18.384 1.51146 18.4669 1.51146C18.6846 1.51146 19.1407 2.04543 19.1407 2.30215C19.1407 2.43565 19.1925 2.53833 19.2444 2.53833C19.3066 2.53833 19.348 2.63075 19.348 2.74371C19.348 2.85666 19.3066 2.94908 19.2547 2.94908C19.12 2.94908 18.8297 3.54467 18.8297 3.8322C18.8297 4.01703 18.8712 4.04784 19.0681 3.9965C19.1925 3.96569 19.3273 3.89381 19.3687 3.8322C19.4724 3.67816 21.8566 3.68843 21.9084 3.84246C21.9395 3.91435 22.1261 4.01703 22.3334 4.08891C22.5407 4.15053 22.9346 4.43805 23.2041 4.70504C23.4736 4.98229 23.7431 5.20821 23.795 5.20821C23.8572 5.20821 23.9297 5.32116 23.9712 5.46492C24.0023 5.59842 24.0956 5.76272 24.1681 5.82433C24.2407 5.88594 24.4066 6.22481 24.5413 6.57395C24.6657 6.92309 24.8316 7.24142 24.8834 7.28249C25.0389 7.38518 25.0389 9.50054 24.8834 9.60323C24.8212 9.6443 24.6346 9.9729 24.4791 10.3426C24.3133 10.7123 24.1267 11.0819 24.0541 11.1641C23.9919 11.2462 23.8986 11.4208 23.8675 11.5543C23.8261 11.6775 23.7328 11.7802 23.6706 11.7802C23.598 11.7802 23.4114 11.8932 23.2456 12.0369C23.0797 12.1807 22.8828 12.2936 22.8102 12.2936C22.7377 12.2936 22.6651 12.3552 22.634 12.4271C22.5822 12.5914 20.7163 12.6017 20.6126 12.4271C20.5712 12.3655 20.3639 12.2834 20.1462 12.2423C19.9389 12.2012 19.7626 12.1293 19.7626 12.078C19.7626 11.9548 18.9541 11.965 18.7986 12.0883C18.2492 12.5401 17.9901 12.8173 17.6169 13.3616C17.3681 13.7005 17.1712 14.0393 17.1712 14.1112C17.1712 14.1831 17.1297 14.2447 17.0675 14.2447C16.9742 14.2447 16.5492 15.0559 16.5492 15.2305C16.5492 15.364 15.9895 16.4525 15.9065 16.4833C15.8547 16.5038 15.7511 16.6681 15.6681 16.8427C15.4504 17.3048 15.0047 18.0749 14.9114 18.1468C14.87 18.1776 14.6108 18.537 14.3309 18.9478C14.0511 19.3483 13.7919 19.6871 13.7504 19.6871C13.709 19.6871 13.5431 19.8822 13.3876 20.1081C13.2322 20.3443 12.9626 20.6729 12.7968 20.8372C12.5273 21.1042 12.4236 21.135 12.1023 21.0837C11.895 21.0529 11.7187 20.981 11.698 20.9194C11.6773 20.868 11.5736 20.8167 11.47 20.8167C11.3663 20.8167 11.2108 20.7551 11.1383 20.6729C10.962 20.5086 10.0706 20.3033 9.50044 20.3033C9.2724 20.3033 9.08581 20.2622 9.08581 20.2006C9.08581 20.1492 8.85776 20.0979 8.56752 20.0979C8.28764 20.0979 8.04922 20.1492 8.04922 20.2006C8.04922 20.2622 7.91447 20.3033 7.74861 20.3033C7.41691 20.3033 6.98154 20.447 6.77422 20.6113C6.71203 20.6729 6.51508 20.827 6.35959 20.9707C6.2041 21.1145 6.02788 21.2274 5.96568 21.2274C5.91386 21.2274 5.66507 21.4328 5.42666 21.6895C5.17788 21.9463 4.93946 22.1516 4.898 22.1516C4.8669 22.1516 4.57666 22.3981 4.26568 22.6959C3.95471 22.9834 3.5608 23.3633 3.38458 23.5174C3.21873 23.6817 3.07361 23.846 3.07361 23.9076C3.07361 23.9589 2.61751 24 2.03702 24H1.00044V20.9913ZM4.1102 19.4304C4.35898 19.1737 4.60776 18.9683 4.65959 18.9683C4.71142 18.9683 4.94983 18.804 5.20898 18.5986C5.89312 18.0339 7.29252 17.6334 8.53642 17.6334C9.06508 17.6334 9.6974 17.6745 9.93581 17.7361C10.1846 17.7874 10.6925 17.9004 11.0864 17.9722L11.7809 18.116L12.2785 17.4075C12.8279 16.6168 13.17 16.0623 13.3565 15.6823C13.4187 15.5386 13.5328 15.3537 13.6053 15.2716C13.823 15.0046 14.1236 14.4193 14.2687 14.0085C14.7456 12.5709 16.9742 9.94209 17.9694 9.6443C18.1974 9.57242 18.809 9.52108 19.3273 9.52108C20.084 9.52108 20.4157 9.57242 20.9755 9.77779C21.784 10.0859 21.7633 10.0961 22.1986 9.1206L22.4889 8.45313L22.2919 7.89862C21.9187 6.78959 21.1413 6.12212 20.395 6.26589C20.1773 6.31723 5.31263 13.4437 5.15715 13.5875C5.14678 13.5978 5.25044 13.9777 5.39556 14.4193C5.57178 14.943 5.66507 15.4461 5.66507 15.8774C5.66507 16.9864 5.53032 17.2637 4.45227 18.3419C3.68519 19.1018 3.48824 19.3688 3.48824 19.5947C3.48824 19.759 3.52971 19.8925 3.57117 19.8925C3.61263 19.8925 3.86141 19.6871 4.1102 19.4304Z"/>
</mask>
<path d="M1.00044 20.9913C1.00044 17.6642 0.958973 17.8798 1.68458 17.3767C1.84007 17.2637 2.04739 17.0891 2.13032 16.9967C2.22361 16.894 2.33763 16.8119 2.38946 16.8119C2.52422 16.8119 3.17727 16.0931 3.17727 15.9493C3.17727 15.7029 2.72117 14.5014 2.57605 14.3577C2.38946 14.1728 2.44129 12.3861 2.63824 12.3142C2.7108 12.2936 2.76263 12.2218 2.76263 12.1601C2.76263 11.9342 3.45715 11.2976 3.83032 11.1743C4.45227 10.969 4.26568 10.7533 3.47788 10.7533C3.26019 10.7533 3.07361 10.7123 3.07361 10.6506C3.07361 10.5993 2.95958 10.5274 2.81446 10.4863C2.48275 10.4042 2.24434 9.88048 2.24434 9.24382C2.24434 8.73038 2.50349 8.08345 2.7108 8.08345C2.85593 8.08345 2.96995 7.86781 2.96995 7.59055C2.98032 7.49813 3.07361 7.30303 3.18763 7.15927C3.37422 6.94362 3.49861 6.90255 3.9858 6.90255C4.34861 6.90255 4.57666 6.95389 4.60776 7.03604C4.62849 7.10792 4.83581 7.15927 5.10532 7.15927C5.84129 7.15927 6.29739 7.4776 6.47361 8.10399C6.60837 8.58662 6.45288 9.21301 6.12117 9.57242C5.98642 9.71618 5.87239 9.91129 5.87239 9.99344C5.87239 10.1783 6.12117 10.1783 6.31812 9.99344C6.39069 9.91129 6.6602 9.78806 6.88825 9.71618C7.12666 9.6443 7.32361 9.55188 7.32361 9.51081C7.32361 9.46973 7.46874 9.40812 7.63459 9.36705C7.81081 9.32597 7.94556 9.26436 7.94556 9.21301C7.94556 9.16167 8.08032 9.10006 8.24617 9.05898C8.76447 8.94603 8.723 8.73038 8.15288 8.67904C7.75898 8.63797 7.58276 8.55581 7.27178 8.25802C6.94008 7.93969 6.88825 7.81647 6.83642 7.28249C6.78459 6.75879 6.80532 6.6561 6.98154 6.53287C7.27178 6.31723 7.53093 5.91675 7.53093 5.64976C7.53093 5.52654 7.64495 5.30062 7.79008 5.14659C7.98703 4.93095 8.14252 4.86934 8.47422 4.86934C8.71264 4.86934 8.93032 4.92068 8.97179 4.97203C9.00288 5.03364 9.29313 5.09525 9.62483 5.12606C10.1017 5.16713 10.2572 5.22874 10.5267 5.48546C10.9828 5.93729 11.0864 6.26589 10.9309 6.75879C10.8687 6.9847 10.7547 7.21061 10.6718 7.27222C10.5992 7.33384 10.537 7.49813 10.537 7.62136C10.537 7.75485 10.4748 7.88835 10.4126 7.91915C10.3401 7.96023 10.4334 7.96023 10.62 7.92942C10.8065 7.90888 11.0346 7.8062 11.1175 7.72405C11.2108 7.6419 11.3663 7.57002 11.4803 7.57002C11.584 7.57002 11.6773 7.52894 11.6773 7.46733C11.6773 7.41599 11.8639 7.3133 12.0919 7.25169C12.32 7.1798 12.5065 7.08739 12.5065 7.04631C12.5065 7.00524 12.6102 6.95389 12.7346 6.93335C13.1181 6.88201 13.0663 6.66637 12.6413 6.59449C11.9675 6.48153 11.9053 6.44045 11.7913 6.12212C11.7291 5.94756 11.584 5.78326 11.47 5.75245C11.3456 5.72164 11.2419 5.57788 11.2004 5.36224C11.1175 4.93095 11.2212 4.61262 11.5322 4.29429C11.6669 4.16079 11.8017 3.90408 11.8431 3.71924C11.9364 3.21607 12.237 2.94908 12.7139 2.94908C12.9315 2.94908 13.1803 3.02096 13.2736 3.10311C13.3565 3.18526 13.5639 3.25715 13.7401 3.25715C14.4968 3.25715 15.1395 3.80139 15.2017 4.48939C15.2328 4.82826 15.0254 5.38277 14.8285 5.45466C14.673 5.51627 14.6212 5.92702 14.7767 5.92702C14.9633 5.92702 15.5126 5.69084 15.5126 5.60869C15.5126 5.56761 15.6785 5.49573 15.8755 5.45466C16.0724 5.42385 16.2383 5.35197 16.2383 5.31089C16.2383 5.26982 16.3523 5.19794 16.4974 5.16713C16.6425 5.12606 16.7565 5.05417 16.7565 5.00283C16.7565 4.94122 16.8498 4.90014 16.9639 4.90014C17.0779 4.90014 17.1712 4.85907 17.1712 4.79746C17.1712 4.74611 16.9846 4.69477 16.7565 4.69477C16.5285 4.69477 16.3419 4.65369 16.3419 4.59208C16.3419 4.54074 16.2383 4.46886 16.1139 4.43805C15.3675 4.24294 15.1498 2.49726 15.834 2.28162C15.948 2.24054 16.0309 2.11732 16.0309 1.99409C16.0309 1.55253 16.1657 1.30609 16.4041 1.24447C16.5389 1.21367 16.6529 1.14179 16.6529 1.09044C16.6529 0.956948 16.9431 0.977485 16.9846 1.11098C17.0053 1.17259 17.3163 1.24447 17.6687 1.27528C18.0212 1.30609 18.3114 1.37797 18.3114 1.41904C18.3114 1.47038 18.384 1.51146 18.4669 1.51146C18.6846 1.51146 19.1407 2.04543 19.1407 2.30215C19.1407 2.43565 19.1925 2.53833 19.2444 2.53833C19.3066 2.53833 19.348 2.63075 19.348 2.74371C19.348 2.85666 19.3066 2.94908 19.2547 2.94908C19.12 2.94908 18.8297 3.54467 18.8297 3.8322C18.8297 4.01703 18.8712 4.04784 19.0681 3.9965C19.1925 3.96569 19.3273 3.89381 19.3687 3.8322C19.4724 3.67816 21.8566 3.68843 21.9084 3.84246C21.9395 3.91435 22.1261 4.01703 22.3334 4.08891C22.5407 4.15053 22.9346 4.43805 23.2041 4.70504C23.4736 4.98229 23.7431 5.20821 23.795 5.20821C23.8572 5.20821 23.9297 5.32116 23.9712 5.46492C24.0023 5.59842 24.0956 5.76272 24.1681 5.82433C24.2407 5.88594 24.4066 6.22481 24.5413 6.57395C24.6657 6.92309 24.8316 7.24142 24.8834 7.28249C25.0389 7.38518 25.0389 9.50054 24.8834 9.60323C24.8212 9.6443 24.6346 9.9729 24.4791 10.3426C24.3133 10.7123 24.1267 11.0819 24.0541 11.1641C23.9919 11.2462 23.8986 11.4208 23.8675 11.5543C23.8261 11.6775 23.7328 11.7802 23.6706 11.7802C23.598 11.7802 23.4114 11.8932 23.2456 12.0369C23.0797 12.1807 22.8828 12.2936 22.8102 12.2936C22.7377 12.2936 22.6651 12.3552 22.634 12.4271C22.5822 12.5914 20.7163 12.6017 20.6126 12.4271C20.5712 12.3655 20.3639 12.2834 20.1462 12.2423C19.9389 12.2012 19.7626 12.1293 19.7626 12.078C19.7626 11.9548 18.9541 11.965 18.7986 12.0883C18.2492 12.5401 17.9901 12.8173 17.6169 13.3616C17.3681 13.7005 17.1712 14.0393 17.1712 14.1112C17.1712 14.1831 17.1297 14.2447 17.0675 14.2447C16.9742 14.2447 16.5492 15.0559 16.5492 15.2305C16.5492 15.364 15.9895 16.4525 15.9065 16.4833C15.8547 16.5038 15.7511 16.6681 15.6681 16.8427C15.4504 17.3048 15.0047 18.0749 14.9114 18.1468C14.87 18.1776 14.6108 18.537 14.3309 18.9478C14.0511 19.3483 13.7919 19.6871 13.7504 19.6871C13.709 19.6871 13.5431 19.8822 13.3876 20.1081C13.2322 20.3443 12.9626 20.6729 12.7968 20.8372C12.5273 21.1042 12.4236 21.135 12.1023 21.0837C11.895 21.0529 11.7187 20.981 11.698 20.9194C11.6773 20.868 11.5736 20.8167 11.47 20.8167C11.3663 20.8167 11.2108 20.7551 11.1383 20.6729C10.962 20.5086 10.0706 20.3033 9.50044 20.3033C9.2724 20.3033 9.08581 20.2622 9.08581 20.2006C9.08581 20.1492 8.85776 20.0979 8.56752 20.0979C8.28764 20.0979 8.04922 20.1492 8.04922 20.2006C8.04922 20.2622 7.91447 20.3033 7.74861 20.3033C7.41691 20.3033 6.98154 20.447 6.77422 20.6113C6.71203 20.6729 6.51508 20.827 6.35959 20.9707C6.2041 21.1145 6.02788 21.2274 5.96568 21.2274C5.91386 21.2274 5.66507 21.4328 5.42666 21.6895C5.17788 21.9463 4.93946 22.1516 4.898 22.1516C4.8669 22.1516 4.57666 22.3981 4.26568 22.6959C3.95471 22.9834 3.5608 23.3633 3.38458 23.5174C3.21873 23.6817 3.07361 23.846 3.07361 23.9076C3.07361 23.9589 2.61751 24 2.03702 24H1.00044V20.9913ZM4.1102 19.4304C4.35898 19.1737 4.60776 18.9683 4.65959 18.9683C4.71142 18.9683 4.94983 18.804 5.20898 18.5986C5.89312 18.0339 7.29252 17.6334 8.53642 17.6334C9.06508 17.6334 9.6974 17.6745 9.93581 17.7361C10.1846 17.7874 10.6925 17.9004 11.0864 17.9722L11.7809 18.116L12.2785 17.4075C12.8279 16.6168 13.17 16.0623 13.3565 15.6823C13.4187 15.5386 13.5328 15.3537 13.6053 15.2716C13.823 15.0046 14.1236 14.4193 14.2687 14.0085C14.7456 12.5709 16.9742 9.94209 17.9694 9.6443C18.1974 9.57242 18.809 9.52108 19.3273 9.52108C20.084 9.52108 20.4157 9.57242 20.9755 9.77779C21.784 10.0859 21.7633 10.0961 22.1986 9.1206L22.4889 8.45313L22.2919 7.89862C21.9187 6.78959 21.1413 6.12212 20.395 6.26589C20.1773 6.31723 5.31263 13.4437 5.15715 13.5875C5.14678 13.5978 5.25044 13.9777 5.39556 14.4193C5.57178 14.943 5.66507 15.4461 5.66507 15.8774C5.66507 16.9864 5.53032 17.2637 4.45227 18.3419C3.68519 19.1018 3.48824 19.3688 3.48824 19.5947C3.48824 19.759 3.52971 19.8925 3.57117 19.8925C3.61263 19.8925 3.86141 19.6871 4.1102 19.4304Z" fill="white"/>
<path d="M1.00044 20.9913C1.00044 17.6642 0.958973 17.8798 1.68458 17.3767C1.84007 17.2637 2.04739 17.0891 2.13032 16.9967C2.22361 16.894 2.33763 16.8119 2.38946 16.8119C2.52422 16.8119 3.17727 16.0931 3.17727 15.9493C3.17727 15.7029 2.72117 14.5014 2.57605 14.3577C2.38946 14.1728 2.44129 12.3861 2.63824 12.3142C2.7108 12.2936 2.76263 12.2218 2.76263 12.1601C2.76263 11.9342 3.45715 11.2976 3.83032 11.1743C4.45227 10.969 4.26568 10.7533 3.47788 10.7533C3.26019 10.7533 3.07361 10.7123 3.07361 10.6506C3.07361 10.5993 2.95958 10.5274 2.81446 10.4863C2.48275 10.4042 2.24434 9.88048 2.24434 9.24382C2.24434 8.73038 2.50349 8.08345 2.7108 8.08345C2.85593 8.08345 2.96995 7.86781 2.96995 7.59055C2.98032 7.49813 3.07361 7.30303 3.18763 7.15927C3.37422 6.94362 3.49861 6.90255 3.9858 6.90255C4.34861 6.90255 4.57666 6.95389 4.60776 7.03604C4.62849 7.10792 4.83581 7.15927 5.10532 7.15927C5.84129 7.15927 6.29739 7.4776 6.47361 8.10399C6.60837 8.58662 6.45288 9.21301 6.12117 9.57242C5.98642 9.71618 5.87239 9.91129 5.87239 9.99344C5.87239 10.1783 6.12117 10.1783 6.31812 9.99344C6.39069 9.91129 6.6602 9.78806 6.88825 9.71618C7.12666 9.6443 7.32361 9.55188 7.32361 9.51081C7.32361 9.46973 7.46874 9.40812 7.63459 9.36705C7.81081 9.32597 7.94556 9.26436 7.94556 9.21301C7.94556 9.16167 8.08032 9.10006 8.24617 9.05898C8.76447 8.94603 8.723 8.73038 8.15288 8.67904C7.75898 8.63797 7.58276 8.55581 7.27178 8.25802C6.94008 7.93969 6.88825 7.81647 6.83642 7.28249C6.78459 6.75879 6.80532 6.6561 6.98154 6.53287C7.27178 6.31723 7.53093 5.91675 7.53093 5.64976C7.53093 5.52654 7.64495 5.30062 7.79008 5.14659C7.98703 4.93095 8.14252 4.86934 8.47422 4.86934C8.71264 4.86934 8.93032 4.92068 8.97179 4.97203C9.00288 5.03364 9.29313 5.09525 9.62483 5.12606C10.1017 5.16713 10.2572 5.22874 10.5267 5.48546C10.9828 5.93729 11.0864 6.26589 10.9309 6.75879C10.8687 6.9847 10.7547 7.21061 10.6718 7.27222C10.5992 7.33384 10.537 7.49813 10.537 7.62136C10.537 7.75485 10.4748 7.88835 10.4126 7.91915C10.3401 7.96023 10.4334 7.96023 10.62 7.92942C10.8065 7.90888 11.0346 7.8062 11.1175 7.72405C11.2108 7.6419 11.3663 7.57002 11.4803 7.57002C11.584 7.57002 11.6773 7.52894 11.6773 7.46733C11.6773 7.41599 11.8639 7.3133 12.0919 7.25169C12.32 7.1798 12.5065 7.08739 12.5065 7.04631C12.5065 7.00524 12.6102 6.95389 12.7346 6.93335C13.1181 6.88201 13.0663 6.66637 12.6413 6.59449C11.9675 6.48153 11.9053 6.44045 11.7913 6.12212C11.7291 5.94756 11.584 5.78326 11.47 5.75245C11.3456 5.72164 11.2419 5.57788 11.2004 5.36224C11.1175 4.93095 11.2212 4.61262 11.5322 4.29429C11.6669 4.16079 11.8017 3.90408 11.8431 3.71924C11.9364 3.21607 12.237 2.94908 12.7139 2.94908C12.9315 2.94908 13.1803 3.02096 13.2736 3.10311C13.3565 3.18526 13.5639 3.25715 13.7401 3.25715C14.4968 3.25715 15.1395 3.80139 15.2017 4.48939C15.2328 4.82826 15.0254 5.38277 14.8285 5.45466C14.673 5.51627 14.6212 5.92702 14.7767 5.92702C14.9633 5.92702 15.5126 5.69084 15.5126 5.60869C15.5126 5.56761 15.6785 5.49573 15.8755 5.45466C16.0724 5.42385 16.2383 5.35197 16.2383 5.31089C16.2383 5.26982 16.3523 5.19794 16.4974 5.16713C16.6425 5.12606 16.7565 5.05417 16.7565 5.00283C16.7565 4.94122 16.8498 4.90014 16.9639 4.90014C17.0779 4.90014 17.1712 4.85907 17.1712 4.79746C17.1712 4.74611 16.9846 4.69477 16.7565 4.69477C16.5285 4.69477 16.3419 4.65369 16.3419 4.59208C16.3419 4.54074 16.2383 4.46886 16.1139 4.43805C15.3675 4.24294 15.1498 2.49726 15.834 2.28162C15.948 2.24054 16.0309 2.11732 16.0309 1.99409C16.0309 1.55253 16.1657 1.30609 16.4041 1.24447C16.5389 1.21367 16.6529 1.14179 16.6529 1.09044C16.6529 0.956948 16.9431 0.977485 16.9846 1.11098C17.0053 1.17259 17.3163 1.24447 17.6687 1.27528C18.0212 1.30609 18.3114 1.37797 18.3114 1.41904C18.3114 1.47038 18.384 1.51146 18.4669 1.51146C18.6846 1.51146 19.1407 2.04543 19.1407 2.30215C19.1407 2.43565 19.1925 2.53833 19.2444 2.53833C19.3066 2.53833 19.348 2.63075 19.348 2.74371C19.348 2.85666 19.3066 2.94908 19.2547 2.94908C19.12 2.94908 18.8297 3.54467 18.8297 3.8322C18.8297 4.01703 18.8712 4.04784 19.0681 3.9965C19.1925 3.96569 19.3273 3.89381 19.3687 3.8322C19.4724 3.67816 21.8566 3.68843 21.9084 3.84246C21.9395 3.91435 22.1261 4.01703 22.3334 4.08891C22.5407 4.15053 22.9346 4.43805 23.2041 4.70504C23.4736 4.98229 23.7431 5.20821 23.795 5.20821C23.8572 5.20821 23.9297 5.32116 23.9712 5.46492C24.0023 5.59842 24.0956 5.76272 24.1681 5.82433C24.2407 5.88594 24.4066 6.22481 24.5413 6.57395C24.6657 6.92309 24.8316 7.24142 24.8834 7.28249C25.0389 7.38518 25.0389 9.50054 24.8834 9.60323C24.8212 9.6443 24.6346 9.9729 24.4791 10.3426C24.3133 10.7123 24.1267 11.0819 24.0541 11.1641C23.9919 11.2462 23.8986 11.4208 23.8675 11.5543C23.8261 11.6775 23.7328 11.7802 23.6706 11.7802C23.598 11.7802 23.4114 11.8932 23.2456 12.0369C23.0797 12.1807 22.8828 12.2936 22.8102 12.2936C22.7377 12.2936 22.6651 12.3552 22.634 12.4271C22.5822 12.5914 20.7163 12.6017 20.6126 12.4271C20.5712 12.3655 20.3639 12.2834 20.1462 12.2423C19.9389 12.2012 19.7626 12.1293 19.7626 12.078C19.7626 11.9548 18.9541 11.965 18.7986 12.0883C18.2492 12.5401 17.9901 12.8173 17.6169 13.3616C17.3681 13.7005 17.1712 14.0393 17.1712 14.1112C17.1712 14.1831 17.1297 14.2447 17.0675 14.2447C16.9742 14.2447 16.5492 15.0559 16.5492 15.2305C16.5492 15.364 15.9895 16.4525 15.9065 16.4833C15.8547 16.5038 15.7511 16.6681 15.6681 16.8427C15.4504 17.3048 15.0047 18.0749 14.9114 18.1468C14.87 18.1776 14.6108 18.537 14.3309 18.9478C14.0511 19.3483 13.7919 19.6871 13.7504 19.6871C13.709 19.6871 13.5431 19.8822 13.3876 20.1081C13.2322 20.3443 12.9626 20.6729 12.7968 20.8372C12.5273 21.1042 12.4236 21.135 12.1023 21.0837C11.895 21.0529 11.7187 20.981 11.698 20.9194C11.6773 20.868 11.5736 20.8167 11.47 20.8167C11.3663 20.8167 11.2108 20.7551 11.1383 20.6729C10.962 20.5086 10.0706 20.3033 9.50044 20.3033C9.2724 20.3033 9.08581 20.2622 9.08581 20.2006C9.08581 20.1492 8.85776 20.0979 8.56752 20.0979C8.28764 20.0979 8.04922 20.1492 8.04922 20.2006C8.04922 20.2622 7.91447 20.3033 7.74861 20.3033C7.41691 20.3033 6.98154 20.447 6.77422 20.6113C6.71203 20.6729 6.51508 20.827 6.35959 20.9707C6.2041 21.1145 6.02788 21.2274 5.96568 21.2274C5.91386 21.2274 5.66507 21.4328 5.42666 21.6895C5.17788 21.9463 4.93946 22.1516 4.898 22.1516C4.8669 22.1516 4.57666 22.3981 4.26568 22.6959C3.95471 22.9834 3.5608 23.3633 3.38458 23.5174C3.21873 23.6817 3.07361 23.846 3.07361 23.9076C3.07361 23.9589 2.61751 24 2.03702 24H1.00044V20.9913ZM4.1102 19.4304C4.35898 19.1737 4.60776 18.9683 4.65959 18.9683C4.71142 18.9683 4.94983 18.804 5.20898 18.5986C5.89312 18.0339 7.29252 17.6334 8.53642 17.6334C9.06508 17.6334 9.6974 17.6745 9.93581 17.7361C10.1846 17.7874 10.6925 17.9004 11.0864 17.9722L11.7809 18.116L12.2785 17.4075C12.8279 16.6168 13.17 16.0623 13.3565 15.6823C13.4187 15.5386 13.5328 15.3537 13.6053 15.2716C13.823 15.0046 14.1236 14.4193 14.2687 14.0085C14.7456 12.5709 16.9742 9.94209 17.9694 9.6443C18.1974 9.57242 18.809 9.52108 19.3273 9.52108C20.084 9.52108 20.4157 9.57242 20.9755 9.77779C21.784 10.0859 21.7633 10.0961 22.1986 9.1206L22.4889 8.45313L22.2919 7.89862C21.9187 6.78959 21.1413 6.12212 20.395 6.26589C20.1773 6.31723 5.31263 13.4437 5.15715 13.5875C5.14678 13.5978 5.25044 13.9777 5.39556 14.4193C5.57178 14.943 5.66507 15.4461 5.66507 15.8774C5.66507 16.9864 5.53032 17.2637 4.45227 18.3419C3.68519 19.1018 3.48824 19.3688 3.48824 19.5947C3.48824 19.759 3.52971 19.8925 3.57117 19.8925C3.61263 19.8925 3.86141 19.6871 4.1102 19.4304Z" stroke="black" stroke-width="2" mask="url(#path-1-outside-1_121_361)"/>
</svg>
