<svg width="26" height="25" viewBox="0 0 26 25" fill="none" xmlns="http://www.w3.org/2000/svg">
<path d="M10.3672 0.507935C12.2437 0.479907 13.0045 0.523646 13.9453 0.764771L14.2803 0.855591C15.0414 1.07269 15.6545 1.33559 16.0977 1.67297C16.6157 2.06752 16.9081 2.57388 16.9209 3.19153C17.0638 3.07387 17.2289 2.98303 17.4062 2.93372L17.4131 2.93176C17.5501 2.89596 17.7528 2.87282 17.9658 2.85559C18.1916 2.83734 18.4701 2.82242 18.7803 2.81067C19.4011 2.78716 20.1651 2.7762 20.9268 2.77649C21.6886 2.77678 22.4537 2.78836 23.0742 2.81262C23.3838 2.82473 23.6613 2.83979 23.8867 2.85852C24.097 2.876 24.2987 2.90011 24.4365 2.93665H24.4375C24.8258 3.03831 25.1395 3.31943 25.3076 3.67297L25.3711 3.82922L25.373 3.83606C25.4268 4.00413 25.4485 4.18595 25.4629 4.48254C25.4702 4.63259 25.4764 4.82297 25.4814 5.06946L25.4951 5.99426V5.99524C25.5067 7.10948 25.501 7.80309 25.4365 8.25793C25.4032 8.49288 25.3506 8.69766 25.2568 8.87903C25.159 9.06823 25.0333 9.20012 24.9033 9.30872L24.9023 9.30774C24.8225 9.37513 24.7252 9.45079 24.5908 9.50989C24.4589 9.56787 24.3183 9.59986 24.1631 9.62024C23.8694 9.65878 23.4198 9.66676 22.6816 9.6759L22.2529 9.68372C23.167 10.962 23.7215 12.2946 23.9785 13.8351V13.8361C24.0614 14.3353 24.0809 15.0035 24.0537 15.6281C24.0269 16.2451 23.9509 16.8774 23.8223 17.298L23.8232 17.299C23.7436 17.5625 23.4234 18.3696 23.208 18.8673C22.9715 19.4212 22.5247 20.1908 22.167 20.6613V20.6622L22.1201 20.7218L22.665 21.2745L22.666 21.2765C22.9016 21.5176 23.1382 21.7677 23.3291 21.9777C23.5074 22.1737 23.678 22.3681 23.7529 22.4816H23.752C23.7925 22.541 23.8332 22.6007 23.8652 22.6534C23.8982 22.7077 23.9413 22.7852 23.9678 22.88C24.0288 23.0989 23.9623 23.2886 23.9414 23.3595L23.9395 23.3673C23.8586 23.6259 23.6693 23.8528 23.458 24.0626C23.3497 24.1702 23.1902 24.3308 22.999 24.42C22.7451 24.5386 22.49 24.5169 22.2529 24.4054C22.0539 24.3117 21.8508 24.148 21.6357 23.9552C21.4121 23.7547 21.1316 23.4812 20.7764 23.1329C20.5113 22.8728 20.3348 22.7035 20.2158 22.5929C19.7596 22.9141 19.4567 23.093 18.9385 23.3566L18.9365 23.3575C18.0986 23.7784 17.2628 24.1121 16.7197 24.2325L16.7158 24.2335C16.4233 24.2961 15.808 24.3338 15.2158 24.3488C14.611 24.364 13.9517 24.3571 13.5508 24.3165V24.3156C12.8338 24.2442 12.0163 24.0196 11.21 23.6847L11.2061 23.6837C10.4138 23.3471 9.97977 23.1056 9.25586 22.5919C9.13744 22.7026 8.96126 22.8719 8.69531 23.1329C8.35326 23.4692 8.08206 23.7329 7.86426 23.9298C7.65283 24.1209 7.45996 24.2784 7.27734 24.3761C7.07544 24.4841 6.8392 24.5434 6.58203 24.463C6.37482 24.3982 6.21368 24.2552 6.11426 24.1661C5.94253 24.0144 5.74217 23.7575 5.63965 23.5665L5.63867 23.5646L5.50195 23.3087L5.37598 23.0714L5.59863 22.6632C5.65284 22.5633 5.75497 22.4358 5.8457 22.3273C5.94956 22.2031 6.08205 22.0526 6.22949 21.8907C6.52461 21.5668 6.88974 21.1858 7.22461 20.8556L7.22559 20.8546L7.35449 20.7267L7.35254 20.7238L7.35059 20.7218C7.01406 20.2778 6.44875 19.3144 6.24805 18.839L6.24609 18.8361C5.90605 18.0161 5.69154 17.4485 5.56543 16.9259C5.43665 16.3922 5.40381 15.923 5.40137 15.3038L5.39941 15.1075L5.07227 15.1193L5.07324 15.1202C4.60051 15.1392 3.70762 15.1537 3.08789 15.1583H2.44922C2.28102 15.1565 2.15193 15.1516 2.04785 15.1437C1.86493 15.1297 1.7448 15.1037 1.62891 15.0646L1.5127 15.0206C1.23298 14.9106 0.958941 14.7588 0.78125 14.4376C0.628855 14.162 0.58033 13.813 0.545898 13.424L0.524414 13.0021C0.506642 12.4412 0.499567 11.5061 0.5 10.5861C0.500583 9.35375 0.51521 8.07734 0.544922 7.66418L0.545898 7.66125C0.57601 7.27704 0.615745 6.95516 0.71875 6.70325C0.843004 6.39941 1.04385 6.224 1.29004 6.10168C1.58835 5.95094 1.86807 5.93605 2.63574 5.89661H2.63672C3.76462 5.84013 8.1803 5.83947 8.91113 5.8927H8.91309C9.10475 5.9076 9.27917 5.92877 9.43848 5.96497L9.4375 5.93274L9.06836 5.88586H9.06738C8.00142 5.74549 7.11809 5.53843 6.42969 5.2511C5.74659 4.96592 5.20969 4.5822 4.90137 4.05969C4.76904 3.84034 4.70048 3.58183 4.67969 3.34094C4.65893 3.09995 4.68241 2.83445 4.77441 2.5968V2.59583C4.94444 2.16011 5.30224 1.80639 5.74414 1.52551C6.19063 1.24179 6.76229 1.00659 7.42871 0.823364L7.75879 0.73645C8.48004 0.556364 8.93092 0.529474 10.3672 0.508911V0.507935ZM15.0137 9.56848C14.0521 9.50752 12.7278 9.91276 11.5391 10.6896C11.3063 10.8417 10.9908 11.1015 10.6895 11.3868C10.3853 11.6748 10.1295 11.9574 10 12.1466L9.99707 12.1505C9.83943 12.376 9.6497 12.7047 9.49316 13.0167C9.4155 13.1716 9.3493 13.3165 9.30078 13.4357C9.27654 13.4952 9.25798 13.5455 9.24512 13.5851C9.23884 13.6044 9.23439 13.6196 9.23145 13.631C9.22933 13.6392 9.22787 13.644 9.22754 13.6456L9.22656 13.6544C9.15108 14.0879 9.11662 14.3176 9.10449 14.5167C9.0928 14.7088 9.10119 14.884 9.12891 15.2101L9.16699 15.5851C9.25185 16.2985 9.38626 16.8048 9.64062 17.3771L9.77832 17.6691V17.67C10.4331 19.0047 11.5064 19.9357 13.0469 20.4689H13.0479L13.3809 20.5734C13.7241 20.6715 14.0844 20.7466 14.3438 20.7745L14.5986 20.7814C14.711 20.7801 14.8464 20.7757 14.9922 20.7667C15.2801 20.749 15.5492 20.7189 15.6875 20.6896L15.6914 20.6886C16.3804 20.5483 17.2207 20.1965 17.8447 19.7833H17.8457C18.974 19.0375 19.6973 18.0227 20.292 16.2462V16.2452C20.35 16.0724 20.3684 16.0026 20.3799 15.8995C20.3937 15.7752 20.3975 15.6008 20.3975 15.2218V15.2189C20.4019 14.3924 20.347 14.06 20.1162 13.4103C19.6921 12.2195 18.9289 11.231 17.9033 10.5372L17.5889 10.3429C16.8269 9.90902 15.8864 9.62098 15.0156 9.56848H15.0137ZM4.07617 11.6144L4.14746 11.6115C4.48812 11.5921 5.14424 11.5783 5.61328 11.5782L6.1416 11.5743L6.24219 11.3624V11.3615C6.53123 10.7484 6.91889 10.0939 7.28516 9.61047C7.33913 9.53748 7.3847 9.47079 7.4248 9.41125H4.07617V11.6144ZM19.6904 6.31555H22.1133V6.15051H19.6904V6.31555ZM16.3516 4.52258C16.1723 4.68803 15.9572 4.83582 15.7139 4.97766L15.7148 4.97864C14.903 5.45204 13.9807 5.69955 12.5078 5.89368L12.5088 5.89465L12.333 5.91809L12.3418 6.12805C12.344 6.1712 12.3473 6.21384 12.3496 6.255C12.9739 6.09843 13.6452 6.02879 14.6387 6.00305L15.2998 5.99719C15.674 6.00027 16.0114 6.01675 16.2988 6.047V5.8302C16.3012 5.324 16.3179 4.89203 16.3496 4.54895C16.3504 4.54016 16.3507 4.53134 16.3516 4.52258Z" fill="white" stroke="black"/>
</svg>
