<svg width="21" height="28" viewBox="0 0 21 28" fill="none" xmlns="http://www.w3.org/2000/svg">
<mask id="path-1-outside-1_121_439" maskUnits="userSpaceOnUse" x="0" y="3" width="21" height="21" fill="black">
<rect fill="white" y="3" width="21" height="21"/>
<path d="M19.44 5.08V22.32C19.44 22.64 19.4 22.8 19.36 22.84C19.28 22.92 19.12 22.92 18.84 22.92H14.76C14.44 22.92 14.28 22.92 14.24 22.84C14.2 22.8 14.2 22.64 14.2 22.36V15.92V15.44C14.2 15.28 14.16 15.2 14.08 15.12C14 15.04 13.92 15 13.76 15H11.6V14.08V5.24C11.6 4.88 11.6 4.68 11.64 4.6C11.68 4.56 11.92 4.52 12.32 4.52H18.84C19.12 4.52 19.28 4.56 19.36 4.6C19.4 4.68 19.44 4.84 19.44 5.08ZM8.92 14.64C8.92 14.92 9.04 15.04 9.32 15.04C9.48 15.04 10.24 15 11.6 15V18.48V21.92V22.2C11.6 22.6 11.56 22.8 11.52 22.84C11.44 22.92 11.24 22.92 10.84 22.92H9.44C9.2 22.92 9.04 22.92 9 22.88C8.96 22.84 8.92 22.68 8.92 22.44V21.6V20.76C8.92 20.52 8.88 20.4 8.84 20.36C8.8 20.32 8.68 20.28 8.44 20.28C7.64 20.28 7.08 20.28 6.76 20.28C6.44 20.28 6.32 20.16 6.32 19.84V15.72C6.32 15.36 6.28 15.16 6.24 15.12C6.16 15.08 5.96 15.04 5.6 15.04C4.64 15.04 4.16 15.04 4.12 15C3.8 15 3.68 15.16 3.68 15.44V17.12V22.32C3.68 22.64 3.64 22.8 3.6 22.84C3.52 22.92 3.36 22.92 3.08 22.92H2.28H1.48C1.16 22.92 1.04 22.8 1.08 22.52V22.12V5.32V5.04C1.08 4.8 1.08 4.64 1.16 4.6C1.2 4.56 1.36 4.52 1.6 4.52H5.64C5.96 4.52 6.16 4.56 6.24 4.6C6.28 4.68 6.32 4.84 6.32 5.16V11.48V11.92C6.32 12.16 6.36 12.32 6.4 12.36C6.44 12.4 6.6 12.4 6.88 12.4C7.6 12.44 8.16 12.44 8.56 12.4C8.8 12.4 8.92 12.56 8.92 12.8V13.72V14.64Z"/>
</mask>
<path d="M19.44 5.08V22.32C19.44 22.64 19.4 22.8 19.36 22.84C19.28 22.92 19.12 22.92 18.84 22.92H14.76C14.44 22.92 14.28 22.92 14.24 22.84C14.2 22.8 14.2 22.64 14.2 22.36V15.92V15.44C14.2 15.28 14.16 15.2 14.08 15.12C14 15.04 13.92 15 13.76 15H11.6V14.08V5.24C11.6 4.88 11.6 4.68 11.64 4.6C11.68 4.56 11.92 4.52 12.32 4.52H18.84C19.12 4.52 19.28 4.56 19.36 4.6C19.4 4.68 19.44 4.84 19.44 5.08ZM8.92 14.64C8.92 14.92 9.04 15.04 9.32 15.04C9.48 15.04 10.24 15 11.6 15V18.48V21.92V22.2C11.6 22.6 11.56 22.8 11.52 22.84C11.44 22.92 11.24 22.92 10.84 22.92H9.44C9.2 22.92 9.04 22.92 9 22.88C8.96 22.84 8.92 22.68 8.92 22.44V21.6V20.76C8.92 20.52 8.88 20.4 8.84 20.36C8.8 20.32 8.68 20.28 8.44 20.28C7.64 20.28 7.08 20.28 6.76 20.28C6.44 20.28 6.32 20.16 6.32 19.84V15.72C6.32 15.36 6.28 15.16 6.24 15.12C6.16 15.08 5.96 15.04 5.6 15.04C4.64 15.04 4.16 15.04 4.12 15C3.8 15 3.68 15.16 3.68 15.44V17.12V22.32C3.68 22.64 3.64 22.8 3.6 22.84C3.52 22.92 3.36 22.92 3.08 22.92H2.28H1.48C1.16 22.92 1.04 22.8 1.08 22.52V22.12V5.32V5.04C1.08 4.8 1.08 4.64 1.16 4.6C1.2 4.56 1.36 4.52 1.6 4.52H5.64C5.96 4.52 6.16 4.56 6.24 4.6C6.28 4.68 6.32 4.84 6.32 5.16V11.48V11.92C6.32 12.16 6.36 12.32 6.4 12.36C6.44 12.4 6.6 12.4 6.88 12.4C7.6 12.44 8.16 12.44 8.56 12.4C8.8 12.4 8.92 12.56 8.92 12.8V13.72V14.64Z" fill="#F13600"/>
<path d="M19.36 22.84L20.0671 23.5471L20.0671 23.5471L19.36 22.84ZM14.24 22.84L15.1344 22.3928L15.0619 22.2476L14.9471 22.1329L14.24 22.84ZM14.08 15.12L14.7871 14.4129L14.7871 14.4129L14.08 15.12ZM11.6 15H10.6V16H11.6V15ZM11.64 4.6L10.9329 3.89289L10.8181 4.00764L10.7456 4.15279L11.64 4.6ZM19.36 4.6L20.2544 4.15279L20.1054 3.85465L19.8072 3.70558L19.36 4.6ZM11.6 15H12.6V14H11.6V15ZM11.52 22.84L12.2271 23.5471L12.2271 23.5471L11.52 22.84ZM9 22.88L8.29289 23.5871V23.5871L9 22.88ZM8.84 20.36L8.13289 21.0671L8.1329 21.0671L8.84 20.36ZM6.24 15.12L6.94711 14.4129L6.83236 14.2981L6.68722 14.2256L6.24 15.12ZM4.12 15L4.8271 14.2929L4.53421 14H4.12V15ZM3.6 22.84L2.89289 22.1329L2.89289 22.1329L3.6 22.84ZM1.08 22.52L2.06995 22.6614L2.08 22.5911V22.52H1.08ZM1.16 4.6L1.60721 5.49443L1.75236 5.42185L1.86711 5.3071L1.16 4.6ZM6.24 4.6L7.13442 4.15278L6.98536 3.85465L6.68722 3.70558L6.24 4.6ZM6.4 12.36L5.69289 13.0671L5.6929 13.0671L6.4 12.36ZM6.88 12.4L6.93547 11.4015L6.90776 11.4H6.88V12.4ZM8.56 12.4V11.4H8.51012L8.46049 11.405L8.56 12.4ZM19.44 5.08H18.44V22.32H19.44H20.44V5.08H19.44ZM19.44 22.32H18.44C18.44 22.444 18.4318 22.502 18.4302 22.5112C18.4293 22.5165 18.4333 22.4895 18.4503 22.4433C18.459 22.4194 18.4749 22.38 18.5015 22.3323C18.5265 22.2876 18.5737 22.2121 18.6529 22.1329L19.36 22.84L20.0671 23.5471C20.2296 23.3846 20.3008 23.2062 20.3285 23.1305C20.3642 23.033 20.3857 22.9385 20.3998 22.8588C20.4282 22.698 20.44 22.516 20.44 22.32H19.44ZM19.36 22.84L18.6529 22.1329C18.7556 22.0302 18.8636 21.9755 18.9396 21.9476C19.0089 21.9221 19.0568 21.917 19.0582 21.9168C19.0612 21.9165 19.0484 21.918 19.0057 21.919C18.9635 21.9199 18.9132 21.92 18.84 21.92V22.92V23.92C18.956 23.92 19.1349 23.9216 19.2918 23.9032C19.4415 23.8855 19.7834 23.8308 20.0671 23.5471L19.36 22.84ZM18.84 22.92V21.92H14.76V22.92V23.92H18.84V22.92ZM14.76 22.92V21.92C14.6769 21.92 14.6182 21.92 14.57 21.919C14.5198 21.9179 14.5063 21.9162 14.5118 21.9168C14.5162 21.9174 14.5346 21.9196 14.5623 21.926C14.5892 21.9322 14.6368 21.945 14.6951 21.9706C14.8198 22.0253 15.0127 22.1493 15.1344 22.3928L14.24 22.84L13.3456 23.2872C13.4873 23.5707 13.7152 23.7247 13.8911 23.8019C14.0492 23.8713 14.1962 23.8935 14.2782 23.9032C14.436 23.9217 14.628 23.92 14.76 23.92V22.92ZM14.24 22.84L14.9471 22.1329C15.0569 22.2427 15.1145 22.3535 15.143 22.4186C15.1724 22.4859 15.1863 22.5404 15.1925 22.568C15.2041 22.6197 15.2044 22.6486 15.2031 22.6276C15.2021 22.6129 15.2011 22.5852 15.2006 22.5361C15.2 22.488 15.2 22.4316 15.2 22.36H14.2H13.2C13.2 22.4859 13.1995 22.6336 13.2069 22.7524C13.2106 22.8114 13.2184 22.9053 13.2413 23.007C13.2564 23.0744 13.3139 23.3281 13.5329 23.5471L14.24 22.84ZM14.2 22.36H15.2V15.92H14.2H13.2V22.36H14.2ZM14.2 15.92H15.2V15.44H14.2H13.2V15.92H14.2ZM14.2 15.44H15.2C15.2 15.2792 15.1803 15.0833 15.0985 14.8786C15.0134 14.6659 14.89 14.5158 14.7871 14.4129L14.08 15.12L13.3729 15.8271C13.35 15.8042 13.2866 15.7341 13.2415 15.6214C13.1997 15.5167 13.2 15.4408 13.2 15.44H14.2ZM14.08 15.12L14.7871 14.4129C14.6842 14.31 14.5341 14.1866 14.3214 14.1015C14.1167 14.0196 13.9208 14 13.76 14V15V16C13.7592 16 13.6833 16.0003 13.5786 15.9585C13.4659 15.9134 13.3958 15.85 13.3729 15.8271L14.08 15.12ZM13.76 15V14H11.6V15V16H13.76V15ZM11.6 15H12.6V14.08H11.6H10.6V15H11.6ZM11.6 14.08H12.6V5.24H11.6H10.6V14.08H11.6ZM11.6 5.24H12.6C12.6 5.14873 12.6 5.07352 12.6006 5.00822C12.6012 4.94244 12.6023 4.89605 12.6039 4.86256C12.6056 4.82637 12.6071 4.82335 12.6046 4.83908C12.6032 4.84825 12.5993 4.87097 12.5905 4.9025C12.5821 4.93307 12.5656 4.98497 12.5344 5.04721L11.64 4.6L10.7456 4.15279C10.6687 4.30658 10.6412 4.45051 10.6291 4.52716C10.6154 4.61415 10.6094 4.69863 10.6061 4.76744C10.5997 4.90193 10.6 5.07032 10.6 5.24H11.6ZM11.64 4.6L12.3471 5.30711C12.2791 5.37508 12.2148 5.41905 12.1734 5.44452C12.1299 5.4712 12.0927 5.4891 12.0675 5.5002C12.0186 5.52172 11.9823 5.53204 11.97 5.53539C11.9446 5.54231 11.9421 5.54081 11.9743 5.5366C12.0345 5.52876 12.1492 5.52 12.32 5.52V4.52V3.52C12.0908 3.52 11.8855 3.53124 11.7157 3.5534C11.6329 3.56419 11.5379 3.58018 11.4438 3.60586C11.3971 3.61859 11.3323 3.6386 11.2611 3.66995C11.2057 3.69437 11.0664 3.75935 10.9329 3.89289L11.64 4.6ZM12.32 4.52V5.52H18.84V4.52V3.52H12.32V4.52ZM18.84 4.52V5.52C18.9342 5.52 18.9847 5.52686 19.0012 5.52978C19.009 5.53116 19.0051 5.53093 18.9917 5.52682C18.979 5.52295 18.9509 5.51349 18.9128 5.49442L19.36 4.6L19.8072 3.70558C19.5268 3.56538 19.1875 3.52 18.84 3.52V4.52ZM19.36 4.6L18.4656 5.04721C18.4559 5.02779 18.449 5.01176 18.4445 5.00012C18.4398 4.98832 18.4368 4.97922 18.4349 4.97327C18.4313 4.96173 18.431 4.95829 18.4321 4.96429C18.4344 4.97663 18.44 5.01439 18.44 5.08H19.44H20.44C20.44 4.75467 20.3895 4.42296 20.2544 4.15279L19.36 4.6ZM8.92 14.64H7.92C7.92 14.8956 7.97097 15.3152 8.30789 15.6521C8.64482 15.989 9.06445 16.04 9.32 16.04V15.04V14.04C9.32012 14.04 9.33039 14.04 9.34868 14.0423C9.36699 14.0446 9.39669 14.0497 9.43429 14.0614C9.51366 14.0858 9.62193 14.1377 9.72211 14.2379C9.82228 14.3381 9.87415 14.4463 9.89865 14.5257C9.91025 14.5633 9.91537 14.593 9.9177 14.6113C9.92003 14.6296 9.92 14.6399 9.92 14.64H8.92ZM9.32 15.04V16.04C9.41554 16.04 9.6926 16.0287 10.0363 16.0197C10.4089 16.0098 10.93 16 11.6 16V15V14C10.91 14 10.3711 14.0102 9.98369 14.0203C9.79025 14.0254 9.63496 14.0305 9.51991 14.0343C9.46175 14.0362 9.41602 14.0377 9.37991 14.0387C9.36203 14.0392 9.348 14.0395 9.33709 14.0397C9.33171 14.0399 9.32757 14.0399 9.3245 14.04C9.32135 14.04 9.31997 14.04 9.32 14.04V15.04ZM11.6 15H10.6V18.48H11.6H12.6V15H11.6ZM11.6 18.48H10.6V21.92H11.6H12.6V18.48H11.6ZM11.6 21.92H10.6V22.2H11.6H12.6V21.92H11.6ZM11.6 22.2H10.6C10.6 22.3719 10.5911 22.4712 10.5851 22.5136C10.5818 22.5364 10.5821 22.5227 10.5932 22.4867C10.5988 22.4684 10.6117 22.429 10.6364 22.3786C10.6491 22.3526 10.6677 22.3178 10.6938 22.2784C10.7194 22.2398 10.758 22.1878 10.8129 22.1329L11.52 22.84L12.2271 23.5471C12.4224 23.3518 12.4893 23.1252 12.5056 23.0721C12.5354 22.9748 12.5532 22.8786 12.5649 22.7964C12.5889 22.6288 12.6 22.4281 12.6 22.2H11.6ZM11.52 22.84L10.8129 22.1329C10.9432 22.0025 11.0776 21.9505 11.1399 21.9312C11.1723 21.9211 11.1958 21.9166 11.2052 21.915C11.2151 21.9133 11.2174 21.9134 11.2095 21.9141C11.1911 21.9158 11.1548 21.9178 11.0874 21.9189C11.021 21.92 10.9425 21.92 10.84 21.92V22.92V23.92C11.0193 23.92 11.2242 23.921 11.3905 23.9059C11.5039 23.8956 11.9106 23.8636 12.2271 23.5471L11.52 22.84ZM10.84 22.92V21.92H9.44V22.92V23.92H10.84V22.92ZM9.44 22.92V21.92C9.3783 21.92 9.33008 21.92 9.28828 21.9195C9.24571 21.9189 9.22262 21.918 9.21152 21.9172C9.19445 21.9161 9.22457 21.9167 9.27674 21.9287C9.30439 21.9351 9.35819 21.9492 9.42439 21.9784C9.48782 22.0064 9.59785 22.0636 9.70711 22.1729L9 22.88L8.29289 23.5871C8.50999 23.8042 8.76125 23.8623 8.82702 23.8775C8.92793 23.9008 9.02055 23.9089 9.07848 23.9128C9.19457 23.9205 9.33385 23.92 9.44 23.92V22.92ZM9 22.88L9.70711 22.1729C9.78529 22.2511 9.83154 22.3249 9.85476 22.3658C9.88006 22.4104 9.89549 22.4471 9.90397 22.4691C9.92054 22.5122 9.92554 22.5387 9.92558 22.5389C9.92607 22.5413 9.92 22.5087 9.92 22.44H8.92H7.92C7.92 22.6113 7.93393 22.7787 7.96442 22.9311C7.97946 23.0063 8.00196 23.0953 8.03728 23.1871C8.06336 23.2549 8.1343 23.4285 8.29289 23.5871L9 22.88ZM8.92 22.44H9.92V21.6H8.92H7.92V22.44H8.92ZM8.92 21.6H9.92V20.76H8.92H7.92V21.6H8.92ZM8.92 20.76H9.92C9.92 20.5901 9.90636 20.4203 9.86939 20.2601C9.84044 20.1347 9.7667 19.8725 9.5471 19.6529L8.84 20.36L8.1329 21.0671C8.03174 20.966 7.98104 20.8679 7.95901 20.8194C7.9345 20.7655 7.92424 20.7256 7.92061 20.7099C7.91364 20.6797 7.92 20.6899 7.92 20.76H8.92ZM8.84 20.36L9.54711 19.6529C9.32751 19.4333 9.06531 19.3596 8.93986 19.3306C8.77966 19.2936 8.60993 19.28 8.44 19.28V20.28V21.28C8.51007 21.28 8.52034 21.2864 8.49014 21.2794C8.47441 21.2758 8.43449 21.2655 8.38057 21.241C8.3321 21.219 8.23405 21.1683 8.13289 21.0671L8.84 20.36ZM8.44 20.28V19.28C8.43844 19.28 8.43688 19.28 8.43532 19.28C8.43375 19.28 8.4322 19.28 8.43064 19.28C8.42908 19.28 8.42752 19.28 8.42596 19.28C8.42441 19.28 8.42285 19.28 8.42129 19.28C8.41974 19.28 8.41819 19.28 8.41663 19.28C8.41508 19.28 8.41353 19.28 8.41197 19.28C8.41042 19.28 8.40887 19.28 8.40732 19.28C8.40577 19.28 8.40422 19.28 8.40268 19.28C8.40113 19.28 8.39958 19.28 8.39804 19.28C8.39649 19.28 8.39494 19.28 8.3934 19.28C8.39186 19.28 8.39031 19.28 8.38877 19.28C8.38723 19.28 8.38569 19.28 8.38415 19.28C8.38261 19.28 8.38107 19.28 8.37953 19.28C8.37799 19.28 8.37645 19.28 8.37491 19.28C8.37338 19.28 8.37184 19.28 8.37031 19.28C8.36877 19.28 8.36724 19.28 8.3657 19.28C8.36417 19.28 8.36264 19.28 8.36111 19.28C8.35958 19.28 8.35804 19.28 8.35651 19.28C8.35499 19.28 8.35346 19.28 8.35193 19.28C8.3504 19.28 8.34888 19.28 8.34735 19.28C8.34582 19.28 8.3443 19.28 8.34277 19.28C8.34125 19.28 8.33973 19.28 8.3382 19.28C8.33668 19.28 8.33516 19.28 8.33364 19.28C8.33212 19.28 8.3306 19.28 8.32908 19.28C8.32756 19.28 8.32605 19.28 8.32453 19.28C8.32301 19.28 8.3215 19.28 8.31998 19.28C8.31847 19.28 8.31695 19.28 8.31544 19.28C8.31393 19.28 8.31242 19.28 8.3109 19.28C8.30939 19.28 8.30788 19.28 8.30637 19.28C8.30486 19.28 8.30336 19.28 8.30185 19.28C8.30034 19.28 8.29883 19.28 8.29733 19.28C8.29582 19.28 8.29432 19.28 8.29281 19.28C8.29131 19.28 8.28981 19.28 8.2883 19.28C8.2868 19.28 8.2853 19.28 8.2838 19.28C8.2823 19.28 8.2808 19.28 8.2793 19.28C8.2778 19.28 8.27631 19.28 8.27481 19.28C8.27331 19.28 8.27182 19.28 8.27032 19.28C8.26883 19.28 8.26733 19.28 8.26584 19.28C8.26435 19.28 8.26286 19.28 8.26137 19.28C8.25987 19.28 8.25838 19.28 8.2569 19.28C8.25541 19.28 8.25392 19.28 8.25243 19.28C8.25094 19.28 8.24946 19.28 8.24797 19.28C8.24648 19.28 8.245 19.28 8.24352 19.28C8.24203 19.28 8.24055 19.28 8.23907 19.28C8.23759 19.28 8.2361 19.28 8.23462 19.28C8.23314 19.28 8.23167 19.28 8.23019 19.28C8.22871 19.28 8.22723 19.28 8.22575 19.28C8.22428 19.28 8.2228 19.28 8.22133 19.28C8.21985 19.28 8.21838 19.28 8.21691 19.28C8.21544 19.28 8.21396 19.28 8.21249 19.28C8.21102 19.28 8.20955 19.28 8.20808 19.28C8.20661 19.28 8.20514 19.28 8.20368 19.28C8.20221 19.28 8.20074 19.28 8.19928 19.28C8.19781 19.28 8.19635 19.28 8.19488 19.28C8.19342 19.28 8.19196 19.28 8.1905 19.28C8.18903 19.28 8.18757 19.28 8.18611 19.28C8.18465 19.28 8.1832 19.28 8.18174 19.28C8.18028 19.28 8.17882 19.28 8.17737 19.28C8.17591 19.28 8.17445 19.28 8.173 19.28C8.17154 19.28 8.17009 19.28 8.16864 19.28C8.16719 19.28 8.16573 19.28 8.16428 19.28C8.16283 19.28 8.16138 19.28 8.15993 19.28C8.15848 19.28 8.15704 19.28 8.15559 19.28C8.15414 19.28 8.1527 19.28 8.15125 19.28C8.14981 19.28 8.14836 19.28 8.14692 19.28C8.14547 19.28 8.14403 19.28 8.14259 19.28C8.14115 19.28 8.13971 19.28 8.13827 19.28C8.13683 19.28 8.13539 19.28 8.13395 19.28C8.13251 19.28 8.13108 19.28 8.12964 19.28C8.1282 19.28 8.12677 19.28 8.12533 19.28C8.1239 19.28 8.12247 19.28 8.12103 19.28C8.1196 19.28 8.11817 19.28 8.11674 19.28C8.11531 19.28 8.11388 19.28 8.11245 19.28C8.11102 19.28 8.10959 19.28 8.10817 19.28C8.10674 19.28 8.10531 19.28 8.10389 19.28C8.10246 19.28 8.10104 19.28 8.09962 19.28C8.09819 19.28 8.09677 19.28 8.09535 19.28C8.09393 19.28 8.09251 19.28 8.09109 19.28C8.08967 19.28 8.08825 19.28 8.08683 19.28C8.08541 19.28 8.08399 19.28 8.08258 19.28C8.08116 19.28 8.07975 19.28 8.07833 19.28C8.07692 19.28 8.07551 19.28 8.07409 19.28C8.07268 19.28 8.07127 19.28 8.06986 19.28C8.06845 19.28 8.06704 19.28 8.06563 19.28C8.06422 19.28 8.06281 19.28 8.06141 19.28C8.06 19.28 8.05859 19.28 8.05719 19.28C8.05578 19.28 8.05438 19.28 8.05298 19.28C8.05157 19.28 8.05017 19.28 8.04877 19.28C8.04737 19.28 8.04597 19.28 8.04457 19.28C8.04317 19.28 8.04177 19.28 8.04037 19.28C8.03897 19.28 8.03758 19.28 8.03618 19.28C8.03479 19.28 8.03339 19.28 8.032 19.28C8.0306 19.28 8.02921 19.28 8.02782 19.28C8.02643 19.28 8.02503 19.28 8.02364 19.28C8.02225 19.28 8.02086 19.28 8.01948 19.28C8.01809 19.28 8.0167 19.28 8.01531 19.28C8.01393 19.28 8.01254 19.28 8.01116 19.28C8.00977 19.28 8.00839 19.28 8.007 19.28C8.00562 19.28 8.00424 19.28 8.00286 19.28C8.00148 19.28 8.0001 19.28 7.99872 19.28C7.99734 19.28 7.99596 19.28 7.99458 19.28C7.9932 19.28 7.99183 19.28 7.99045 19.28C7.98908 19.28 7.9877 19.28 7.98633 19.28C7.98495 19.28 7.98358 19.28 7.98221 19.28C7.98084 19.28 7.97946 19.28 7.97809 19.28C7.97672 19.28 7.97535 19.28 7.97399 19.28C7.97262 19.28 7.97125 19.28 7.96988 19.28C7.96852 19.28 7.96715 19.28 7.96579 19.28C7.96442 19.28 7.96306 19.28 7.9617 19.28C7.96033 19.28 7.95897 19.28 7.95761 19.28C7.95625 19.28 7.95489 19.28 7.95353 19.28C7.95217 19.28 7.95081 19.28 7.94945 19.28C7.9481 19.28 7.94674 19.28 7.94538 19.28C7.94403 19.28 7.94267 19.28 7.94132 19.28C7.93997 19.28 7.93861 19.28 7.93726 19.28C7.93591 19.28 7.93456 19.28 7.93321 19.28C7.93186 19.28 7.93051 19.28 7.92916 19.28C7.92781 19.28 7.92647 19.28 7.92512 19.28C7.92377 19.28 7.92243 19.28 7.92108 19.28C7.91974 19.28 7.91839 19.28 7.91705 19.28C7.91571 19.28 7.91437 19.28 7.91303 19.28C7.91168 19.28 7.91034 19.28 7.90901 19.28C7.90767 19.28 7.90633 19.28 7.90499 19.28C7.90365 19.28 7.90232 19.28 7.90098 19.28C7.89965 19.28 7.89831 19.28 7.89698 19.28C7.89564 19.28 7.89431 19.28 7.89298 19.28C7.89165 19.28 7.89032 19.28 7.88899 19.28C7.88766 19.28 7.88633 19.28 7.885 19.28C7.88367 19.28 7.88235 19.28 7.88102 19.28C7.87969 19.28 7.87837 19.28 7.87704 19.28C7.87572 19.28 7.87439 19.28 7.87307 19.28C7.87175 19.28 7.87043 19.28 7.86911 19.28C7.86779 19.28 7.86647 19.28 7.86515 19.28C7.86383 19.28 7.86251 19.28 7.86119 19.28C7.85988 19.28 7.85856 19.28 7.85724 19.28C7.85593 19.28 7.85461 19.28 7.8533 19.28C7.85199 19.28 7.85068 19.28 7.84936 19.28C7.84805 19.28 7.84674 19.28 7.84543 19.28C7.84412 19.28 7.84281 19.28 7.8415 19.28C7.8402 19.28 7.83889 19.28 7.83758 19.28C7.83628 19.28 7.83497 19.28 7.83367 19.28C7.83236 19.28 7.83106 19.28 7.82976 19.28C7.82845 19.28 7.82715 19.28 7.82585 19.28C7.82455 19.28 7.82325 19.28 7.82195 19.28C7.82065 19.28 7.81936 19.28 7.81806 19.28C7.81676 19.28 7.81547 19.28 7.81417 19.28C7.81288 19.28 7.81158 19.28 7.81029 19.28C7.809 19.28 7.8077 19.28 7.80641 19.28C7.80512 19.28 7.80383 19.28 7.80254 19.28C7.80125 19.28 7.79996 19.28 7.79867 19.28C7.79739 19.28 7.7961 19.28 7.79481 19.28C7.79353 19.28 7.79224 19.28 7.79096 19.28C7.78967 19.28 7.78839 19.28 7.78711 19.28C7.78583 19.28 7.78454 19.28 7.78326 19.28C7.78198 19.28 7.7807 19.28 7.77942 19.28C7.77815 19.28 7.77687 19.28 7.77559 19.28C7.77431 19.28 7.77304 19.28 7.77176 19.28C7.77049 19.28 7.76921 19.28 7.76794 19.28C7.76667 19.28 7.7654 19.28 7.76412 19.28C7.76285 19.28 7.76158 19.28 7.76031 19.28C7.75904 19.28 7.75777 19.28 7.75651 19.28C7.75524 19.28 7.75397 19.28 7.75271 19.28C7.75144 19.28 7.75018 19.28 7.74891 19.28C7.74765 19.28 7.74638 19.28 7.74512 19.28C7.74386 19.28 7.7426 19.28 7.74134 19.28C7.74008 19.28 7.73882 19.28 7.73756 19.28C7.7363 19.28 7.73504 19.28 7.73379 19.28C7.73253 19.28 7.73127 19.28 7.73002 19.28C7.72877 19.28 7.72751 19.28 7.72626 19.28C7.72501 19.28 7.72375 19.28 7.7225 19.28C7.72125 19.28 7.72 19.28 7.71875 19.28C7.7175 19.28 7.71625 19.28 7.71501 19.28C7.71376 19.28 7.71251 19.28 7.71127 19.28C7.71002 19.28 7.70878 19.28 7.70753 19.28C7.70629 19.28 7.70504 19.28 7.7038 19.28C7.70256 19.28 7.70132 19.28 7.70008 19.28C7.69884 19.28 7.6976 19.28 7.69636 19.28C7.69512 19.28 7.69388 19.28 7.69265 19.28C7.69141 19.28 7.69018 19.28 7.68894 19.28C7.68771 19.28 7.68647 19.28 7.68524 19.28C7.68401 19.28 7.68277 19.28 7.68154 19.28C7.68031 19.28 7.67908 19.28 7.67785 19.28C7.67662 19.28 7.6754 19.28 7.67417 19.28C7.67294 19.28 7.67171 19.28 7.67049 19.28C7.66926 19.28 7.66804 19.28 7.66681 19.28C7.66559 19.28 7.66437 19.28 7.66315 19.28C7.66192 19.28 7.6607 19.28 7.65948 19.28C7.65826 19.28 7.65704 19.28 7.65583 19.28C7.65461 19.28 7.65339 19.28 7.65217 19.28C7.65096 19.28 7.64974 19.28 7.64853 19.28C7.64731 19.28 7.6461 19.28 7.64489 19.28C7.64367 19.28 7.64246 19.28 7.64125 19.28C7.64004 19.28 7.63883 19.28 7.63762 19.28C7.63641 19.28 7.6352 19.28 7.634 19.28C7.63279 19.28 7.63158 19.28 7.63038 19.28C7.62917 19.28 7.62797 19.28 7.62676 19.28C7.62556 19.28 7.62436 19.28 7.62316 19.28C7.62195 19.28 7.62075 19.28 7.61955 19.28C7.61835 19.28 7.61715 19.28 7.61596 19.28C7.61476 19.28 7.61356 19.28 7.61236 19.28C7.61117 19.28 7.60997 19.28 7.60878 19.28C7.60758 19.28 7.60639 19.28 7.6052 19.28C7.604 19.28 7.60281 19.28 7.60162 19.28C7.60043 19.28 7.59924 19.28 7.59805 19.28C7.59686 19.28 7.59567 19.28 7.59449 19.28C7.5933 19.28 7.59211 19.28 7.59093 19.28C7.58974 19.28 7.58856 19.28 7.58738 19.28C7.58619 19.28 7.58501 19.28 7.58383 19.28C7.58265 19.28 7.58147 19.28 7.58029 19.28C7.57911 19.28 7.57793 19.28 7.57675 19.28C7.57557 19.28 7.57439 19.28 7.57322 19.28C7.57204 19.28 7.57087 19.28 7.56969 19.28C7.56852 19.28 7.56735 19.28 7.56617 19.28C7.565 19.28 7.56383 19.28 7.56266 19.28C7.56149 19.28 7.56032 19.28 7.55915 19.28C7.55798 19.28 7.55681 19.28 7.55564 19.28C7.55448 19.28 7.55331 19.28 7.55215 19.28C7.55098 19.28 7.54982 19.28 7.54865 19.28C7.54749 19.28 7.54633 19.28 7.54517 19.28C7.54401 19.28 7.54284 19.28 7.54169 19.28C7.54053 19.28 7.53937 19.28 7.53821 19.28C7.53705 19.28 7.53589 19.28 7.53474 19.28C7.53358 19.28 7.53243 19.28 7.53127 19.28C7.53012 19.28 7.52896 19.28 7.52781 19.28C7.52666 19.28 7.52551 19.28 7.52436 19.28C7.52321 19.28 7.52206 19.28 7.52091 19.28C7.51976 19.28 7.51861 19.28 7.51747 19.28C7.51632 19.28 7.51517 19.28 7.51403 19.28C7.51288 19.28 7.51174 19.28 7.5106 19.28C7.50945 19.28 7.50831 19.28 7.50717 19.28C7.50603 19.28 7.50489 19.28 7.50375 19.28C7.50261 19.28 7.50147 19.28 7.50033 19.28C7.49919 19.28 7.49806 19.28 7.49692 19.28C7.49579 19.28 7.49465 19.28 7.49352 19.28C7.49238 19.28 7.49125 19.28 7.49012 19.28C7.48899 19.28 7.48785 19.28 7.48672 19.28C7.48559 19.28 7.48446 19.28 7.48334 19.28C7.48221 19.28 7.48108 19.28 7.47995 19.28C7.47883 19.28 7.4777 19.28 7.47658 19.28C7.47545 19.28 7.47433 19.28 7.4732 19.28C7.47208 19.28 7.47096 19.28 7.46984 19.28C7.46872 19.28 7.4676 19.28 7.46648 19.28C7.46536 19.28 7.46424 19.28 7.46312 19.28C7.462 19.28 7.46089 19.28 7.45977 19.28C7.45866 19.28 7.45754 19.28 7.45643 19.28C7.45531 19.28 7.4542 19.28 7.45309 19.28C7.45198 19.28 7.45086 19.28 7.44975 19.28C7.44864 19.28 7.44753 19.28 7.44643 19.28C7.44532 19.28 7.44421 19.28 7.4431 19.28C7.442 19.28 7.44089 19.28 7.43979 19.28C7.43868 19.28 7.43758 19.28 7.43648 19.28C7.43537 19.28 7.43427 19.28 7.43317 19.28C7.43207 19.28 7.43097 19.28 7.42987 19.28C7.42877 19.28 7.42767 19.28 7.42657 19.28C7.42548 19.28 7.42438 19.28 7.42328 19.28C7.42219 19.28 7.42109 19.28 7.42 19.28C7.41891 19.28 7.41781 19.28 7.41672 19.28C7.41563 19.28 7.41454 19.28 7.41345 19.28C7.41236 19.28 7.41127 19.28 7.41018 19.28C7.40909 19.28 7.40801 19.28 7.40692 19.28C7.40583 19.28 7.40475 19.28 7.40366 19.28C7.40258 19.28 7.40149 19.28 7.40041 19.28C7.39933 19.28 7.39825 19.28 7.39717 19.28C7.39609 19.28 7.39501 19.28 7.39393 19.28C7.39285 19.28 7.39177 19.28 7.39069 19.28C7.38961 19.28 7.38854 19.28 7.38746 19.28C7.38639 19.28 7.38531 19.28 7.38424 19.28C7.38317 19.28 7.38209 19.28 7.38102 19.28C7.37995 19.28 7.37888 19.28 7.37781 19.28C7.37674 19.28 7.37567 19.28 7.3746 19.28C7.37353 19.28 7.37247 19.28 7.3714 19.28C7.37033 19.28 7.36927 19.28 7.3682 19.28C7.36714 19.28 7.36608 19.28 7.36501 19.28C7.36395 19.28 7.36289 19.28 7.36183 19.28C7.36077 19.28 7.35971 19.28 7.35865 19.28C7.35759 19.28 7.35653 19.28 7.35547 19.28C7.35442 19.28 7.35336 19.28 7.35231 19.28C7.35125 19.28 7.3502 19.28 7.34914 19.28C7.34809 19.28 7.34704 19.28 7.34598 19.28C7.34493 19.28 7.34388 19.28 7.34283 19.28C7.34178 19.28 7.34073 19.28 7.33969 19.28C7.33864 19.28 7.33759 19.28 7.33654 19.28C7.3355 19.28 7.33445 19.28 7.33341 19.28C7.33236 19.28 7.33132 19.28 7.33028 19.28C7.32924 19.28 7.32819 19.28 7.32715 19.28C7.32611 19.28 7.32507 19.28 7.32403 19.28C7.323 19.28 7.32196 19.28 7.32092 19.28C7.31988 19.28 7.31885 19.28 7.31781 19.28C7.31678 19.28 7.31574 19.28 7.31471 19.28C7.31368 19.28 7.31264 19.28 7.31161 19.28C7.31058 19.28 7.30955 19.28 7.30852 19.28C7.30749 19.28 7.30646 19.28 7.30543 19.28C7.30441 19.28 7.30338 19.28 7.30235 19.28C7.30133 19.28 7.3003 19.28 7.29928 19.28C7.29825 19.28 7.29723 19.28 7.29621 19.28C7.29519 19.28 7.29417 19.28 7.29314 19.28C7.29212 19.28 7.2911 19.28 7.29009 19.28C7.28907 19.28 7.28805 19.28 7.28703 19.28C7.28602 19.28 7.285 19.28 7.28399 19.28C7.28297 19.28 7.28196 19.28 7.28094 19.28C7.27993 19.28 7.27892 19.28 7.27791 19.28C7.27689 19.28 7.27588 19.28 7.27487 19.28C7.27387 19.28 7.27286 19.28 7.27185 19.28C7.27084 19.28 7.26983 19.28 7.26883 19.28C7.26782 19.28 7.26682 19.28 7.26581 19.28C7.26481 19.28 7.26381 19.28 7.2628 19.28C7.2618 19.28 7.2608 19.28 7.2598 19.28C7.2588 19.28 7.2578 19.28 7.2568 19.28C7.2558 19.28 7.25481 19.28 7.25381 19.28C7.25281 19.28 7.25182 19.28 7.25082 19.28C7.24983 19.28 7.24883 19.28 7.24784 19.28C7.24685 19.28 7.24585 19.28 7.24486 19.28C7.24387 19.28 7.24288 19.28 7.24189 19.28C7.2409 19.28 7.23991 19.28 7.23893 19.28C7.23794 19.28 7.23695 19.28 7.23597 19.28C7.23498 19.28 7.234 19.28 7.23301 19.28C7.23203 19.28 7.23105 19.28 7.23006 19.28C7.22908 19.28 7.2281 19.28 7.22712 19.28C7.22614 19.28 7.22516 19.28 7.22418 19.28C7.2232 19.28 7.22223 19.28 7.22125 19.28C7.22027 19.28 7.2193 19.28 7.21832 19.28C7.21735 19.28 7.21637 19.28 7.2154 19.28C7.21443 19.28 7.21346 19.28 7.21249 19.28C7.21151 19.28 7.21054 19.28 7.20958 19.28C7.20861 19.28 7.20764 19.28 7.20667 19.28C7.2057 19.28 7.20474 19.28 7.20377 19.28C7.20281 19.28 7.20184 19.28 7.20088 19.28C7.19991 19.28 7.19895 19.28 7.19799 19.28C7.19703 19.28 7.19607 19.28 7.19511 19.28C7.19415 19.28 7.19319 19.28 7.19223 19.28C7.19127 19.28 7.19031 19.28 7.18936 19.28C7.1884 19.28 7.18744 19.28 7.18649 19.28C7.18553 19.28 7.18458 19.28 7.18363 19.28C7.18268 19.28 7.18172 19.28 7.18077 19.28C7.17982 19.28 7.17887 19.28 7.17792 19.28C7.17697 19.28 7.17603 19.28 7.17508 19.28C7.17413 19.28 7.17318 19.28 7.17224 19.28C7.17129 19.28 7.17035 19.28 7.16941 19.28C7.16846 19.28 7.16752 19.28 7.16658 19.28C7.16564 19.28 7.1647 19.28 7.16376 19.28C7.16282 19.28 7.16188 19.28 7.16094 19.28C7.16 19.28 7.15906 19.28 7.15813 19.28C7.15719 19.28 7.15625 19.28 7.15532 19.28C7.15439 19.28 7.15345 19.28 7.15252 19.28C7.15159 19.28 7.15066 19.28 7.14972 19.28C7.14879 19.28 7.14786 19.28 7.14693 19.28C7.14601 19.28 7.14508 19.28 7.14415 19.28C7.14322 19.28 7.1423 19.28 7.14137 19.28C7.14045 19.28 7.13952 19.28 7.1386 19.28C7.13768 19.28 7.13675 19.28 7.13583 19.28C7.13491 19.28 7.13399 19.28 7.13307 19.28C7.13215 19.28 7.13123 19.28 7.13031 19.28C7.1294 19.28 7.12848 19.28 7.12756 19.28C7.12665 19.28 7.12573 19.28 7.12482 19.28C7.1239 19.28 7.12299 19.28 7.12208 19.28C7.12116 19.28 7.12025 19.28 7.11934 19.28C7.11843 19.28 7.11752 19.28 7.11661 19.28C7.1157 19.28 7.1148 19.28 7.11389 19.28C7.11298 19.28 7.11208 19.28 7.11117 19.28C7.11026 19.28 7.10936 19.28 7.10846 19.28C7.10755 19.28 7.10665 19.28 7.10575 19.28C7.10485 19.28 7.10395 19.28 7.10305 19.28C7.10215 19.28 7.10125 19.28 7.10035 19.28C7.09945 19.28 7.09856 19.28 7.09766 19.28C7.09677 19.28 7.09587 19.28 7.09498 19.28C7.09408 19.28 7.09319 19.28 7.0923 19.28C7.0914 19.28 7.09051 19.28 7.08962 19.28C7.08873 19.28 7.08784 19.28 7.08695 19.28C7.08606 19.28 7.08518 19.28 7.08429 19.28C7.0834 19.28 7.08252 19.28 7.08163 19.28C7.08075 19.28 7.07986 19.28 7.07898 19.28C7.0781 19.28 7.07721 19.28 7.07633 19.28C7.07545 19.28 7.07457 19.28 7.07369 19.28C7.07281 19.28 7.07193 19.28 7.07106 19.28C7.07018 19.28 7.0693 19.28 7.06843 19.28C7.06755 19.28 7.06668 19.28 7.0658 19.28C7.06493 19.28 7.06405 19.28 7.06318 19.28C7.06231 19.28 7.06144 19.28 7.06057 19.28C7.0597 19.28 7.05883 19.28 7.05796 19.28C7.05709 19.28 7.05622 19.28 7.05536 19.28C7.05449 19.28 7.05362 19.28 7.05276 19.28C7.05189 19.28 7.05103 19.28 7.05017 19.28C7.0493 19.28 7.04844 19.28 7.04758 19.28C7.04672 19.28 7.04586 19.28 7.045 19.28C7.04414 19.28 7.04328 19.28 7.04243 19.28C7.04157 19.28 7.04071 19.28 7.03986 19.28C7.039 19.28 7.03814 19.28 7.03729 19.28C7.03644 19.28 7.03558 19.28 7.03473 19.28C7.03388 19.28 7.03303 19.28 7.03218 19.28C7.03133 19.28 7.03048 19.28 7.02963 19.28C7.02878 19.28 7.02793 19.28 7.02709 19.28C7.02624 19.28 7.0254 19.28 7.02455 19.28C7.02371 19.28 7.02286 19.28 7.02202 19.28C7.02118 19.28 7.02033 19.28 7.01949 19.28C7.01865 19.28 7.01781 19.28 7.01697 19.28C7.01613 19.28 7.0153 19.28 7.01446 19.28C7.01362 19.28 7.01278 19.28 7.01195 19.28C7.01111 19.28 7.01028 19.28 7.00944 19.28C7.00861 19.28 7.00778 19.28 7.00695 19.28C7.00611 19.28 7.00528 19.28 7.00445 19.28C7.00362 19.28 7.00279 19.28 7.00197 19.28C7.00114 19.28 7.00031 19.28 6.99948 19.28C6.99866 19.28 6.99783 19.28 6.99701 19.28C6.99618 19.28 6.99536 19.28 6.99454 19.28C6.99371 19.28 6.99289 19.28 6.99207 19.28C6.99125 19.28 6.99043 19.28 6.98961 19.28C6.98879 19.28 6.98797 19.28 6.98716 19.28C6.98634 19.28 6.98552 19.28 6.98471 19.28C6.98389 19.28 6.98308 19.28 6.98226 19.28C6.98145 19.28 6.98064 19.28 6.97983 19.28C6.97901 19.28 6.9782 19.28 6.97739 19.28C6.97658 19.28 6.97577 19.28 6.97497 19.28C6.97416 19.28 6.97335 19.28 6.97254 19.28C6.97174 19.28 6.97093 19.28 6.97013 19.28C6.96932 19.28 6.96852 19.28 6.96772 19.28C6.96692 19.28 6.96611 19.28 6.96531 19.28C6.96451 19.28 6.96371 19.28 6.96291 19.28C6.96211 19.28 6.96132 19.28 6.96052 19.28C6.95972 19.28 6.95893 19.28 6.95813 19.28C6.95734 19.28 6.95654 19.28 6.95575 19.28C6.95495 19.28 6.95416 19.28 6.95337 19.28C6.95258 19.28 6.95179 19.28 6.951 19.28C6.95021 19.28 6.94942 19.28 6.94863 19.28C6.94784 19.28 6.94706 19.28 6.94627 19.28C6.94548 19.28 6.9447 19.28 6.94391 19.28C6.94313 19.28 6.94235 19.28 6.94156 19.28C6.94078 19.28 6.94 19.28 6.93922 19.28C6.93844 19.28 6.93766 19.28 6.93688 19.28C6.9361 19.28 6.93532 19.28 6.93455 19.28C6.93377 19.28 6.93299 19.28 6.93222 19.28C6.93144 19.28 6.93067 19.28 6.9299 19.28C6.92912 19.28 6.92835 19.28 6.92758 19.28C6.92681 19.28 6.92604 19.28 6.92527 19.28C6.9245 19.28 6.92373 19.28 6.92296 19.28C6.92219 19.28 6.92143 19.28 6.92066 19.28C6.91989 19.28 6.91913 19.28 6.91836 19.28C6.9176 19.28 6.91684 19.28 6.91607 19.28C6.91531 19.28 6.91455 19.28 6.91379 19.28C6.91303 19.28 6.91227 19.28 6.91151 19.28C6.91075 19.28 6.91 19.28 6.90924 19.28C6.90848 19.28 6.90773 19.28 6.90697 19.28C6.90622 19.28 6.90546 19.28 6.90471 19.28C6.90396 19.28 6.9032 19.28 6.90245 19.28C6.9017 19.28 6.90095 19.28 6.9002 19.28C6.89945 19.28 6.8987 19.28 6.89795 19.28C6.89721 19.28 6.89646 19.28 6.89571 19.28C6.89497 19.28 6.89422 19.28 6.89348 19.28C6.89274 19.28 6.89199 19.28 6.89125 19.28C6.89051 19.28 6.88977 19.28 6.88903 19.28C6.88829 19.28 6.88755 19.28 6.88681 19.28C6.88607 19.28 6.88533 19.28 6.8846 19.28C6.88386 19.28 6.88312 19.28 6.88239 19.28C6.88165 19.28 6.88092 19.28 6.88019 19.28C6.87945 19.28 6.87872 19.28 6.87799 19.28C6.87726 19.28 6.87653 19.28 6.8758 19.28C6.87507 19.28 6.87434 19.28 6.87361 19.28C6.87289 19.28 6.87216 19.28 6.87143 19.28C6.87071 19.28 6.86998 19.28 6.86926 19.28C6.86854 19.28 6.86781 19.28 6.86709 19.28C6.86637 19.28 6.86565 19.28 6.86493 19.28C6.86421 19.28 6.86349 19.28 6.86277 19.28C6.86205 19.28 6.86133 19.28 6.86062 19.28C6.8599 19.28 6.85918 19.28 6.85847 19.28C6.85776 19.28 6.85704 19.28 6.85633 19.28C6.85562 19.28 6.8549 19.28 6.85419 19.28C6.85348 19.28 6.85277 19.28 6.85206 19.28C6.85135 19.28 6.85064 19.28 6.84994 19.28C6.84923 19.28 6.84852 19.28 6.84782 19.28C6.84711 19.28 6.84641 19.28 6.8457 19.28C6.845 19.28 6.8443 19.28 6.8436 19.28C6.84289 19.28 6.84219 19.28 6.84149 19.28C6.84079 19.28 6.84009 19.28 6.8394 19.28C6.8387 19.28 6.838 19.28 6.8373 19.28C6.83661 19.28 6.83591 19.28 6.83522 19.28C6.83452 19.28 6.83383 19.28 6.83314 19.28C6.83244 19.28 6.83175 19.28 6.83106 19.28C6.83037 19.28 6.82968 19.28 6.82899 19.28C6.8283 19.28 6.82761 19.28 6.82693 19.28C6.82624 19.28 6.82555 19.28 6.82487 19.28C6.82418 19.28 6.8235 19.28 6.82281 19.28C6.82213 19.28 6.82145 19.28 6.82077 19.28C6.82008 19.28 6.8194 19.28 6.81872 19.28C6.81804 19.28 6.81736 19.28 6.81669 19.28C6.81601 19.28 6.81533 19.28 6.81465 19.28C6.81398 19.28 6.8133 19.28 6.81263 19.28C6.81195 19.28 6.81128 19.28 6.81061 19.28C6.80993 19.28 6.80926 19.28 6.80859 19.28C6.80792 19.28 6.80725 19.28 6.80658 19.28C6.80591 19.28 6.80525 19.28 6.80458 19.28C6.80391 19.28 6.80325 19.28 6.80258 19.28C6.80191 19.28 6.80125 19.28 6.80059 19.28C6.79992 19.28 6.79926 19.28 6.7986 19.28C6.79794 19.28 6.79728 19.28 6.79662 19.28C6.79596 19.28 6.7953 19.28 6.79464 19.28C6.79398 19.28 6.79333 19.28 6.79267 19.28C6.79201 19.28 6.79136 19.28 6.7907 19.28C6.79005 19.28 6.7894 19.28 6.78874 19.28C6.78809 19.28 6.78744 19.28 6.78679 19.28C6.78614 19.28 6.78549 19.28 6.78484 19.28C6.78419 19.28 6.78354 19.28 6.7829 19.28C6.78225 19.28 6.7816 19.28 6.78096 19.28C6.78031 19.28 6.77967 19.28 6.77903 19.28C6.77838 19.28 6.77774 19.28 6.7771 19.28C6.77646 19.28 6.77582 19.28 6.77518 19.28C6.77454 19.28 6.7739 19.28 6.77326 19.28C6.77262 19.28 6.77199 19.28 6.77135 19.28C6.77071 19.28 6.77008 19.28 6.76944 19.28C6.76881 19.28 6.76818 19.28 6.76754 19.28C6.76691 19.28 6.76628 19.28 6.76565 19.28C6.76502 19.28 6.76439 19.28 6.76376 19.28C6.76313 19.28 6.76251 19.28 6.76188 19.28C6.76125 19.28 6.76063 19.28 6.76 19.28V20.28V21.28C6.76063 21.28 6.76125 21.28 6.76188 21.28C6.76251 21.28 6.76313 21.28 6.76376 21.28C6.76439 21.28 6.76502 21.28 6.76565 21.28C6.76628 21.28 6.76691 21.28 6.76754 21.28C6.76818 21.28 6.76881 21.28 6.76944 21.28C6.77008 21.28 6.77071 21.28 6.77135 21.28C6.77199 21.28 6.77262 21.28 6.77326 21.28C6.7739 21.28 6.77454 21.28 6.77518 21.28C6.77582 21.28 6.77646 21.28 6.7771 21.28C6.77774 21.28 6.77838 21.28 6.77903 21.28C6.77967 21.28 6.78031 21.28 6.78096 21.28C6.7816 21.28 6.78225 21.28 6.7829 21.28C6.78354 21.28 6.78419 21.28 6.78484 21.28C6.78549 21.28 6.78614 21.28 6.78679 21.28C6.78744 21.28 6.78809 21.28 6.78874 21.28C6.7894 21.28 6.79005 21.28 6.7907 21.28C6.79136 21.28 6.79201 21.28 6.79267 21.28C6.79333 21.28 6.79398 21.28 6.79464 21.28C6.7953 21.28 6.79596 21.28 6.79662 21.28C6.79728 21.28 6.79794 21.28 6.7986 21.28C6.79926 21.28 6.79992 21.28 6.80059 21.28C6.80125 21.28 6.80191 21.28 6.80258 21.28C6.80325 21.28 6.80391 21.28 6.80458 21.28C6.80525 21.28 6.80591 21.28 6.80658 21.28C6.80725 21.28 6.80792 21.28 6.80859 21.28C6.80926 21.28 6.80993 21.28 6.81061 21.28C6.81128 21.28 6.81195 21.28 6.81263 21.28C6.8133 21.28 6.81398 21.28 6.81465 21.28C6.81533 21.28 6.81601 21.28 6.81669 21.28C6.81736 21.28 6.81804 21.28 6.81872 21.28C6.8194 21.28 6.82008 21.28 6.82077 21.28C6.82145 21.28 6.82213 21.28 6.82281 21.28C6.8235 21.28 6.82418 21.28 6.82487 21.28C6.82555 21.28 6.82624 21.28 6.82693 21.28C6.82761 21.28 6.8283 21.28 6.82899 21.28C6.82968 21.28 6.83037 21.28 6.83106 21.28C6.83175 21.28 6.83244 21.28 6.83314 21.28C6.83383 21.28 6.83452 21.28 6.83522 21.28C6.83591 21.28 6.83661 21.28 6.8373 21.28C6.838 21.28 6.8387 21.28 6.8394 21.28C6.84009 21.28 6.84079 21.28 6.84149 21.28C6.84219 21.28 6.84289 21.28 6.8436 21.28C6.8443 21.28 6.845 21.28 6.8457 21.28C6.84641 21.28 6.84711 21.28 6.84782 21.28C6.84852 21.28 6.84923 21.28 6.84994 21.28C6.85064 21.28 6.85135 21.28 6.85206 21.28C6.85277 21.28 6.85348 21.28 6.85419 21.28C6.8549 21.28 6.85562 21.28 6.85633 21.28C6.85704 21.28 6.85776 21.28 6.85847 21.28C6.85918 21.28 6.8599 21.28 6.86062 21.28C6.86133 21.28 6.86205 21.28 6.86277 21.28C6.86349 21.28 6.86421 21.28 6.86493 21.28C6.86565 21.28 6.86637 21.28 6.86709 21.28C6.86781 21.28 6.86854 21.28 6.86926 21.28C6.86998 21.28 6.87071 21.28 6.87143 21.28C6.87216 21.28 6.87289 21.28 6.87361 21.28C6.87434 21.28 6.87507 21.28 6.8758 21.28C6.87653 21.28 6.87726 21.28 6.87799 21.28C6.87872 21.28 6.87945 21.28 6.88019 21.28C6.88092 21.28 6.88165 21.28 6.88239 21.28C6.88312 21.28 6.88386 21.28 6.8846 21.28C6.88533 21.28 6.88607 21.28 6.88681 21.28C6.88755 21.28 6.88829 21.28 6.88903 21.28C6.88977 21.28 6.89051 21.28 6.89125 21.28C6.89199 21.28 6.89274 21.28 6.89348 21.28C6.89422 21.28 6.89497 21.28 6.89571 21.28C6.89646 21.28 6.89721 21.28 6.89795 21.28C6.8987 21.28 6.89945 21.28 6.9002 21.28C6.90095 21.28 6.9017 21.28 6.90245 21.28C6.9032 21.28 6.90396 21.28 6.90471 21.28C6.90546 21.28 6.90622 21.28 6.90697 21.28C6.90773 21.28 6.90848 21.28 6.90924 21.28C6.91 21.28 6.91075 21.28 6.91151 21.28C6.91227 21.28 6.91303 21.28 6.91379 21.28C6.91455 21.28 6.91531 21.28 6.91607 21.28C6.91684 21.28 6.9176 21.28 6.91836 21.28C6.91913 21.28 6.91989 21.28 6.92066 21.28C6.92143 21.28 6.92219 21.28 6.92296 21.28C6.92373 21.28 6.9245 21.28 6.92527 21.28C6.92604 21.28 6.92681 21.28 6.92758 21.28C6.92835 21.28 6.92912 21.28 6.9299 21.28C6.93067 21.28 6.93144 21.28 6.93222 21.28C6.93299 21.28 6.93377 21.28 6.93455 21.28C6.93532 21.28 6.9361 21.28 6.93688 21.28C6.93766 21.28 6.93844 21.28 6.93922 21.28C6.94 21.28 6.94078 21.28 6.94156 21.28C6.94235 21.28 6.94313 21.28 6.94391 21.28C6.9447 21.28 6.94548 21.28 6.94627 21.28C6.94706 21.28 6.94784 21.28 6.94863 21.28C6.94942 21.28 6.95021 21.28 6.951 21.28C6.95179 21.28 6.95258 21.28 6.95337 21.28C6.95416 21.28 6.95495 21.28 6.95575 21.28C6.95654 21.28 6.95734 21.28 6.95813 21.28C6.95893 21.28 6.95972 21.28 6.96052 21.28C6.96132 21.28 6.96211 21.28 6.96291 21.28C6.96371 21.28 6.96451 21.28 6.96531 21.28C6.96611 21.28 6.96692 21.28 6.96772 21.28C6.96852 21.28 6.96932 21.28 6.97013 21.28C6.97093 21.28 6.97174 21.28 6.97254 21.28C6.97335 21.28 6.97416 21.28 6.97497 21.28C6.97577 21.28 6.97658 21.28 6.97739 21.28C6.9782 21.28 6.97901 21.28 6.97983 21.28C6.98064 21.28 6.98145 21.28 6.98226 21.28C6.98308 21.28 6.98389 21.28 6.98471 21.28C6.98552 21.28 6.98634 21.28 6.98716 21.28C6.98797 21.28 6.98879 21.28 6.98961 21.28C6.99043 21.28 6.99125 21.28 6.99207 21.28C6.99289 21.28 6.99371 21.28 6.99454 21.28C6.99536 21.28 6.99618 21.28 6.99701 21.28C6.99783 21.28 6.99866 21.28 6.99948 21.28C7.00031 21.28 7.00114 21.28 7.00197 21.28C7.00279 21.28 7.00362 21.28 7.00445 21.28C7.00528 21.28 7.00611 21.28 7.00695 21.28C7.00778 21.28 7.00861 21.28 7.00944 21.28C7.01028 21.28 7.01111 21.28 7.01195 21.28C7.01278 21.28 7.01362 21.28 7.01446 21.28C7.0153 21.28 7.01613 21.28 7.01697 21.28C7.01781 21.28 7.01865 21.28 7.01949 21.28C7.02033 21.28 7.02118 21.28 7.02202 21.28C7.02286 21.28 7.02371 21.28 7.02455 21.28C7.0254 21.28 7.02624 21.28 7.02709 21.28C7.02793 21.28 7.02878 21.28 7.02963 21.28C7.03048 21.28 7.03133 21.28 7.03218 21.28C7.03303 21.28 7.03388 21.28 7.03473 21.28C7.03558 21.28 7.03644 21.28 7.03729 21.28C7.03814 21.28 7.039 21.28 7.03986 21.28C7.04071 21.28 7.04157 21.28 7.04243 21.28C7.04328 21.28 7.04414 21.28 7.045 21.28C7.04586 21.28 7.04672 21.28 7.04758 21.28C7.04844 21.28 7.0493 21.28 7.05017 21.28C7.05103 21.28 7.05189 21.28 7.05276 21.28C7.05362 21.28 7.05449 21.28 7.05536 21.28C7.05622 21.28 7.05709 21.28 7.05796 21.28C7.05883 21.28 7.0597 21.28 7.06057 21.28C7.06144 21.28 7.06231 21.28 7.06318 21.28C7.06405 21.28 7.06493 21.28 7.0658 21.28C7.06668 21.28 7.06755 21.28 7.06843 21.28C7.0693 21.28 7.07018 21.28 7.07106 21.28C7.07193 21.28 7.07281 21.28 7.07369 21.28C7.07457 21.28 7.07545 21.28 7.07633 21.28C7.07721 21.28 7.0781 21.28 7.07898 21.28C7.07986 21.28 7.08075 21.28 7.08163 21.28C7.08252 21.28 7.0834 21.28 7.08429 21.28C7.08518 21.28 7.08606 21.28 7.08695 21.28C7.08784 21.28 7.08873 21.28 7.08962 21.28C7.09051 21.28 7.0914 21.28 7.0923 21.28C7.09319 21.28 7.09408 21.28 7.09498 21.28C7.09587 21.28 7.09677 21.28 7.09766 21.28C7.09856 21.28 7.09945 21.28 7.10035 21.28C7.10125 21.28 7.10215 21.28 7.10305 21.28C7.10395 21.28 7.10485 21.28 7.10575 21.28C7.10665 21.28 7.10755 21.28 7.10846 21.28C7.10936 21.28 7.11026 21.28 7.11117 21.28C7.11208 21.28 7.11298 21.28 7.11389 21.28C7.1148 21.28 7.1157 21.28 7.11661 21.28C7.11752 21.28 7.11843 21.28 7.11934 21.28C7.12025 21.28 7.12116 21.28 7.12208 21.28C7.12299 21.28 7.1239 21.28 7.12482 21.28C7.12573 21.28 7.12665 21.28 7.12756 21.28C7.12848 21.28 7.1294 21.28 7.13031 21.28C7.13123 21.28 7.13215 21.28 7.13307 21.28C7.13399 21.28 7.13491 21.28 7.13583 21.28C7.13675 21.28 7.13768 21.28 7.1386 21.28C7.13952 21.28 7.14045 21.28 7.14137 21.28C7.1423 21.28 7.14322 21.28 7.14415 21.28C7.14508 21.28 7.14601 21.28 7.14693 21.28C7.14786 21.28 7.14879 21.28 7.14972 21.28C7.15066 21.28 7.15159 21.28 7.15252 21.28C7.15345 21.28 7.15439 21.28 7.15532 21.28C7.15625 21.28 7.15719 21.28 7.15813 21.28C7.15906 21.28 7.16 21.28 7.16094 21.28C7.16188 21.28 7.16282 21.28 7.16376 21.28C7.1647 21.28 7.16564 21.28 7.16658 21.28C7.16752 21.28 7.16846 21.28 7.16941 21.28C7.17035 21.28 7.17129 21.28 7.17224 21.28C7.17318 21.28 7.17413 21.28 7.17508 21.28C7.17603 21.28 7.17697 21.28 7.17792 21.28C7.17887 21.28 7.17982 21.28 7.18077 21.28C7.18172 21.28 7.18268 21.28 7.18363 21.28C7.18458 21.28 7.18553 21.28 7.18649 21.28C7.18744 21.28 7.1884 21.28 7.18936 21.28C7.19031 21.28 7.19127 21.28 7.19223 21.28C7.19319 21.28 7.19415 21.28 7.19511 21.28C7.19607 21.28 7.19703 21.28 7.19799 21.28C7.19895 21.28 7.19991 21.28 7.20088 21.28C7.20184 21.28 7.20281 21.28 7.20377 21.28C7.20474 21.28 7.2057 21.28 7.20667 21.28C7.20764 21.28 7.20861 21.28 7.20958 21.28C7.21054 21.28 7.21151 21.28 7.21249 21.28C7.21346 21.28 7.21443 21.28 7.2154 21.28C7.21637 21.28 7.21735 21.28 7.21832 21.28C7.2193 21.28 7.22027 21.28 7.22125 21.28C7.22223 21.28 7.2232 21.28 7.22418 21.28C7.22516 21.28 7.22614 21.28 7.22712 21.28C7.2281 21.28 7.22908 21.28 7.23006 21.28C7.23105 21.28 7.23203 21.28 7.23301 21.28C7.234 21.28 7.23498 21.28 7.23597 21.28C7.23695 21.28 7.23794 21.28 7.23893 21.28C7.23991 21.28 7.2409 21.28 7.24189 21.28C7.24288 21.28 7.24387 21.28 7.24486 21.28C7.24585 21.28 7.24685 21.28 7.24784 21.28C7.24883 21.28 7.24983 21.28 7.25082 21.28C7.25182 21.28 7.25281 21.28 7.25381 21.28C7.25481 21.28 7.2558 21.28 7.2568 21.28C7.2578 21.28 7.2588 21.28 7.2598 21.28C7.2608 21.28 7.2618 21.28 7.2628 21.28C7.26381 21.28 7.26481 21.28 7.26581 21.28C7.26682 21.28 7.26782 21.28 7.26883 21.28C7.26983 21.28 7.27084 21.28 7.27185 21.28C7.27286 21.28 7.27387 21.28 7.27487 21.28C7.27588 21.28 7.27689 21.28 7.27791 21.28C7.27892 21.28 7.27993 21.28 7.28094 21.28C7.28196 21.28 7.28297 21.28 7.28399 21.28C7.285 21.28 7.28602 21.28 7.28703 21.28C7.28805 21.28 7.28907 21.28 7.29009 21.28C7.2911 21.28 7.29212 21.28 7.29314 21.28C7.29417 21.28 7.29519 21.28 7.29621 21.28C7.29723 21.28 7.29825 21.28 7.29928 21.28C7.3003 21.28 7.30133 21.28 7.30235 21.28C7.30338 21.28 7.30441 21.28 7.30543 21.28C7.30646 21.28 7.30749 21.28 7.30852 21.28C7.30955 21.28 7.31058 21.28 7.31161 21.28C7.31264 21.28 7.31368 21.28 7.31471 21.28C7.31574 21.28 7.31678 21.28 7.31781 21.28C7.31885 21.28 7.31988 21.28 7.32092 21.28C7.32196 21.28 7.323 21.28 7.32403 21.28C7.32507 21.28 7.32611 21.28 7.32715 21.28C7.32819 21.28 7.32924 21.28 7.33028 21.28C7.33132 21.28 7.33236 21.28 7.33341 21.28C7.33445 21.28 7.3355 21.28 7.33654 21.28C7.33759 21.28 7.33864 21.28 7.33969 21.28C7.34073 21.28 7.34178 21.28 7.34283 21.28C7.34388 21.28 7.34493 21.28 7.34598 21.28C7.34704 21.28 7.34809 21.28 7.34914 21.28C7.3502 21.28 7.35125 21.28 7.35231 21.28C7.35336 21.28 7.35442 21.28 7.35547 21.28C7.35653 21.28 7.35759 21.28 7.35865 21.28C7.35971 21.28 7.36077 21.28 7.36183 21.28C7.36289 21.28 7.36395 21.28 7.36501 21.28C7.36608 21.28 7.36714 21.28 7.3682 21.28C7.36927 21.28 7.37033 21.28 7.3714 21.28C7.37247 21.28 7.37353 21.28 7.3746 21.28C7.37567 21.28 7.37674 21.28 7.37781 21.28C7.37888 21.28 7.37995 21.28 7.38102 21.28C7.38209 21.28 7.38317 21.28 7.38424 21.28C7.38531 21.28 7.38639 21.28 7.38746 21.28C7.38854 21.28 7.38961 21.28 7.39069 21.28C7.39177 21.28 7.39285 21.28 7.39393 21.28C7.39501 21.28 7.39609 21.28 7.39717 21.28C7.39825 21.28 7.39933 21.28 7.40041 21.28C7.40149 21.28 7.40258 21.28 7.40366 21.28C7.40475 21.28 7.40583 21.28 7.40692 21.28C7.40801 21.28 7.40909 21.28 7.41018 21.28C7.41127 21.28 7.41236 21.28 7.41345 21.28C7.41454 21.28 7.41563 21.28 7.41672 21.28C7.41781 21.28 7.41891 21.28 7.42 21.28C7.42109 21.28 7.42219 21.28 7.42328 21.28C7.42438 21.28 7.42548 21.28 7.42657 21.28C7.42767 21.28 7.42877 21.28 7.42987 21.28C7.43097 21.28 7.43207 21.28 7.43317 21.28C7.43427 21.28 7.43537 21.28 7.43648 21.28C7.43758 21.28 7.43868 21.28 7.43979 21.28C7.44089 21.28 7.442 21.28 7.4431 21.28C7.44421 21.28 7.44532 21.28 7.44643 21.28C7.44753 21.28 7.44864 21.28 7.44975 21.28C7.45086 21.28 7.45198 21.28 7.45309 21.28C7.4542 21.28 7.45531 21.28 7.45643 21.28C7.45754 21.28 7.45866 21.28 7.45977 21.28C7.46089 21.28 7.462 21.28 7.46312 21.28C7.46424 21.28 7.46536 21.28 7.46648 21.28C7.4676 21.28 7.46872 21.28 7.46984 21.28C7.47096 21.28 7.47208 21.28 7.4732 21.28C7.47433 21.28 7.47545 21.28 7.47658 21.28C7.4777 21.28 7.47883 21.28 7.47995 21.28C7.48108 21.28 7.48221 21.28 7.48334 21.28C7.48446 21.28 7.48559 21.28 7.48672 21.28C7.48785 21.28 7.48899 21.28 7.49012 21.28C7.49125 21.28 7.49238 21.28 7.49352 21.28C7.49465 21.28 7.49579 21.28 7.49692 21.28C7.49806 21.28 7.49919 21.28 7.50033 21.28C7.50147 21.28 7.50261 21.28 7.50375 21.28C7.50489 21.28 7.50603 21.28 7.50717 21.28C7.50831 21.28 7.50945 21.28 7.5106 21.28C7.51174 21.28 7.51288 21.28 7.51403 21.28C7.51517 21.28 7.51632 21.28 7.51747 21.28C7.51861 21.28 7.51976 21.28 7.52091 21.28C7.52206 21.28 7.52321 21.28 7.52436 21.28C7.52551 21.28 7.52666 21.28 7.52781 21.28C7.52896 21.28 7.53012 21.28 7.53127 21.28C7.53243 21.28 7.53358 21.28 7.53474 21.28C7.53589 21.28 7.53705 21.28 7.53821 21.28C7.53937 21.28 7.54053 21.28 7.54169 21.28C7.54284 21.28 7.54401 21.28 7.54517 21.28C7.54633 21.28 7.54749 21.28 7.54865 21.28C7.54982 21.28 7.55098 21.28 7.55215 21.28C7.55331 21.28 7.55448 21.28 7.55564 21.28C7.55681 21.28 7.55798 21.28 7.55915 21.28C7.56032 21.28 7.56149 21.28 7.56266 21.28C7.56383 21.28 7.565 21.28 7.56617 21.28C7.56735 21.28 7.56852 21.28 7.56969 21.28C7.57087 21.28 7.57204 21.28 7.57322 21.28C7.57439 21.28 7.57557 21.28 7.57675 21.28C7.57793 21.28 7.57911 21.28 7.58029 21.28C7.58147 21.28 7.58265 21.28 7.58383 21.28C7.58501 21.28 7.58619 21.28 7.58738 21.28C7.58856 21.28 7.58974 21.28 7.59093 21.28C7.59211 21.28 7.5933 21.28 7.59449 21.28C7.59567 21.28 7.59686 21.28 7.59805 21.28C7.59924 21.28 7.60043 21.28 7.60162 21.28C7.60281 21.28 7.604 21.28 7.6052 21.28C7.60639 21.28 7.60758 21.28 7.60878 21.28C7.60997 21.28 7.61117 21.28 7.61236 21.28C7.61356 21.28 7.61476 21.28 7.61596 21.28C7.61715 21.28 7.61835 21.28 7.61955 21.28C7.62075 21.28 7.62195 21.28 7.62316 21.28C7.62436 21.28 7.62556 21.28 7.62676 21.28C7.62797 21.28 7.62917 21.28 7.63038 21.28C7.63158 21.28 7.63279 21.28 7.634 21.28C7.6352 21.28 7.63641 21.28 7.63762 21.28C7.63883 21.28 7.64004 21.28 7.64125 21.28C7.64246 21.28 7.64367 21.28 7.64489 21.28C7.6461 21.28 7.64731 21.28 7.64853 21.28C7.64974 21.28 7.65096 21.28 7.65217 21.28C7.65339 21.28 7.65461 21.28 7.65583 21.28C7.65704 21.28 7.65826 21.28 7.65948 21.28C7.6607 21.28 7.66192 21.28 7.66315 21.28C7.66437 21.28 7.66559 21.28 7.66681 21.28C7.66804 21.28 7.66926 21.28 7.67049 21.28C7.67171 21.28 7.67294 21.28 7.67417 21.28C7.6754 21.28 7.67662 21.28 7.67785 21.28C7.67908 21.28 7.68031 21.28 7.68154 21.28C7.68277 21.28 7.68401 21.28 7.68524 21.28C7.68647 21.28 7.68771 21.28 7.68894 21.28C7.69018 21.28 7.69141 21.28 7.69265 21.28C7.69388 21.28 7.69512 21.28 7.69636 21.28C7.6976 21.28 7.69884 21.28 7.70008 21.28C7.70132 21.28 7.70256 21.28 7.7038 21.28C7.70504 21.28 7.70629 21.28 7.70753 21.28C7.70878 21.28 7.71002 21.28 7.71127 21.28C7.71251 21.28 7.71376 21.28 7.71501 21.28C7.71625 21.28 7.7175 21.28 7.71875 21.28C7.72 21.28 7.72125 21.28 7.7225 21.28C7.72375 21.28 7.72501 21.28 7.72626 21.28C7.72751 21.28 7.72877 21.28 7.73002 21.28C7.73127 21.28 7.73253 21.28 7.73379 21.28C7.73504 21.28 7.7363 21.28 7.73756 21.28C7.73882 21.28 7.74008 21.28 7.74134 21.28C7.7426 21.28 7.74386 21.28 7.74512 21.28C7.74638 21.28 7.74765 21.28 7.74891 21.28C7.75018 21.28 7.75144 21.28 7.75271 21.28C7.75397 21.28 7.75524 21.28 7.75651 21.28C7.75777 21.28 7.75904 21.28 7.76031 21.28C7.76158 21.28 7.76285 21.28 7.76412 21.28C7.7654 21.28 7.76667 21.28 7.76794 21.28C7.76921 21.28 7.77049 21.28 7.77176 21.28C7.77304 21.28 7.77431 21.28 7.77559 21.28C7.77687 21.28 7.77815 21.28 7.77942 21.28C7.7807 21.28 7.78198 21.28 7.78326 21.28C7.78454 21.28 7.78583 21.28 7.78711 21.28C7.78839 21.28 7.78967 21.28 7.79096 21.28C7.79224 21.28 7.79353 21.28 7.79481 21.28C7.7961 21.28 7.79739 21.28 7.79867 21.28C7.79996 21.28 7.80125 21.28 7.80254 21.28C7.80383 21.28 7.80512 21.28 7.80641 21.28C7.8077 21.28 7.809 21.28 7.81029 21.28C7.81158 21.28 7.81288 21.28 7.81417 21.28C7.81547 21.28 7.81676 21.28 7.81806 21.28C7.81936 21.28 7.82065 21.28 7.82195 21.28C7.82325 21.28 7.82455 21.28 7.82585 21.28C7.82715 21.28 7.82845 21.28 7.82976 21.28C7.83106 21.28 7.83236 21.28 7.83367 21.28C7.83497 21.28 7.83628 21.28 7.83758 21.28C7.83889 21.28 7.8402 21.28 7.8415 21.28C7.84281 21.28 7.84412 21.28 7.84543 21.28C7.84674 21.28 7.84805 21.28 7.84936 21.28C7.85068 21.28 7.85199 21.28 7.8533 21.28C7.85461 21.28 7.85593 21.28 7.85724 21.28C7.85856 21.28 7.85988 21.28 7.86119 21.28C7.86251 21.28 7.86383 21.28 7.86515 21.28C7.86647 21.28 7.86779 21.28 7.86911 21.28C7.87043 21.28 7.87175 21.28 7.87307 21.28C7.87439 21.28 7.87572 21.28 7.87704 21.28C7.87837 21.28 7.87969 21.28 7.88102 21.28C7.88235 21.28 7.88367 21.28 7.885 21.28C7.88633 21.28 7.88766 21.28 7.88899 21.28C7.89032 21.28 7.89165 21.28 7.89298 21.28C7.89431 21.28 7.89564 21.28 7.89698 21.28C7.89831 21.28 7.89965 21.28 7.90098 21.28C7.90232 21.28 7.90365 21.28 7.90499 21.28C7.90633 21.28 7.90767 21.28 7.90901 21.28C7.91034 21.28 7.91168 21.28 7.91303 21.28C7.91437 21.28 7.91571 21.28 7.91705 21.28C7.91839 21.28 7.91974 21.28 7.92108 21.28C7.92243 21.28 7.92377 21.28 7.92512 21.28C7.92647 21.28 7.92781 21.28 7.92916 21.28C7.93051 21.28 7.93186 21.28 7.93321 21.28C7.93456 21.28 7.93591 21.28 7.93726 21.28C7.93861 21.28 7.93997 21.28 7.94132 21.28C7.94267 21.28 7.94403 21.28 7.94538 21.28C7.94674 21.28 7.9481 21.28 7.94945 21.28C7.95081 21.28 7.95217 21.28 7.95353 21.28C7.95489 21.28 7.95625 21.28 7.95761 21.28C7.95897 21.28 7.96033 21.28 7.9617 21.28C7.96306 21.28 7.96442 21.28 7.96579 21.28C7.96715 21.28 7.96852 21.28 7.96988 21.28C7.97125 21.28 7.97262 21.28 7.97399 21.28C7.97535 21.28 7.97672 21.28 7.97809 21.28C7.97946 21.28 7.98084 21.28 7.98221 21.28C7.98358 21.28 7.98495 21.28 7.98633 21.28C7.9877 21.28 7.98908 21.28 7.99045 21.28C7.99183 21.28 7.9932 21.28 7.99458 21.28C7.99596 21.28 7.99734 21.28 7.99872 21.28C8.0001 21.28 8.00148 21.28 8.00286 21.28C8.00424 21.28 8.00562 21.28 8.007 21.28C8.00839 21.28 8.00977 21.28 8.01116 21.28C8.01254 21.28 8.01393 21.28 8.01531 21.28C8.0167 21.28 8.01809 21.28 8.01948 21.28C8.02086 21.28 8.02225 21.28 8.02364 21.28C8.02503 21.28 8.02643 21.28 8.02782 21.28C8.02921 21.28 8.0306 21.28 8.032 21.28C8.03339 21.28 8.03479 21.28 8.03618 21.28C8.03758 21.28 8.03897 21.28 8.04037 21.28C8.04177 21.28 8.04317 21.28 8.04457 21.28C8.04597 21.28 8.04737 21.28 8.04877 21.28C8.05017 21.28 8.05157 21.28 8.05298 21.28C8.05438 21.28 8.05578 21.28 8.05719 21.28C8.05859 21.28 8.06 21.28 8.06141 21.28C8.06281 21.28 8.06422 21.28 8.06563 21.28C8.06704 21.28 8.06845 21.28 8.06986 21.28C8.07127 21.28 8.07268 21.28 8.07409 21.28C8.07551 21.28 8.07692 21.28 8.07833 21.28C8.07975 21.28 8.08116 21.28 8.08258 21.28C8.08399 21.28 8.08541 21.28 8.08683 21.28C8.08825 21.28 8.08967 21.28 8.09109 21.28C8.09251 21.28 8.09393 21.28 8.09535 21.28C8.09677 21.28 8.09819 21.28 8.09962 21.28C8.10104 21.28 8.10246 21.28 8.10389 21.28C8.10531 21.28 8.10674 21.28 8.10817 21.28C8.10959 21.28 8.11102 21.28 8.11245 21.28C8.11388 21.28 8.11531 21.28 8.11674 21.28C8.11817 21.28 8.1196 21.28 8.12103 21.28C8.12247 21.28 8.1239 21.28 8.12533 21.28C8.12677 21.28 8.1282 21.28 8.12964 21.28C8.13108 21.28 8.13251 21.28 8.13395 21.28C8.13539 21.28 8.13683 21.28 8.13827 21.28C8.13971 21.28 8.14115 21.28 8.14259 21.28C8.14403 21.28 8.14547 21.28 8.14692 21.28C8.14836 21.28 8.14981 21.28 8.15125 21.28C8.1527 21.28 8.15414 21.28 8.15559 21.28C8.15704 21.28 8.15848 21.28 8.15993 21.28C8.16138 21.28 8.16283 21.28 8.16428 21.28C8.16573 21.28 8.16719 21.28 8.16864 21.28C8.17009 21.28 8.17154 21.28 8.173 21.28C8.17445 21.28 8.17591 21.28 8.17737 21.28C8.17882 21.28 8.18028 21.28 8.18174 21.28C8.1832 21.28 8.18465 21.28 8.18611 21.28C8.18757 21.28 8.18903 21.28 8.1905 21.28C8.19196 21.28 8.19342 21.28 8.19488 21.28C8.19635 21.28 8.19781 21.28 8.19928 21.28C8.20074 21.28 8.20221 21.28 8.20368 21.28C8.20514 21.28 8.20661 21.28 8.20808 21.28C8.20955 21.28 8.21102 21.28 8.21249 21.28C8.21396 21.28 8.21544 21.28 8.21691 21.28C8.21838 21.28 8.21985 21.28 8.22133 21.28C8.2228 21.28 8.22428 21.28 8.22575 21.28C8.22723 21.28 8.22871 21.28 8.23019 21.28C8.23167 21.28 8.23314 21.28 8.23462 21.28C8.2361 21.28 8.23759 21.28 8.23907 21.28C8.24055 21.28 8.24203 21.28 8.24352 21.28C8.245 21.28 8.24648 21.28 8.24797 21.28C8.24946 21.28 8.25094 21.28 8.25243 21.28C8.25392 21.28 8.25541 21.28 8.2569 21.28C8.25838 21.28 8.25987 21.28 8.26137 21.28C8.26286 21.28 8.26435 21.28 8.26584 21.28C8.26733 21.28 8.26883 21.28 8.27032 21.28C8.27182 21.28 8.27331 21.28 8.27481 21.28C8.27631 21.28 8.2778 21.28 8.2793 21.28C8.2808 21.28 8.2823 21.28 8.2838 21.28C8.2853 21.28 8.2868 21.28 8.2883 21.28C8.28981 21.28 8.29131 21.28 8.29281 21.28C8.29432 21.28 8.29582 21.28 8.29733 21.28C8.29883 21.28 8.30034 21.28 8.30185 21.28C8.30336 21.28 8.30486 21.28 8.30637 21.28C8.30788 21.28 8.30939 21.28 8.3109 21.28C8.31242 21.28 8.31393 21.28 8.31544 21.28C8.31695 21.28 8.31847 21.28 8.31998 21.28C8.3215 21.28 8.32301 21.28 8.32453 21.28C8.32605 21.28 8.32756 21.28 8.32908 21.28C8.3306 21.28 8.33212 21.28 8.33364 21.28C8.33516 21.28 8.33668 21.28 8.3382 21.28C8.33973 21.28 8.34125 21.28 8.34277 21.28C8.3443 21.28 8.34582 21.28 8.34735 21.28C8.34888 21.28 8.3504 21.28 8.35193 21.28C8.35346 21.28 8.35499 21.28 8.35651 21.28C8.35804 21.28 8.35958 21.28 8.36111 21.28C8.36264 21.28 8.36417 21.28 8.3657 21.28C8.36724 21.28 8.36877 21.28 8.37031 21.28C8.37184 21.28 8.37338 21.28 8.37491 21.28C8.37645 21.28 8.37799 21.28 8.37953 21.28C8.38107 21.28 8.38261 21.28 8.38415 21.28C8.38569 21.28 8.38723 21.28 8.38877 21.28C8.39031 21.28 8.39186 21.28 8.3934 21.28C8.39494 21.28 8.39649 21.28 8.39804 21.28C8.39958 21.28 8.40113 21.28 8.40268 21.28C8.40422 21.28 8.40577 21.28 8.40732 21.28C8.40887 21.28 8.41042 21.28 8.41197 21.28C8.41353 21.28 8.41508 21.28 8.41663 21.28C8.41819 21.28 8.41974 21.28 8.42129 21.28C8.42285 21.28 8.42441 21.28 8.42596 21.28C8.42752 21.28 8.42908 21.28 8.43064 21.28C8.4322 21.28 8.43375 21.28 8.43532 21.28C8.43688 21.28 8.43844 21.28 8.44 21.28V20.28ZM6.76 20.28V19.28C6.68306 19.28 6.91135 19.2571 7.12711 19.4729C7.34287 19.6887 7.32 19.9169 7.32 19.84H6.32H5.32C5.32 20.0831 5.35713 20.5313 5.71289 20.8871C6.06866 21.2429 6.51694 21.28 6.76 21.28V20.28ZM6.32 19.84H7.32V15.72H6.32H5.32V19.84H6.32ZM6.32 15.72H7.32C7.32 15.5077 7.3085 15.3154 7.28394 15.1517C7.27191 15.0715 7.25371 14.9773 7.22386 14.8817C7.20802 14.8311 7.14068 14.6065 6.94711 14.4129L6.24 15.12L5.53289 15.8271C5.47811 15.7723 5.43967 15.7206 5.41444 15.6826C5.38865 15.6437 5.37023 15.6095 5.35771 15.5841C5.33344 15.5348 5.32051 15.4962 5.3149 15.4783C5.30379 15.4427 5.30309 15.4285 5.30606 15.4483C5.31151 15.4846 5.32 15.5723 5.32 15.72H6.32ZM6.24 15.12L6.68722 14.2256C6.50388 14.1339 6.30856 14.0954 6.16642 14.0751C6.00333 14.0518 5.81441 14.04 5.6 14.04V15.04V16.04C5.74559 16.04 5.83667 16.0482 5.88358 16.0549C5.9068 16.0583 5.9117 16.0602 5.90238 16.0577C5.89761 16.0564 5.85459 16.0453 5.79278 16.0144L6.24 15.12ZM5.6 15.04V14.04C5.11484 14.04 4.76758 14.0399 4.5354 14.0352C4.41677 14.0328 4.35004 14.0295 4.31853 14.0268C4.30003 14.0252 4.31833 14.0258 4.35494 14.0333C4.37257 14.0368 4.41928 14.0469 4.47922 14.069C4.51758 14.0832 4.67592 14.1417 4.8271 14.2929L4.12 15L3.4129 15.7071C3.56908 15.8633 3.73586 15.9265 3.78611 15.9451C3.85795 15.9716 3.92001 15.9857 3.95646 15.9932C4.03074 16.0083 4.10059 16.0154 4.14773 16.0195C4.24746 16.028 4.36823 16.0322 4.4946 16.0348C4.75242 16.0401 5.12516 16.04 5.6 16.04V15.04ZM4.12 15V14C3.80664 14 3.3786 14.0795 3.04895 14.4327C2.73201 14.7723 2.68 15.1816 2.68 15.44H3.68H4.68C4.68 15.4402 4.68002 15.4491 4.67802 15.465C4.67602 15.481 4.67167 15.5067 4.66188 15.5395C4.64151 15.6076 4.59784 15.7043 4.51106 15.7973C4.42273 15.892 4.32314 15.9469 4.24192 15.9749C4.20382 15.988 4.17302 15.9941 4.15287 15.997C4.13284 16 4.12118 16 4.12 16V15ZM3.68 15.44H2.68V17.12H3.68H4.68V15.44H3.68ZM3.68 17.12H2.68V22.32H3.68H4.68V17.12H3.68ZM3.68 22.32H2.68C2.68 22.444 2.67184 22.502 2.67022 22.5112C2.66928 22.5165 2.67334 22.4895 2.69025 22.4433C2.69898 22.4194 2.71491 22.38 2.7415 22.3323C2.76646 22.2876 2.81373 22.2121 2.89289 22.1329L3.6 22.84L4.30711 23.5471C4.46962 23.3846 4.54078 23.2062 4.5685 23.1305C4.60416 23.033 4.62572 22.9385 4.63978 22.8588C4.66816 22.698 4.68 22.516 4.68 22.32H3.68ZM3.6 22.84L2.89289 22.1329C2.99555 22.0302 3.10356 21.9755 3.17956 21.9476C3.24888 21.9221 3.29675 21.917 3.29816 21.9168C3.30123 21.9165 3.28836 21.918 3.24566 21.919C3.20353 21.9199 3.15316 21.92 3.08 21.92V22.92V23.92C3.19603 23.92 3.37494 23.9216 3.53184 23.9032C3.68147 23.8855 4.02339 23.8308 4.30711 23.5471L3.6 22.84ZM3.08 22.92V21.92H2.28V22.92V23.92H3.08V22.92ZM2.28 22.92V21.92H1.48V22.92V23.92H2.28V22.92ZM1.48 22.92V21.92C1.45594 21.92 1.48628 21.917 1.54731 21.9341C1.61315 21.9526 1.73494 22.0007 1.85211 22.1179C1.97501 22.2408 2.03564 22.3825 2.0593 22.4952C2.08022 22.5949 2.07022 22.6595 2.06995 22.6614L1.08 22.52L0.0900505 22.3786C0.052481 22.6416 0.043397 23.1376 0.437893 23.5321C0.794055 23.8883 1.25049 23.92 1.48 23.92V22.92ZM1.08 22.52H2.08V22.12H1.08H0.08V22.52H1.08ZM1.08 22.12H2.08V5.32H1.08H0.08V22.12H1.08ZM1.08 5.32H2.08V5.04H1.08H0.08V5.32H1.08ZM1.08 5.04H2.08C2.08 4.97661 2.08006 4.93515 2.08093 4.90093C2.08183 4.86533 2.08317 4.86262 2.08123 4.87716C2.08024 4.88456 2.07048 4.96527 2.02171 5.07093C1.96715 5.18914 1.84516 5.37545 1.60721 5.49443L1.16 4.6L0.712791 3.70557C0.169433 3.97725 0.108822 4.53746 0.0987721 4.61283C0.0779301 4.76915 0.08 4.94741 0.08 5.04H1.08ZM1.16 4.6L1.86711 5.3071C1.78893 5.38529 1.71508 5.43153 1.67416 5.45476C1.62958 5.48006 1.59291 5.49549 1.57086 5.50397C1.52777 5.52054 1.50133 5.52554 1.50112 5.52558C1.49869 5.52607 1.5313 5.52 1.6 5.52V4.52V3.52C1.4287 3.52 1.26131 3.53393 1.10888 3.56442C1.03367 3.57946 0.944731 3.60196 0.852894 3.63728C0.785088 3.66336 0.611485 3.7343 0.452887 3.8929L1.16 4.6ZM1.6 4.52V5.52H5.64V4.52V3.52H1.6V4.52ZM5.64 4.52V5.52C5.7605 5.52 5.83987 5.52767 5.88166 5.53394C5.90249 5.53706 5.90718 5.53883 5.89876 5.53657C5.89422 5.53535 5.88329 5.53228 5.86736 5.52658C5.85218 5.52114 5.82596 5.51101 5.79278 5.49442L6.24 4.6L6.68722 3.70558C6.50695 3.61544 6.3145 3.57649 6.17834 3.55606C6.02013 3.53233 5.8395 3.52 5.64 3.52V4.52ZM6.24 4.6L5.34558 5.04722C5.32606 5.00818 5.31602 4.97849 5.31155 4.9636C5.30704 4.94857 5.30693 4.94434 5.30861 4.9544C5.31224 4.97621 5.32 5.03898 5.32 5.16H6.32H7.32C7.32 4.78893 7.27891 4.44175 7.13442 4.15278L6.24 4.6ZM6.32 5.16H5.32V11.48H6.32H7.32V5.16H6.32ZM6.32 11.48H5.32V11.92H6.32H7.32V11.48H6.32ZM6.32 11.92H5.32C5.32 12.0913 5.33393 12.2587 5.36442 12.4111C5.37946 12.4863 5.40196 12.5753 5.43728 12.6671C5.46336 12.7349 5.5343 12.9085 5.69289 13.0671L6.4 12.36L7.10711 11.6529C7.1853 11.7311 7.23154 11.8049 7.25477 11.8458C7.28006 11.8904 7.29549 11.9271 7.30397 11.9491C7.32054 11.9922 7.32554 12.0187 7.32558 12.0189C7.32607 12.0213 7.32 11.9887 7.32 11.92H6.32ZM6.4 12.36L5.6929 13.0671C5.91189 13.2861 6.16564 13.3436 6.23299 13.3587C6.33466 13.3816 6.42858 13.3894 6.48762 13.3931C6.60641 13.4005 6.75408 13.4 6.88 13.4V12.4V11.4C6.80836 11.4 6.75202 11.4 6.70386 11.3994C6.65476 11.3989 6.62707 11.3979 6.61238 11.3969C6.59142 11.3956 6.62034 11.3959 6.67201 11.4075C6.69958 11.4137 6.75415 11.4276 6.82144 11.457C6.88645 11.4855 6.99732 11.5431 7.1071 11.6529L6.4 12.36ZM6.88 12.4L6.82453 13.3985C7.56252 13.4395 8.1828 13.4427 8.65951 13.395L8.56 12.4L8.46049 11.405C8.1372 11.4373 7.63748 11.4405 6.93547 11.4015L6.88 12.4ZM8.56 12.4V13.4C8.44343 13.4 8.23401 13.3513 8.07074 13.1608C7.92768 12.9939 7.92 12.8334 7.92 12.8H8.92H9.92C9.92 12.5266 9.85233 12.1661 9.58926 11.8592C9.30599 11.5287 8.91657 11.4 8.56 11.4V12.4ZM8.92 12.8H7.92V13.72H8.92H9.92V12.8H8.92ZM8.92 13.72H7.92V14.64H8.92H9.92V13.72H8.92Z" fill="black" mask="url(#path-1-outside-1_121_439)"/>
</svg>
