<svg width="44" height="44" viewBox="0 0 44 44" fill="none" xmlns="http://www.w3.org/2000/svg">
<circle cx="22" cy="22" r="21" fill="white" stroke="black" stroke-width="2"/>
<path d="M14 13C13.4477 13 13 13.4477 13 14L13 23C13 23.5523 13.4477 24 14 24C14.5523 24 15 23.5523 15 23L15 15L23 15C23.5523 15 24 14.5523 24 14C24 13.4477 23.5523 13 23 13L14 13ZM30.9706 31.9706C31.5228 31.9706 31.9706 31.5228 31.9706 30.9706L31.9706 21.9706C31.9706 21.4183 31.5228 20.9706 30.9706 20.9706C30.4183 20.9706 29.9706 21.4183 29.9706 21.9706L29.9706 29.9706L21.9706 29.9706C21.4183 29.9706 20.9706 30.4183 20.9706 30.9706C20.9706 31.5228 21.4183 31.9706 21.9706 31.9706L30.9706 31.9706ZM14 14L13.2929 14.7071L30.2635 31.6777L30.9706 30.9706L31.6777 30.2635L14.7071 13.2929L14 14Z" fill="black"/>
</svg>
