<svg width="78" height="27" viewBox="0 0 78 27" fill="none" xmlns="http://www.w3.org/2000/svg">
<g filter="url(#filter0_d_10_84)">
<mask id="path-1-inside-1_10_84" fill="white">
<path d="M0 12.5C0 5.59644 5.59644 0 12.5 0H63.5C70.4036 0 76 5.59644 76 12.5V12.5C76 19.4036 70.4036 25 63.5 25H12.5C5.59644 25 0 19.4036 0 12.5V12.5Z"/>
</mask>
<path d="M0 12.5C0 5.59644 5.59644 0 12.5 0H63.5C70.4036 0 76 5.59644 76 12.5V12.5C76 19.4036 70.4036 25 63.5 25H12.5C5.59644 25 0 19.4036 0 12.5V12.5Z" fill="url(#paint0_linear_10_84)" shape-rendering="crispEdges"/>
<path d="M0 12.5M76 12.5M76 12.5M0 12.5M12.5 0V2H63.5V0V-2H12.5V0ZM76 12.5M63.5 25V23H12.5V25V27H63.5V25ZM0 12.5M12.5 25V23C6.70101 23 2 18.299 2 12.5H0H-2C-2 20.5081 4.49187 27 12.5 27V25ZM76 12.5H74C74 18.299 69.299 23 63.5 23V25V27C71.5081 27 78 20.5081 78 12.5H76ZM63.5 0V2C69.299 2 74 6.70101 74 12.5H76H78C78 4.49187 71.5081 -2 63.5 -2V0ZM12.5 0V-2C4.49187 -2 -2 4.49187 -2 12.5H0H2C2 6.70101 6.70101 2 12.5 2V0Z" fill="black" mask="url(#path-1-inside-1_10_84)"/>
<path d="M22.3341 20.6561L18.2059 6.6409V17.7695C18.2059 18.7931 18.2768 19.4318 18.4186 19.6857C18.613 20.0296 18.9202 20.2016 19.3404 20.2016H19.7185V20.6561H16V20.2016H16.3782C16.8298 20.2016 17.1502 19.9887 17.3393 19.5629C17.4548 19.3008 17.5126 18.703 17.5126 17.7695V6.88656C17.5126 6.14957 17.4601 5.61729 17.3551 5.28974C17.2815 5.05226 17.145 4.85573 16.9454 4.70014C16.7511 4.53637 16.4359 4.45448 16 4.45448V4H19.0252L22.9013 17.0325L26.7144 4H29.7397V4.45448H29.3694C28.9124 4.45448 28.5894 4.66739 28.4004 5.09321C28.2848 5.35525 28.227 5.95303 28.227 6.88656V17.7695C28.227 18.7931 28.3006 19.4318 28.4476 19.6857C28.642 20.0296 28.9492 20.2016 29.3694 20.2016H29.7397V20.6561H25.2018V20.2016H25.5799C26.0369 20.2016 26.3573 19.9887 26.5411 19.5629C26.6566 19.3008 26.7144 18.703 26.7144 17.7695V6.6409L22.5941 20.6561H22.3341Z" fill="black"/>
<path d="M31.8038 13.6423C31.7985 15.3129 32.0585 16.6231 32.5837 17.573C33.1089 18.5229 33.7261 18.9978 34.4351 18.9978C34.9078 18.9978 35.3175 18.7972 35.6641 18.396C36.016 17.9865 36.3101 17.2905 36.5465 16.3078L36.7907 16.5535C36.6804 17.6753 36.36 18.6989 35.8295 19.6243C35.2991 20.5414 34.6347 21 33.8363 21C32.9697 21 32.2266 20.4759 31.6068 19.4277C30.9923 18.3714 30.685 16.9547 30.685 15.1777C30.685 13.2534 31.0002 11.7548 31.6304 10.6821C32.2659 9.60116 33.0617 9.06069 34.0175 9.06069C34.8264 9.06069 35.4908 9.47832 36.0107 10.3136C36.5307 11.1407 36.7907 12.2502 36.7907 13.6423H31.8038ZM31.8038 12.9299H35.1441C35.1179 12.2093 35.0627 11.7016 34.9787 11.4068C34.8474 10.9482 34.6504 10.5879 34.3878 10.3259C34.1305 10.0638 33.86 9.9328 33.5764 9.9328C33.1404 9.9328 32.7491 10.1989 32.4025 10.7312C32.0611 11.2553 31.8615 11.9882 31.8038 12.9299Z" fill="black"/>
<path d="M39.8553 5.70737V9.40462H41.5413V10.2645H39.8553V17.5607C39.8553 18.2895 39.921 18.7808 40.0523 19.0347C40.1888 19.2885 40.3622 19.4155 40.5722 19.4155C40.7456 19.4155 40.9136 19.3336 41.0765 19.1698C41.2393 18.9978 41.3653 18.7481 41.4546 18.4205H41.7619C41.578 19.223 41.3181 19.829 40.9819 20.2384C40.6458 20.6397 40.2991 20.8403 39.942 20.8403C39.7004 20.8403 39.464 20.738 39.2329 20.5332C39.0018 20.3203 38.8312 20.0214 38.7209 19.6366C38.6106 19.2435 38.5554 18.6416 38.5554 17.8309V10.2645H37.4131V9.8591C37.7019 9.67895 37.9961 9.37596 38.2954 8.95014C38.6001 8.51614 38.8705 8.00434 39.1069 7.41474C39.2277 7.10356 39.3958 6.53444 39.6111 5.70737H39.8553Z" fill="black"/>
<path d="M43.4636 13.6423C43.4583 15.3129 43.7183 16.6231 44.2435 17.573C44.7687 18.5229 45.3859 18.9978 46.0949 18.9978C46.5676 18.9978 46.9773 18.7972 47.3239 18.396C47.6758 17.9865 47.9699 17.2905 48.2063 16.3078L48.4505 16.5535C48.3402 17.6753 48.0198 18.6989 47.4893 19.6243C46.9589 20.5414 46.2945 21 45.4961 21C44.6295 21 43.8864 20.4759 43.2666 19.4277C42.6521 18.3714 42.3449 16.9547 42.3449 15.1777C42.3449 13.2534 42.66 11.7548 43.2902 10.6821C43.9258 9.60116 44.7215 9.06069 45.6773 9.06069C46.4862 9.06069 47.1506 9.47832 47.6705 10.3136C48.1905 11.1407 48.4505 12.2502 48.4505 13.6423H43.4636ZM43.4636 12.9299H46.8039C46.7777 12.2093 46.7225 11.7016 46.6385 11.4068C46.5072 10.9482 46.3102 10.5879 46.0476 10.3259C45.7903 10.0638 45.5198 9.9328 45.2362 9.9328C44.8002 9.9328 44.409 10.1989 44.0623 10.7312C43.7209 11.2553 43.5213 11.9882 43.4636 12.9299Z" fill="black"/>
<path d="M51.5309 9.07298V11.6033C52.1349 9.91643 52.7546 9.07298 53.3902 9.07298C53.679 9.07298 53.918 9.21219 54.1071 9.49061C54.2961 9.76084 54.3907 10.0761 54.3907 10.4364C54.3907 10.7558 54.3224 11.026 54.1859 11.2471C54.0493 11.4682 53.8865 11.5788 53.6974 11.5788C53.5136 11.5788 53.3061 11.4395 53.075 11.1611C52.8492 10.8745 52.6811 10.7312 52.5708 10.7312C52.4763 10.7312 52.3739 10.8131 52.2636 10.9769C52.0272 11.3126 51.783 11.8654 51.5309 12.6351V18.0275C51.5309 18.6498 51.5808 19.1207 51.6806 19.44C51.7488 19.6611 51.8696 19.8454 52.043 19.9928C52.2163 20.1402 52.4658 20.2139 52.7914 20.2139V20.6561H49.0965V20.2139C49.4642 20.2139 49.7373 20.1238 49.9158 19.9436C50.0471 19.8126 50.1391 19.6038 50.1916 19.3172C50.2178 19.178 50.231 18.7808 50.231 18.1257V13.7652C50.231 12.455 50.2126 11.677 50.1758 11.4314C50.1443 11.1775 50.0813 10.9933 49.9867 10.8786C49.8975 10.764 49.7845 10.7066 49.648 10.7066C49.4852 10.7066 49.3013 10.7681 49.0965 10.8909L49.0177 10.4487L51.2 9.07298H51.5309Z" fill="black"/>
<path d="M59.4564 9.07298V12.9053H59.1964C58.9968 11.7016 58.7395 10.8827 58.4243 10.4487C58.1145 10.0147 57.7179 9.79769 57.2347 9.79769C56.8671 9.79769 56.5703 9.94918 56.3445 10.2522C56.1186 10.5552 56.0057 10.8909 56.0057 11.2594C56.0057 11.718 56.0898 12.111 56.2578 12.4386C56.4206 12.7743 56.7515 13.1305 57.2505 13.5072L58.4007 14.3793C59.4669 15.19 60 16.2587 60 17.5853C60 18.6089 59.7505 19.4359 59.2516 20.0665C58.7579 20.6888 58.2038 21 57.5893 21C57.1481 21 56.6439 20.8772 56.0766 20.6315C55.9033 20.5496 55.7615 20.5087 55.6512 20.5087C55.5304 20.5087 55.4359 20.6151 55.3676 20.828H55.1076V16.8114H55.3676C55.5147 17.9579 55.7956 18.8218 56.2106 19.4032C56.6255 19.9846 57.0903 20.2753 57.605 20.2753C57.9674 20.2753 58.2615 20.1115 58.4874 19.784C58.7185 19.4482 58.834 19.047 58.834 18.5802C58.834 18.0152 58.7053 17.5402 58.448 17.1553C58.1959 16.7705 57.689 16.2832 56.9275 15.6936C56.1659 15.104 55.667 14.5718 55.4306 14.0968C55.1943 13.6301 55.0761 13.0405 55.0761 12.328C55.0761 11.4027 55.2783 10.6289 55.6827 10.0065C56.0924 9.38415 56.6202 9.07298 57.2662 9.07298C57.5499 9.07298 57.8939 9.16715 58.2983 9.35549C58.5662 9.47832 58.7447 9.53974 58.834 9.53974C58.9181 9.53974 58.9837 9.51108 59.031 9.45376C59.0782 9.39644 59.1334 9.26951 59.1964 9.07298H59.4564Z" fill="black"/>
</g>
<defs>
<filter id="filter0_d_10_84" x="0" y="0" width="78" height="27" filterUnits="userSpaceOnUse" color-interpolation-filters="sRGB">
<feFlood flood-opacity="0" result="BackgroundImageFix"/>
<feColorMatrix in="SourceAlpha" type="matrix" values="0 0 0 0 0 0 0 0 0 0 0 0 0 0 0 0 0 0 127 0" result="hardAlpha"/>
<feOffset dx="2" dy="2"/>
<feComposite in2="hardAlpha" operator="out"/>
<feColorMatrix type="matrix" values="0 0 0 0 0 0 0 0 0 0 0 0 0 0 0 0 0 0 1 0"/>
<feBlend mode="normal" in2="BackgroundImageFix" result="effect1_dropShadow_10_84"/>
<feBlend mode="normal" in="SourceGraphic" in2="effect1_dropShadow_10_84" result="shape"/>
</filter>
<!-- Green Gradient: language-box-selected-secondary → language-box-selected-primary -->
<linearGradient id="paint0_linear_10_84" x1="38" y1="0" x2="38" y2="25" gradientUnits="userSpaceOnUse">
<stop stop-color="#FFFFFF"/>
<stop offset="1" stop-color="#91E53E"/>
</linearGradient>
</defs>
</svg>
