<svg width="44" height="17" viewBox="0 0 44 17" fill="none" xmlns="http://www.w3.org/2000/svg">
<path d="M6.33411 16.6561L2.20591 2.6409V13.7695C2.20591 14.7931 2.27681 15.4318 2.41862 15.6857C2.61295 16.0296 2.9202 16.2016 3.34038 16.2016H3.71853V16.6561H0V16.2016H0.378156C0.829842 16.2016 1.15022 15.9887 1.3393 15.5629C1.45485 15.3008 1.51262 14.703 1.51262 13.7695V2.88656C1.51262 2.14957 1.4601 1.61729 1.35506 1.28974C1.28153 1.05226 1.14497 0.855732 0.94539 0.700144C0.751059 0.536368 0.43593 0.45448 0 0.45448V0H3.02525L6.90134 13.0325L10.7144 0H13.7397V0.45448H13.3694C12.9124 0.45448 12.5894 0.667389 12.4004 1.09321C12.2848 1.35525 12.227 1.95303 12.227 2.88656V13.7695C12.227 14.7931 12.3006 15.4318 12.4476 15.6857C12.642 16.0296 12.9492 16.2016 13.3694 16.2016H13.7397V16.6561H9.20179V16.2016H9.57995C10.0369 16.2016 10.3573 15.9887 10.5411 15.5629C10.6566 15.3008 10.7144 14.703 10.7144 13.7695V2.6409L6.59409 16.6561H6.33411Z" fill="black"/>
<path d="M15.8038 9.64234C15.7985 11.3129 16.0585 12.6231 16.5837 13.573C17.1089 14.5229 17.7261 14.9978 18.4351 14.9978C18.9078 14.9978 19.3175 14.7972 19.6641 14.396C20.016 13.9865 20.3101 13.2905 20.5465 12.3078L20.7907 12.5535C20.6804 13.6753 20.36 14.6989 19.8295 15.6243C19.2991 16.5414 18.6347 17 17.8363 17C16.9697 17 16.2266 16.4759 15.6068 15.4277C14.9923 14.3714 14.6851 12.9547 14.6851 11.1777C14.6851 9.25337 15.0002 7.75482 15.6304 6.68208C16.266 5.60116 17.0617 5.06069 18.0175 5.06069C18.8264 5.06069 19.4908 5.47832 20.0107 6.31358C20.5307 7.14066 20.7907 8.25024 20.7907 9.64234H15.8038ZM15.8038 8.92991H19.1441C19.1179 8.2093 19.0627 7.70159 18.9787 7.40679C18.8474 6.94822 18.6504 6.58791 18.3878 6.32587C18.1305 6.06382 17.86 5.9328 17.5764 5.9328C17.1404 5.9328 16.7492 6.19894 16.4025 6.73121C16.0611 7.2553 15.8615 7.9882 15.8038 8.92991Z" fill="black"/>
<path d="M23.8553 1.70737V5.40462H25.5413V6.26445H23.8553V13.5607C23.8553 14.2895 23.921 14.7808 24.0523 15.0347C24.1888 15.2885 24.3622 15.4155 24.5723 15.4155C24.7456 15.4155 24.9136 15.3336 25.0765 15.1698C25.2393 14.9978 25.3653 14.7481 25.4546 14.4205H25.7619C25.578 15.223 25.3181 15.829 24.9819 16.2384C24.6458 16.6397 24.2991 16.8403 23.942 16.8403C23.7004 16.8403 23.464 16.738 23.2329 16.5332C23.0019 16.3203 22.8312 16.0214 22.7209 15.6366C22.6106 15.2435 22.5554 14.6416 22.5554 13.8309V6.26445H21.4131V5.8591C21.7019 5.67895 21.9961 5.37596 22.2954 4.95014C22.6001 4.51614 22.8705 4.00434 23.1069 3.41474C23.2277 3.10356 23.3958 2.53444 23.6111 1.70737H23.8553Z" fill="black"/>
<path d="M27.4636 9.64234C27.4583 11.3129 27.7183 12.6231 28.2435 13.573C28.7687 14.5229 29.3859 14.9978 30.0949 14.9978C30.5676 14.9978 30.9773 14.7972 31.3239 14.396C31.6758 13.9865 31.9699 13.2905 32.2063 12.3078L32.4505 12.5535C32.3402 13.6753 32.0198 14.6989 31.4893 15.6243C30.9589 16.5414 30.2945 17 29.4962 17C28.6295 17 27.8864 16.4759 27.2666 15.4277C26.6521 14.3714 26.3449 12.9547 26.3449 11.1777C26.3449 9.25337 26.66 7.75482 27.2902 6.68208C27.9258 5.60116 28.7215 5.06069 29.6774 5.06069C30.4862 5.06069 31.1506 5.47832 31.6705 6.31358C32.1905 7.14066 32.4505 8.25024 32.4505 9.64234H27.4636ZM27.4636 8.92991H30.8039C30.7777 8.2093 30.7225 7.70159 30.6385 7.40679C30.5072 6.94822 30.3102 6.58791 30.0476 6.32587C29.7903 6.06382 29.5198 5.9328 29.2362 5.9328C28.8002 5.9328 28.409 6.19894 28.0623 6.73121C27.7209 7.2553 27.5213 7.9882 27.4636 8.92991Z" fill="black"/>
<path d="M35.5309 5.07298V7.60332C36.1349 5.91643 36.7546 5.07298 37.3902 5.07298C37.679 5.07298 37.918 5.21219 38.1071 5.49061C38.2962 5.76084 38.3907 6.07611 38.3907 6.43642C38.3907 6.75578 38.3224 7.02601 38.1859 7.24711C38.0493 7.46821 37.8865 7.57876 37.6974 7.57876C37.5136 7.57876 37.3061 7.43955 37.075 7.16113C36.8492 6.87452 36.6811 6.73121 36.5708 6.73121C36.4763 6.73121 36.3739 6.8131 36.2636 6.97688C36.0272 7.31262 35.783 7.86537 35.5309 8.63512V14.0275C35.5309 14.6498 35.5808 15.1207 35.6806 15.44C35.7489 15.6611 35.8697 15.8454 36.043 15.9928C36.2163 16.1402 36.4658 16.2139 36.7914 16.2139V16.6561H33.0965V16.2139C33.4642 16.2139 33.7373 16.1238 33.9158 15.9436C34.0472 15.8126 34.1391 15.6038 34.1916 15.3172C34.2178 15.178 34.231 14.7808 34.231 14.1257V9.76517C34.231 8.45496 34.2126 7.67702 34.1758 7.43136C34.1443 7.1775 34.0813 6.99326 33.9868 6.87861C33.8975 6.76397 33.7845 6.70665 33.648 6.70665C33.4852 6.70665 33.3013 6.76806 33.0965 6.8909L33.0177 6.4487L35.2 5.07298H35.5309Z" fill="black"/>
<path d="M43.4564 5.07298V8.90535H43.1964C42.9968 7.70159 42.7395 6.88271 42.4244 6.4487C42.1145 6.01469 41.7179 5.79769 41.2347 5.79769C40.8671 5.79769 40.5703 5.94918 40.3445 6.25217C40.1187 6.55515 40.0057 6.8909 40.0057 7.25939C40.0057 7.71797 40.0898 8.11103 40.2578 8.43858C40.4207 8.77433 40.7515 9.13054 41.2505 9.50723L42.4007 10.3793C43.4669 11.19 44 12.2587 44 13.5853C44 14.6089 43.7505 15.4359 43.2516 16.0665C42.7579 16.6888 42.2038 17 41.5893 17C41.1481 17 40.6439 16.8772 40.0766 16.6315C39.9033 16.5496 39.7615 16.5087 39.6512 16.5087C39.5304 16.5087 39.4359 16.6151 39.3676 16.828H39.1076V12.8114H39.3676C39.5147 13.9579 39.7956 14.8218 40.2106 15.4032C40.6255 15.9846 41.0903 16.2753 41.605 16.2753C41.9674 16.2753 42.2615 16.1115 42.4874 15.784C42.7185 15.4482 42.834 15.047 42.834 14.5802C42.834 14.0152 42.7053 13.5402 42.448 13.1553C42.1959 12.7705 41.689 12.2832 40.9275 11.6936C40.1659 11.104 39.667 10.5718 39.4306 10.0968C39.1943 9.63006 39.0761 9.04046 39.0761 8.32803C39.0761 7.4027 39.2783 6.62885 39.6827 6.0065C40.0924 5.38415 40.6202 5.07298 41.2663 5.07298C41.5499 5.07298 41.8939 5.16715 42.2983 5.35549C42.5662 5.47832 42.7447 5.53974 42.834 5.53974C42.9181 5.53974 42.9837 5.51108 43.031 5.45376C43.0782 5.39644 43.1334 5.26951 43.1964 5.07298H43.4564Z" fill="black"/>
</svg>
