<svg width="32" height="32" viewBox="0 0 32 32" fill="none" xmlns="http://www.w3.org/2000/svg">
<path d="M17.8602 17.8325V17.7685C17.8602 17.7685 17.8602 17.7685 17.8602 17.8325ZM30.3402 1.96047C30.3402 11.1125 30.3402 20.3285 30.3402 29.4805C30.3402 30.4405 30.3402 30.4405 29.4442 30.4405C27.2682 30.5045 25.0281 30.5045 22.8521 30.4405C21.9561 30.4405 21.9561 30.4405 21.9561 29.6085C21.9561 26.1525 21.9561 22.6965 21.9561 19.2405C21.9561 18.9845 21.9561 18.7285 21.9561 18.4725C22.0201 17.9605 21.7641 17.8325 21.2521 17.8325C20.1001 17.8325 19.0122 17.8965 17.8602 17.7685C17.8602 17.2565 17.7961 16.8085 17.7961 16.2965C17.7961 11.6245 17.7961 6.88847 17.7961 2.21647C17.7961 0.936467 17.7321 1.00047 18.9481 1.00047C22.4681 1.00047 25.9241 1.00047 29.3801 1.00047C30.3401 1.06447 30.3402 1.06447 30.3402 1.96047ZM13.5721 17.1925C13.5721 17.7045 13.7641 17.8325 14.2121 17.8325C15.4281 17.8325 16.6442 17.8325 17.8602 17.8325C17.7962 21.4805 17.7961 25.1925 17.7961 28.8405C17.7961 29.0325 17.7961 29.1605 17.7961 29.2885C17.7961 30.5685 17.8601 30.4405 16.6441 30.4405C15.8761 30.5045 15.1081 30.5045 14.4041 30.4405C13.5721 30.4405 13.5721 30.4405 13.5721 29.6725C13.5721 28.7765 13.5721 27.8805 13.5721 26.9845C13.5721 26.2805 13.5081 26.2805 12.7401 26.2165C11.8441 26.2165 10.9481 26.2165 10.0521 26.2165C9.54006 26.2805 9.41217 26.0245 9.41217 25.5765C9.41217 23.3365 9.41217 21.1605 9.41217 18.9845C9.41217 17.7685 9.47611 17.8325 8.19611 17.8325C7.42811 17.8325 6.66007 17.8325 5.82807 17.8325C5.31607 17.8325 5.12405 18.0245 5.18805 18.5365C5.18805 19.4325 5.18805 20.3285 5.18805 21.2245C5.18805 23.9765 5.18805 26.7285 5.18805 29.4805C5.18805 30.4405 5.12409 30.4405 4.22809 30.4405C3.33209 30.5045 2.50015 30.4405 1.66815 30.5045C1.15615 30.5045 0.964139 30.3125 1.02814 29.8645C1.02814 29.6725 1.02814 29.4165 1.02814 29.2245V2.28047C1.02814 2.15247 0.964139 2.02447 1.02814 1.83247C1.02814 1.06447 1.02817 1.06447 1.86017 1.06447C4.03617 1.00047 6.14816 1.00047 8.32416 1.00047C9.41216 1.06447 9.41217 1.06447 9.41217 2.08847C9.41217 5.48047 9.41217 8.80847 9.41217 12.2005C9.41217 12.3925 9.41217 12.6485 9.41217 12.8405C9.41217 13.6725 9.41208 13.6725 10.2441 13.6725C11.1401 13.6725 12.0361 13.6725 12.9321 13.6725C13.4441 13.6725 13.5721 13.8645 13.5721 14.3125C13.5721 15.2725 13.5721 16.2325 13.5721 17.1925ZM17.8602 17.7685C17.8602 17.7685 17.8602 17.7685 17.8602 17.8325V17.7685Z" fill="#F13600"/>
<path d="M9.41217 2.08847C9.41217 1.06447 9.41216 1.06447 8.32416 1.00047C6.14816 1.00047 4.03617 1.00047 1.86017 1.06447C1.02817 1.06447 1.02814 1.06447 1.02814 1.83247C0.964139 2.02447 1.02814 2.15247 1.02814 2.28047V29.8645C0.972147 30.2564 1.11213 30.4522 1.4909 30.4951L1.66815 30.5045C2.50015 30.4405 3.33209 30.5045 4.22809 30.4405C5.0118 30.4405 5.15874 30.4404 5.18328 29.7978L5.18805 29.4805V18.5365C5.13217 18.0887 5.27219 17.8854 5.65105 17.8417L5.82807 17.8325H8.19611L8.6159 17.832C9.46107 17.8364 9.41218 17.9206 9.41217 18.9845V25.5765C9.41217 26.0245 9.54006 26.2805 10.0521 26.2165H12.7401C13.5081 26.2805 13.5721 26.2805 13.5721 26.9845V29.6725L13.5739 29.9257C13.5853 30.4404 13.6761 30.4405 14.4041 30.4405C15.1081 30.5045 15.8761 30.5045 16.6441 30.4405C17.7082 30.4405 17.7922 30.5385 17.7966 29.705L17.7961 28.8405C17.7961 25.1925 17.7962 21.4805 17.8602 17.8325H14.2121L14.0563 17.8261C13.7192 17.7947 13.5721 17.6406 13.5721 17.1925V14.3125C13.5721 13.9203 13.474 13.7244 13.1061 13.6816L12.9321 13.6725L12.9323 12.6728C13.2629 12.6728 13.7888 12.7245 14.1784 13.1464C14.5502 13.5492 14.5719 14.0547 14.572 14.3124V16.833H16.8141C16.8045 16.6659 16.7966 16.4859 16.7966 16.2968V2.21674C16.7966 1.93318 16.7916 1.63516 16.8083 1.41205C16.823 1.21458 16.8643 0.786398 17.1891 0.442326C17.5275 0.0839974 17.9655 0.0310189 18.1706 0.013615C18.3911 -0.00508751 18.6837 0.000918114 18.9479 0.000919718L18.9481 1.00047L18.5495 0.999943C17.7471 1.00519 17.7961 1.09644 17.7961 2.21647V16.2965L17.8063 16.6708C17.8244 17.0367 17.8602 17.3846 17.8602 17.7685C19.0122 17.8965 20.1001 17.8325 21.2521 17.8325L21.4323 17.8388C21.8232 17.8704 22.0121 18.0246 21.9561 18.4725V29.6085C21.9561 30.4405 21.9561 30.4405 22.8521 30.4405C25.0281 30.5045 27.2682 30.5045 29.4442 30.4405C30.228 30.4405 30.3263 30.4405 30.3386 29.7978L30.3402 29.4805V1.96047C30.3402 1.06447 30.3401 1.06447 29.3801 1.00047H18.9481L18.9479 0.000919718H29.4137L29.447 0.00287284C29.6646 0.0173781 29.9057 0.0317305 30.1032 0.0653728C30.2934 0.0977809 30.6416 0.175205 30.9274 0.460881C31.2257 0.759106 31.2939 1.11945 31.318 1.32416C31.3416 1.52373 31.3405 1.76251 31.3405 1.96088V29.4804C31.3405 29.6976 31.3416 29.9397 31.321 30.1386C31.3017 30.3243 31.2476 30.6942 30.9596 31.0029C30.6584 31.3256 30.2795 31.3952 30.0807 31.4189C29.8909 31.4415 29.6644 31.4395 29.4723 31.4394L29.4733 31.4404C27.2779 31.5049 25.0184 31.5049 22.8229 31.4404C22.6289 31.4404 22.4116 31.4404 22.2311 31.4218C22.055 31.4036 21.6918 31.352 21.3874 31.0693C21.0675 30.7722 21 30.3985 20.9772 30.208C20.9545 30.0175 20.9557 29.79 20.9557 29.6083V18.8349C20.287 18.8409 19.5769 18.8595 18.8464 18.8359C18.7983 22.1554 18.7966 25.5204 18.7966 28.8408V29.7109C18.7957 29.8475 18.7923 29.9765 18.7839 30.0859C18.7693 30.2744 18.7267 30.728 18.361 31.0722C18.0038 31.4085 17.5556 31.4311 17.3854 31.4394C17.1997 31.4484 16.9193 31.4401 16.6804 31.4394C15.8944 31.5024 15.1046 31.503 14.3679 31.4394C14.1908 31.4395 13.9896 31.4401 13.821 31.4228C13.6547 31.4057 13.2983 31.3565 12.9977 31.079C12.6808 30.7864 12.6145 30.419 12.5925 30.2363C12.5706 30.0544 12.5719 29.8383 12.572 29.6728V27.2167H10.0856C9.6904 27.2498 9.16453 27.1868 8.78094 26.7392C8.43334 26.3336 8.4118 25.8299 8.4118 25.5761V18.832C8.34751 18.8321 8.27697 18.833 8.19598 18.833H6.18816V29.4804C6.18816 29.7105 6.18541 29.9626 6.15301 30.1816C6.12047 30.4012 6.03583 30.7612 5.7282 31.0497C5.42631 31.3328 5.06896 31.3961 4.86883 31.4189C4.68021 31.4403 4.45892 31.4395 4.26726 31.4394C3.78996 31.4721 3.33447 31.4726 2.92449 31.4726C2.49398 31.4726 2.1161 31.4733 1.7448 31.5019L1.70672 31.5048H1.66863C1.34317 31.5048 0.820609 31.4545 0.425468 31.0595C0.0271097 30.6612 -0.00743932 30.1595 0.0280066 29.8115V2.3183C0.0238879 2.29238 0.0155805 2.23758 0.0104285 2.19135C-0.00370866 2.06412 -0.00848025 1.89917 0.0289832 1.70893C0.0294267 1.5676 0.0317354 1.40786 0.0485144 1.2685C0.0705655 1.08565 0.136877 0.718298 0.453788 0.425724C0.754367 0.148288 1.11079 0.0990311 1.27703 0.0819744C1.45722 0.0634939 1.67465 0.0643957 1.86004 0.0643963C4.04269 0.000754252 6.15988 0.000919713 8.3239 0.000919718H8.3532L8.3825 0.00189628C8.63175 0.0165582 8.89773 0.0310648 9.11394 0.0663494C9.32285 0.100484 9.6867 0.18112 9.98308 0.477482C10.2904 0.784832 10.3625 1.15814 10.3884 1.37885C10.4138 1.59589 10.4118 1.8583 10.4118 2.08881V12.6728H12.9323L12.9321 13.6725H10.2441L9.96941 13.6708C9.49174 13.6611 9.42349 13.5928 9.41375 13.1152L9.41217 12.8405V2.08847Z" fill="black"/>
</svg>
