<svg width="76" height="22" viewBox="0 0 76 22" fill="none" xmlns="http://www.w3.org/2000/svg">
<path d="M0 0.77897H2.87618L9.35541 12.7822V3.55258C9.35541 2.56903 9.28246 1.95529 9.13657 1.71137C8.94378 1.3809 8.63897 1.21567 8.22213 1.21567H7.85479V0.77897H11.5438V1.21567H11.1687C10.7206 1.21567 10.4027 1.42024 10.2151 1.8294C10.1005 2.08119 10.0432 2.65558 10.0432 3.55258V17.0429H9.76183L2.77458 4.15451V14.0097C2.77458 14.9932 2.84492 15.6069 2.9856 15.8509C3.1836 16.1813 3.48841 16.3466 3.90004 16.3466H4.2752V16.7833H0.586179V16.3466H0.953517C1.40683 16.3466 1.72727 16.142 1.91485 15.7328C2.02948 15.481 2.0868 14.9067 2.0868 14.0097V2.87983C1.77938 2.33691 1.54491 1.9789 1.38338 1.80579C1.22707 1.63269 0.995201 1.47139 0.687783 1.32189C0.536679 1.25107 0.307418 1.21567 0 1.21567V0.77897Z" fill="black"/>
<path d="M14.9796 5.65343C16.0634 5.65343 16.9335 6.27504 17.59 7.51824C18.1476 8.58047 18.4263 9.80007 18.4263 11.177C18.4263 12.1449 18.2726 13.1245 17.9652 14.1159C17.6578 15.1073 17.2331 15.8548 16.6912 16.3584C16.1546 16.8619 15.5554 17.1137 14.8936 17.1137C13.8151 17.1137 12.9579 16.4646 12.3223 15.1663C11.7856 14.0726 11.5172 12.8451 11.5172 11.4839C11.5172 10.4925 11.6788 9.50894 12.0018 8.53326C12.3301 7.54971 12.7599 6.82582 13.2914 6.36159C13.8229 5.88948 14.3856 5.65343 14.9796 5.65343ZM14.7373 6.4206C14.4612 6.4206 14.1824 6.5465 13.901 6.79828C13.6249 7.0422 13.4008 7.47496 13.2289 8.09657C13.0569 8.71817 12.971 9.51681 12.971 10.4925C12.971 12.0662 13.1768 13.4235 13.5884 14.5644C14.0052 15.7053 14.5523 16.2758 15.2297 16.2758C15.7351 16.2758 16.152 15.961 16.4802 15.3315C16.8085 14.7021 16.9726 13.6202 16.9726 12.0858C16.9726 10.166 16.6991 8.65522 16.152 7.55365C15.782 6.79828 15.3105 6.4206 14.7373 6.4206Z" fill="black"/>
<path d="M18.2825 5.9721H21.2838V6.4088C21.0076 6.44027 20.8252 6.51502 20.7367 6.63305C20.6533 6.75107 20.6116 6.92024 20.6116 7.14056C20.6116 7.38448 20.6559 7.67954 20.7445 8.02575L22.2763 14.2457L23.816 9.1824L23.4096 7.58906C23.2846 7.11695 23.1204 6.79042 22.9172 6.60944C22.8026 6.49928 22.589 6.4324 22.2763 6.4088V5.9721H25.684V6.4088C25.3088 6.4324 25.0431 6.53469 24.8868 6.71567C24.7826 6.84156 24.7305 7.0422 24.7305 7.3176C24.7305 7.47496 24.7513 7.63627 24.793 7.8015L26.4187 14.0097L27.9271 8.02575C28.0313 7.60086 28.0834 7.26252 28.0834 7.01073C28.0834 6.86123 28.0313 6.72747 27.9271 6.60944C27.8281 6.49142 27.6301 6.42454 27.3331 6.4088V5.9721H29.5919V6.4088C29.1385 6.51109 28.8051 6.97532 28.5914 7.8015L26.1998 17.1137H25.8794L24.0896 10.2092L22.0028 17.1137H21.7136L19.4158 8.02575C19.2647 7.45136 19.1162 7.06581 18.9703 6.8691C18.8244 6.66452 18.5951 6.51109 18.2825 6.4088V5.9721Z" fill="black"/>
<path d="M35.4318 9.28863V13.9506C35.4318 14.9578 35.5047 15.5833 35.6506 15.8273C35.8486 16.1735 36.1482 16.3466 36.5494 16.3466H36.9558V16.7833H32.4149V16.3466H32.8135C33.2616 16.3466 33.582 16.1263 33.7748 15.6856C33.879 15.4417 33.9311 14.8634 33.9311 13.9506V3.61159C33.9311 2.60443 33.8608 1.9789 33.7201 1.73498C33.5169 1.38877 33.2147 1.21567 32.8135 1.21567H32.4149V0.77897H36.2993C37.2476 0.77897 37.9953 0.928469 38.5424 1.22747C39.0895 1.5186 39.5506 2.01431 39.9258 2.71459C40.3009 3.41488 40.4885 4.24499 40.4885 5.20494C40.4885 6.51109 40.2019 7.57332 39.6288 8.39163C39.0609 9.20994 38.2558 9.6191 37.2137 9.6191C36.9584 9.6191 36.6823 9.59156 36.3853 9.53648C36.0883 9.4814 35.7704 9.39878 35.4318 9.28863ZM35.4318 8.61588C35.7079 8.69456 35.9528 8.75358 36.1664 8.79292C36.3801 8.83226 36.5624 8.85193 36.7135 8.85193C37.2554 8.85193 37.7218 8.5372 38.1125 7.90773C38.5085 7.27039 38.7065 6.44814 38.7065 5.44099C38.7065 4.74857 38.6128 4.1073 38.4252 3.51717C38.2376 2.91917 37.9719 2.47461 37.628 2.18348C37.2841 1.88448 36.8933 1.73498 36.4556 1.73498C36.1899 1.73498 35.8486 1.80973 35.4318 1.95923V8.61588Z" fill="black"/>
<path d="M43.2209 0V14.3401C43.2209 15.0168 43.2522 15.4653 43.3147 15.6856C43.3824 15.9059 43.484 16.0751 43.6195 16.1931C43.755 16.3033 44.0077 16.3584 44.3776 16.3584V16.7833H40.8684V16.3584C41.1966 16.3584 41.4207 16.3072 41.5405 16.2049C41.6604 16.1026 41.7541 15.9335 41.8219 15.6974C41.8896 15.4614 41.9235 15.0089 41.9235 14.3401V4.52039C41.9235 3.30079 41.9053 2.55329 41.8688 2.2779C41.8323 1.99464 41.7724 1.80186 41.689 1.69957C41.6109 1.59728 41.5093 1.54614 41.3842 1.54614C41.2487 1.54614 41.0768 1.60908 40.8684 1.73498L40.7355 1.32189L42.8692 0H43.2209Z" fill="black"/>
<path d="M48.4699 15.2253C47.7353 16.083 47.2741 16.5787 47.0866 16.7124C46.8052 16.9092 46.5056 17.0075 46.1877 17.0075C45.6927 17.0075 45.2837 16.7518 44.9607 16.2403C44.6428 15.7289 44.4839 15.0562 44.4839 14.2221C44.4839 13.6949 44.5621 13.2386 44.7184 12.853C44.932 12.318 45.302 11.8144 45.8282 11.3423C46.3597 10.8702 47.2403 10.2958 48.4699 9.6191V9.19421C48.4699 8.11624 48.3553 7.37661 48.126 6.97532C47.902 6.57403 47.5737 6.37339 47.1413 6.37339C46.813 6.37339 46.5525 6.50715 46.3597 6.77468C46.1617 7.0422 46.0627 7.34907 46.0627 7.69528L46.0783 8.37983C46.0783 8.74177 46.0158 9.0211 45.8907 9.21781C45.7709 9.41452 45.612 9.51288 45.414 9.51288C45.2212 9.51288 45.0623 9.41059 44.9372 9.20601C44.8174 9.00143 44.7575 8.7221 44.7575 8.36803C44.7575 7.69134 44.9867 7.06974 45.4453 6.50322C45.9038 5.9367 46.5473 5.65343 47.3757 5.65343C48.0114 5.65343 48.5325 5.81474 48.9389 6.13734C49.2463 6.38126 49.4729 6.76288 49.6188 7.28219C49.7126 7.62053 49.7595 8.31295 49.7595 9.35944V13.03C49.7595 14.0608 49.7726 14.6942 49.7986 14.9303C49.8247 15.1584 49.8663 15.3119 49.9237 15.3906C49.9862 15.4692 50.0565 15.5086 50.1347 15.5086C50.218 15.5086 50.291 15.481 50.3535 15.426C50.4629 15.3237 50.674 15.0365 50.9866 14.5644V15.2253C50.403 16.4056 49.8455 16.9957 49.314 16.9957C49.0587 16.9957 48.8555 16.8619 48.7044 16.5944C48.5533 16.3269 48.4751 15.8705 48.4699 15.2253ZM48.4699 14.4582V10.3391C47.6832 10.8112 47.1751 11.1456 46.9459 11.3423C46.5342 11.6885 46.2399 12.0504 46.0627 12.4281C45.8855 12.8058 45.797 13.2189 45.797 13.6674C45.797 14.2339 45.909 14.706 46.133 15.0837C46.3571 15.4535 46.615 15.6384 46.9068 15.6384C47.3028 15.6384 47.8238 15.245 48.4699 14.4582Z" fill="black"/>
<path d="M50.3191 5.9721H53.6564V6.4088H53.4923C53.2578 6.4088 53.0807 6.48748 52.9608 6.64485C52.8462 6.79435 52.7889 6.98319 52.7889 7.21137C52.7889 7.51824 52.8749 7.94313 53.0468 8.48605L54.7897 13.9388L56.3919 7.96674C56.4805 7.64413 56.5248 7.32547 56.5248 7.01073C56.5248 6.8691 56.5066 6.76288 56.4701 6.69206C56.4284 6.60551 56.3633 6.53863 56.2747 6.49142C56.1861 6.43634 56.0298 6.4088 55.8058 6.4088V5.9721H58.1348V6.4088C57.9421 6.44027 57.7936 6.50322 57.6894 6.59764C57.5851 6.69206 57.4705 6.8691 57.3455 7.12876C57.2986 7.23891 57.21 7.54185 57.0797 8.03755L54.1645 18.8251C53.8831 19.8716 53.5132 20.6624 53.0546 21.1974C52.6013 21.7325 52.1636 22 51.7416 22C51.4342 22 51.1815 21.8662 50.9835 21.5987C50.7855 21.3312 50.6865 21.0243 50.6865 20.6781C50.6865 20.3476 50.7568 20.0801 50.8975 19.8755C51.0434 19.6788 51.2414 19.5805 51.4915 19.5805C51.6634 19.5805 51.8979 19.667 52.1949 19.8401C52.4033 19.9582 52.5336 20.0172 52.5857 20.0172C52.742 20.0172 52.9113 19.8952 53.0937 19.6513C53.2813 19.4074 53.4689 18.9353 53.6564 18.235L54.1645 16.3584L51.5931 8.20279C51.5149 7.95887 51.3899 7.65594 51.2179 7.29399C51.0877 7.0186 50.9809 6.83369 50.8975 6.73927C50.7777 6.61338 50.5849 6.50322 50.3191 6.4088V5.9721Z" fill="black"/>
<path d="M59.7496 0C59.9684 0 60.1534 0.118026 60.3045 0.354077C60.4608 0.58226 60.539 0.861588 60.539 1.19206C60.539 1.52253 60.4608 1.80579 60.3045 2.04185C60.1534 2.2779 59.9684 2.39592 59.7496 2.39592C59.5307 2.39592 59.3432 2.2779 59.1868 2.04185C59.0305 1.80579 58.9524 1.52253 58.9524 1.19206C58.9524 0.861588 59.0279 0.58226 59.179 0.354077C59.3353 0.118026 59.5255 0 59.7496 0ZM60.3983 5.65343V14.3401C60.3983 15.0168 60.4295 15.4692 60.4921 15.6974C60.5598 15.9177 60.6562 16.083 60.7812 16.1931C60.9115 16.3033 61.146 16.3584 61.4847 16.3584V16.7833H58.0067V16.3584C58.3558 16.3584 58.5902 16.3072 58.7101 16.2049C58.8299 16.1026 58.9237 15.9335 58.9914 15.6974C59.0644 15.4614 59.1009 15.0089 59.1009 14.3401V10.1738C59.1009 9.00143 59.0774 8.24213 59.0305 7.89592C58.994 7.64413 58.9367 7.47103 58.8586 7.37661C58.7804 7.27432 58.6736 7.22318 58.5381 7.22318C58.3922 7.22318 58.2151 7.28219 58.0067 7.40021L57.8972 6.97532L60.0544 5.65343H60.3983Z" fill="black"/>
<path d="M63.6699 7.94313C64.5088 6.41667 65.3086 5.65343 66.0694 5.65343C66.4601 5.65343 66.7962 5.80293 67.0776 6.10193C67.3589 6.39306 67.583 6.87697 67.7497 7.55365C67.8644 8.02575 67.9217 8.74964 67.9217 9.72532V14.3401C67.9217 15.0247 67.9582 15.4889 68.0311 15.7328C68.0884 15.9295 68.1796 16.083 68.3047 16.1931C68.4349 16.3033 68.672 16.3584 69.0159 16.3584V16.7833H65.4754V16.3584H65.6239C65.9573 16.3584 66.1892 16.2836 66.3195 16.1341C66.4549 15.9768 66.5487 15.7486 66.6008 15.4496C66.6217 15.3315 66.6321 14.9617 66.6321 14.3401V9.91416C66.6321 8.93062 66.5461 8.21853 66.3742 7.7779C66.2074 7.3294 65.9235 7.10515 65.5223 7.10515C64.9022 7.10515 64.2848 7.6166 63.6699 8.63949V14.3401C63.6699 15.0719 63.6986 15.5243 63.7559 15.6974C63.8289 15.9256 63.9279 16.0948 64.0529 16.2049C64.1832 16.3072 64.4437 16.3584 64.8345 16.3584V16.7833H61.294V16.3584H61.4503C61.815 16.3584 62.0599 16.2207 62.1849 15.9453C62.3152 15.662 62.3803 15.127 62.3803 14.3401V10.3273C62.3803 9.02897 62.3595 8.2382 62.3178 7.95494C62.2813 7.67167 62.2214 7.4789 62.1381 7.37661C62.0599 7.27432 61.9531 7.22318 61.8176 7.22318C61.6717 7.22318 61.4972 7.28219 61.294 7.40021L61.1767 6.97532L63.3339 5.65343H63.6699V7.94313Z" fill="black"/>
<path d="M70.701 12.8412C70.2633 12.5186 69.9272 12.0701 69.6927 11.4957C69.4582 10.9134 69.341 10.2722 69.341 9.57189C69.341 8.50179 69.6067 7.58119 70.1382 6.81009C70.6749 6.03898 71.3601 5.65343 72.1937 5.65343C72.8763 5.65343 73.4677 5.90522 73.9679 6.4088H75.4842C75.7082 6.4088 75.8385 6.4206 75.875 6.44421C75.9114 6.45994 75.9375 6.49142 75.9531 6.53863C75.9844 6.60944 76 6.73534 76 6.91631C76 7.12089 75.987 7.26252 75.9609 7.3412C75.9453 7.38054 75.9166 7.41202 75.875 7.43562C75.8385 7.45923 75.7082 7.47103 75.4842 7.47103H74.5541C74.8459 8.03755 74.9918 8.76145 74.9918 9.6427C74.9918 10.6499 74.7365 11.5114 74.2258 12.2275C73.7152 12.9435 73.03 13.3015 72.1703 13.3015C71.816 13.3015 71.4539 13.2228 71.0839 13.0655C70.8547 13.3644 70.6983 13.628 70.615 13.8562C70.5368 14.0765 70.4977 14.2654 70.4977 14.4227C70.4977 14.5565 70.5394 14.6863 70.6228 14.8122C70.7114 14.9381 70.8807 15.0286 71.1308 15.0837C71.2767 15.1152 71.6414 15.1427 72.225 15.1663C73.2984 15.2057 73.994 15.2607 74.3118 15.3315C74.7964 15.4338 75.182 15.7053 75.4685 16.1459C75.7603 16.5866 75.9062 17.1295 75.9062 17.7747C75.9062 18.6638 75.6301 19.4979 75.0778 20.2768C74.2649 21.4256 73.2046 22 71.8968 22C70.8911 22 70.0418 21.6577 69.3488 20.9732C68.958 20.5798 68.7626 20.1706 68.7626 19.7457C68.7626 19.5569 68.7913 19.368 68.8486 19.1792C68.9372 18.8881 69.1196 18.4828 69.3957 17.9635C69.4322 17.8927 69.6979 17.4678 70.1929 16.6888C69.922 16.4449 69.7292 16.2285 69.6146 16.0397C69.5051 15.843 69.4504 15.6227 69.4504 15.3788C69.4504 15.1034 69.5234 14.7808 69.6693 14.4109C69.8204 14.0411 70.1643 13.5179 70.701 12.8412ZM72.0609 6.21996C71.6753 6.21996 71.3523 6.45207 71.0917 6.91631C70.8312 7.38054 70.701 8.09263 70.701 9.05258C70.701 10.2958 70.8781 11.2597 71.2324 11.9442C71.5034 12.4635 71.8473 12.7232 72.2641 12.7232C72.6601 12.7232 72.9857 12.4989 73.2411 12.0504C73.4964 11.6019 73.624 10.8977 73.624 9.93777C73.624 8.6867 73.4443 7.70708 73.0847 6.99893C72.819 6.47961 72.4777 6.21996 72.0609 6.21996ZM70.6228 16.7833C70.3779 17.1845 70.1929 17.5583 70.0679 17.9045C69.9428 18.2507 69.8803 18.5694 69.8803 18.8605C69.8803 19.2382 70.0314 19.5687 70.3336 19.8519C70.8547 20.3398 71.6076 20.5837 72.5924 20.5837C73.5302 20.5837 74.2206 20.3319 74.6635 19.8283C75.1116 19.3326 75.3357 18.8015 75.3357 18.235C75.3357 17.8258 75.2028 17.5347 74.9371 17.3616C74.6661 17.1885 74.1294 17.0862 73.327 17.0547C72.1547 17.0075 71.2533 16.917 70.6228 16.7833Z" fill="black"/>
</svg>
