<svg width="26" height="25" viewBox="0 0 26 25" fill="none" xmlns="http://www.w3.org/2000/svg">
<path d="M13 0.5C15.09 0.5 17.1812 0.512568 18.7998 0.537109C19.6087 0.549375 20.3025 0.564458 20.8193 0.583008C21.0772 0.592265 21.2948 0.602071 21.4619 0.613281C21.61 0.623219 21.7655 0.63686 21.8662 0.662109L21.8701 0.663086C22.7437 0.889597 23.4119 1.26243 24.0654 1.90332C24.6372 2.46415 25.0007 3.03749 25.2383 3.74902L25.333 4.0625L25.334 4.06641L25.3652 4.24902C25.3732 4.3173 25.3787 4.39115 25.3838 4.46191C25.3953 4.62253 25.4056 4.83043 25.415 5.07617C25.434 5.56879 25.4504 6.22793 25.4629 6.99609C25.4879 8.53369 25.5 10.5188 25.5 12.502C25.5 14.485 25.4879 16.4693 25.4629 18.0068C25.4504 18.7752 25.434 19.435 25.415 19.9277C25.4056 20.1735 25.3953 20.3814 25.3838 20.542C25.3737 20.6836 25.3602 20.8357 25.334 20.9365L25.333 20.9404C25.1008 21.8018 24.719 22.4596 24.0654 23.1006C23.412 23.7414 22.7437 24.1143 21.8701 24.3408V24.3398C21.7684 24.3663 21.6108 24.3799 21.4648 24.3896C21.2982 24.4008 21.0805 24.4108 20.8223 24.4199C20.3049 24.4382 19.6097 24.4529 18.7979 24.4648C17.173 24.4887 15.0713 24.5006 12.9717 24.5C10.872 24.4994 8.7718 24.487 7.15039 24.4629C6.34033 24.4508 5.64738 24.4359 5.13281 24.418C4.87609 24.409 4.66003 24.3994 4.49512 24.3887C4.35165 24.3793 4.19485 24.3665 4.09473 24.3408L4.08984 24.3389C3.24215 24.1112 2.5757 23.7293 1.93457 23.1006C1.281 22.4596 0.899172 21.8018 0.666992 20.9404L0.666016 20.9365C0.639771 20.8357 0.626344 20.6836 0.616211 20.542C0.604726 20.3814 0.59441 20.1735 0.584961 19.9277C0.566024 19.435 0.549618 18.7752 0.537109 18.0068C0.51208 16.4693 0.500001 14.485 0.5 12.502C0.5 10.5188 0.512079 8.53369 0.537109 6.99609C0.549616 6.22793 0.56603 5.56879 0.584961 5.07617C0.594406 4.83043 0.604732 4.62253 0.616211 4.46191C0.626355 4.32008 0.639713 4.16725 0.666016 4.06641L0.666992 4.0625C0.899149 3.20127 1.28113 2.54423 1.93457 1.90332C2.58805 1.26243 3.25628 0.889597 4.12988 0.663086L4.13379 0.662109C4.23445 0.63686 4.38998 0.623219 4.53809 0.613281C4.70522 0.602071 4.92281 0.592265 5.18066 0.583008C5.69752 0.564458 6.39128 0.549375 7.2002 0.537109C8.81875 0.512568 10.91 0.5 13 0.5ZM11.4111 9.19727C11.4111 12.7564 11.4283 14.4565 11.334 15.248C11.3098 15.4507 11.2747 15.6356 11.2119 15.79C11.1446 15.9555 11.0309 16.1202 10.8369 16.2197C10.6633 16.3088 10.4894 16.3098 10.3955 16.3076C10.3457 16.3065 10.2897 16.3029 10.251 16.3008C10.2115 16.2986 10.1761 16.2971 10.1406 16.2969V21.6201H15.4062V16.2979C15.3874 16.2985 15.3678 16.2997 15.3467 16.3008C15.3094 16.3027 15.2559 16.3051 15.2061 16.3057C15.1113 16.3068 14.9346 16.3032 14.7607 16.2041C14.573 16.0969 14.4694 15.9283 14.4092 15.7686C14.3518 15.6162 14.3194 15.4332 14.2969 15.2305C14.2089 14.437 14.2256 12.7401 14.2256 9.19727V3.38379H11.4111V9.19727ZM19.584 9.19727C19.584 12.0087 19.5792 13.5988 19.5586 14.501C19.5484 14.9487 19.5341 15.2451 19.5117 15.4414C19.5006 15.5386 19.4851 15.6321 19.46 15.7158C19.435 15.799 19.389 15.9137 19.2891 16.0117C19.1265 16.1711 18.9236 16.2307 18.7402 16.2598C18.5575 16.2887 18.3229 16.2969 18.0303 16.2969H17.7676V21.6221L19.377 21.6016L21.3711 21.5762L21.8154 21.3594L21.8164 21.3584C21.8897 21.3228 21.9567 21.2933 22.0127 21.2695C22.0725 21.2441 22.1114 21.228 22.1484 21.2109C22.2134 21.181 22.2259 21.1689 22.2275 21.167C22.2348 21.1592 22.3106 21.0709 22.3623 20.54C22.4625 19.51 22.4434 17.3442 22.4434 12.502C22.4434 7.65964 22.4625 5.49397 22.3623 4.46387C22.3109 3.93491 22.2353 3.84541 22.2275 3.83691C22.2268 3.83616 22.217 3.82365 22.1484 3.79199C22.1115 3.77494 22.0724 3.75877 22.0127 3.7334C21.9567 3.70962 21.8897 3.68014 21.8164 3.64453H21.8154C21.5735 3.52588 21.4684 3.48476 21.3086 3.45801C21.1188 3.42627 20.85 3.41502 20.2793 3.40137H20.2773L19.584 3.37988V9.19727ZM5.59961 3.38379C4.89513 3.38379 4.62584 3.42663 4.33398 3.53125C4.06751 3.62779 3.94423 3.70364 3.85352 3.79199C3.75602 3.88709 3.65787 4.03544 3.50977 4.35156L3.3291 4.74609L3.32031 12.4844L3.31152 20.2119L3.51074 20.6465L3.51172 20.6475C3.74837 21.1655 3.89741 21.3282 4.17969 21.4336C4.54988 21.5717 5.17035 21.6156 6.44531 21.6201H7.77832V16.2969H7.56055C7.28973 16.2969 7.06467 16.288 6.88574 16.2588C6.71865 16.2315 6.50961 16.1743 6.34766 16.0107C6.34468 16.0078 6.34175 16.0049 6.33887 16.002C6.33696 16 6.3349 15.9981 6.33301 15.9961V15.9951C6.24361 15.9008 6.20044 15.7946 6.17676 15.7158C6.15161 15.6321 6.13611 15.5386 6.125 15.4414C6.10258 15.2451 6.08835 14.9487 6.07812 14.501C6.05754 13.5988 6.05273 12.0087 6.05273 9.19727V3.38379H5.59961Z" fill="white" stroke="black"/>
</svg>
