<svg width="20" height="22" viewBox="0 0 20 22" fill="none" xmlns="http://www.w3.org/2000/svg">
<rect x="0.706802" y="1.375" width="5.65439" height="18.5625" fill="white"/>
<rect x="13.4292" y="1.375" width="5.65439" height="18.5625" fill="white"/>
<path d="M14.4421 2.19848V19.4929H18.3673V2.19848H14.4421ZM19.9207 19.4929C19.9207 20.3273 19.2252 21.0039 18.3673 21.0039H14.4421C13.5842 21.0039 12.8888 20.3273 12.8887 19.4929V2.19848C12.8887 1.36399 13.5842 0.6875 14.4421 0.6875H18.3673C19.2252 0.6875 19.9207 1.36399 19.9207 2.19848V19.4929Z" fill="black"/>
<path d="M1.5534 2.19848V19.4929H5.47861V2.19848H1.5534ZM7.03201 19.4929C7.03194 20.3273 6.33648 21.0039 5.47861 21.0039H1.5534C0.695523 21.0039 7.20518e-05 20.3273 0 19.4929V2.19848C1.5012e-07 1.36399 0.69548 0.6875 1.5534 0.6875H5.47861C6.33653 0.6875 7.03201 1.36399 7.03201 2.19848V19.4929Z" fill="black"/>
</svg>
