<svg width="76" height="73" viewBox="0 0 76 73" fill="none" xmlns="http://www.w3.org/2000/svg">
<mask id="path-1-inside-1_120_138" fill="white">
<path fill-rule="evenodd" clip-rule="evenodd" d="M74.031 34.2449C75.5469 34.9701 75.5469 37.1282 74.031 37.8533L2.86581 71.8968C1.34271 72.6254 -0.342177 71.2554 0.0604299 69.6157L6.17638 44.7071C6.36069 43.9565 6.96106 43.3792 7.71838 43.2245L38.028 37.0326C39.0944 36.8146 39.0944 35.2905 38.028 35.0726L7.72031 28.8806C6.96301 28.7259 6.36265 28.1487 6.17834 27.398L0.0604488 2.48168C-0.342162 0.841958 1.34274 -0.528047 2.86585 0.200586L74.031 34.2449Z"/>
</mask>
<path fill-rule="evenodd" clip-rule="evenodd" d="M74.031 34.2449C75.5469 34.9701 75.5469 37.1282 74.031 37.8533L2.86581 71.8968C1.34271 72.6254 -0.342177 71.2554 0.0604299 69.6157L6.17638 44.7071C6.36069 43.9565 6.96106 43.3792 7.71838 43.2245L38.028 37.0326C39.0944 36.8146 39.0944 35.2905 38.028 35.0726L7.72031 28.8806C6.96301 28.7259 6.36265 28.1487 6.17834 27.398L0.0604488 2.48168C-0.342162 0.841958 1.34274 -0.528047 2.86585 0.200586L74.031 34.2449Z" fill="url(#paint0_linear_120_138)"/>
<path fill-rule="evenodd" clip-rule="evenodd" d="M38.028 37.0326L38.4283 38.9921L38.4285 38.9921L38.028 37.0326ZM38.028 35.0726L38.4284 33.1131L38.4284 33.1131L38.028 35.0726ZM7.71838 43.2245L8.11869 45.184L7.71838 43.2245ZM2.86581 71.8968L2.00274 70.0926L2.86581 71.8968ZM0.0604299 69.6157L2.00274 70.0926L0.0604299 69.6157ZM7.72031 28.8806L7.31997 30.8402L7.72031 28.8806ZM6.17834 27.398L4.23603 27.8749L6.17834 27.398ZM74.031 37.8533L74.894 39.6575V39.6575L74.031 37.8533ZM74.031 37.8533L73.1679 36.0491L2.00274 70.0926L2.86581 71.8968L3.72889 73.701L74.894 39.6575L74.031 37.8533ZM0.0604299 69.6157L2.00274 70.0926L8.11869 45.184L6.17638 44.7071L4.23407 44.2302L-1.88188 69.1388L0.0604299 69.6157ZM7.71838 43.2245L8.11869 45.184L38.4283 38.9921L38.028 37.0326L37.6277 35.073L7.31806 41.265L7.71838 43.2245ZM38.028 37.0326L38.4285 38.9921C41.6274 38.3383 41.6277 33.7668 38.4284 33.1131L38.028 35.0726L37.6276 37.0321C36.5611 36.8142 36.5613 35.291 37.6276 35.0731L38.028 37.0326ZM38.028 35.0726L38.4284 33.1131L8.12064 26.9211L7.72031 28.8806L7.31997 30.8402L37.6277 37.0321L38.028 35.0726ZM6.17834 27.398L8.12064 26.9211L2.00276 2.00477L0.0604488 2.48168L-1.88186 2.95858L4.23603 27.8749L6.17834 27.398ZM2.86585 0.200586L2.00276 2.00477L73.1679 36.0491L74.031 34.2449L74.8941 32.4408L3.72894 -1.60359L2.86585 0.200586ZM6.17638 44.7071L8.11869 45.184V45.184L7.71838 43.2245L7.31806 41.265C5.80344 41.5744 4.6027 42.7289 4.23407 44.2302L6.17638 44.7071ZM0.0604488 2.48168L2.00276 2.00477V2.00477L2.86585 0.200586L3.72894 -1.60359C0.682727 -3.06086 -2.68708 -0.320851 -1.88186 2.95858L0.0604488 2.48168ZM2.86581 71.8968L2.00274 70.0926H2.00274L0.0604299 69.6157L-1.88188 69.1388C-2.68709 72.4182 0.682674 75.1582 3.72889 73.701L2.86581 71.8968ZM7.72031 28.8806L8.12064 26.9211H8.12064L6.17834 27.398L4.23603 27.8749C4.60465 29.3762 5.80537 30.5307 7.31997 30.8402L7.72031 28.8806ZM74.031 37.8533L74.894 39.6575C77.9258 38.2072 77.9258 33.8911 74.8941 32.4408L74.031 34.2449L73.1679 36.0491L73.1679 36.0491L74.031 37.8533Z" fill="black" mask="url(#path-1-inside-1_120_138)"/>
<defs>
<linearGradient id="paint0_linear_120_138" x1="37.5839" y1="0" x2="37.5839" y2="72.0974" gradientUnits="userSpaceOnUse">
<stop stop-color="white"/>
<stop offset="1" stop-color="#91E53E"/>
</linearGradient>
</defs>
</svg>
