<svg width="23" height="32" viewBox="0 0 23 32" fill="none" xmlns="http://www.w3.org/2000/svg">
<path d="M21.9398 14.056C21.9398 14.312 21.9398 14.504 21.9398 14.696C21.9398 19.624 21.9398 24.488 21.9398 29.352C21.9398 29.544 21.9398 29.736 21.9398 29.928C21.9398 30.312 21.8118 30.504 21.3638 30.44C21.1718 30.44 20.9158 30.44 20.7238 30.44C15.9238 30.44 11.1878 30.44 6.38777 30.44C6.25977 30.44 6.13174 30.44 6.00374 30.44C5.17174 30.44 5.17183 30.44 5.17183 29.608C5.17183 28.712 5.10783 27.816 5.17183 26.92C5.17183 26.408 4.97985 26.216 4.46785 26.216C3.50785 26.28 2.54784 26.216 1.58784 26.216C1.13984 26.216 0.947792 26.088 1.01179 25.704C1.01179 24.68 1.01179 23.656 1.01179 22.632C0.947792 22.248 1.07576 22.056 1.52376 22.056C3.95576 22.056 6.38778 22.056 8.81978 22.056C9.26778 22.056 9.39583 22.312 9.39583 22.696C9.39583 23.592 9.39583 24.552 9.39583 25.448C9.39583 26.024 9.45981 26.28 10.0998 26.216C10.9958 26.216 11.9558 26.216 12.9158 26.216C13.4278 26.28 13.5557 26.024 13.5557 25.576C13.5557 24.616 13.5557 23.656 13.5557 22.76C13.5557 22.248 13.7478 22.056 14.2598 22.056C15.2198 22.056 16.1798 22.056 17.1398 22.056C17.7158 22.056 17.7799 21.8 17.7799 21.352C17.7799 20.392 17.7799 19.496 17.7799 18.536C17.8439 17.96 17.5878 17.832 17.0118 17.832C14.3878 17.832 11.6998 17.832 9.07576 17.832C7.98776 17.832 6.89984 17.832 5.81184 17.832C5.36384 17.832 5.10783 17.64 5.17183 17.128C5.17183 16.232 5.10783 15.272 5.17183 14.376C5.17183 13.864 5.04385 13.608 4.46785 13.672C3.63585 13.672 2.73979 13.672 1.90779 13.672C1.01179 13.672 1.01179 13.672 1.01179 12.648C1.01179 9.64 1.01179 6.632 1.01179 3.624C1.01179 2.984 1.01179 2.344 1.01179 1.704C0.947792 1.192 1.13981 1 1.65181 1C3.31581 1.064 4.91582 1 6.51582 1C8.17982 1 9.8438 1 11.4438 1C14.6438 1 17.8438 1 21.0438 1C21.9398 1 21.9398 1.064 21.9398 1.896C21.9398 4.2 21.9398 6.44 21.9398 8.68C21.9398 9.256 21.7478 9.448 21.2358 9.448C20.3398 9.384 19.4438 9.384 18.5478 9.448C17.9718 9.448 17.7799 9.256 17.7799 8.68C17.8439 7.784 17.7799 6.824 17.7799 5.928C17.7799 5.48 17.6518 5.288 17.2038 5.288C14.7718 5.288 12.4038 5.288 9.97175 5.288C9.58775 5.288 9.39583 5.416 9.39583 5.8C9.39583 6.824 9.39583 7.912 9.39583 8.936C9.39583 9.32 9.58779 9.448 9.90779 9.448C10.8678 9.448 11.8918 9.448 12.8518 9.448C13.4278 9.384 13.5557 9.64 13.5557 10.152C13.5557 11.048 13.5557 11.944 13.5557 12.84C13.5557 13.608 13.5558 13.672 14.3238 13.672C16.4998 13.672 18.6758 13.672 20.7878 13.672C21.0438 13.672 21.2997 13.672 21.5557 13.672C21.8117 13.672 21.9398 13.8 21.9398 14.056Z" fill="white"/>
<path d="M4.17213 29.6084C4.17213 28.9211 4.12429 28.0599 4.15455 27.2334C3.26723 27.2655 2.34494 27.2158 1.58815 27.2158C1.33957 27.2158 0.856803 27.1959 0.468029 26.8721C0.0222454 26.5006 -0.0254552 25.995 0.0119746 25.6455V22.6709C-0.0194564 22.3829 -0.0101198 21.9412 0.307873 21.5596C0.679228 21.1142 1.20999 21.0557 1.52369 21.0557L1.52376 22.056C1.07576 22.056 0.947792 22.248 1.01179 22.632V25.704C0.947792 26.088 1.13984 26.216 1.58784 26.216C2.54784 26.216 3.50785 26.28 4.46785 26.216C4.97985 26.216 5.17183 26.408 5.17183 26.92C5.10783 27.816 5.17183 28.712 5.17183 29.608L5.17311 29.8828C5.18285 30.3603 5.25141 30.4287 5.72877 30.4385L6.00374 30.44H21.3638C21.8118 30.504 21.9398 30.312 21.9398 29.928V14.056C21.9397 13.8322 21.8417 13.7057 21.6458 13.6777L21.5557 13.672L21.5559 12.6719C21.838 12.6719 22.2334 12.743 22.551 13.0605C22.8686 13.3781 22.9397 13.7735 22.9397 14.0557V29.9277C22.9397 30.1661 22.9144 30.6707 22.5266 31.0586C22.1391 31.4462 21.6483 31.4742 21.3147 31.4404H6.00416C5.82061 31.4404 5.59775 31.4415 5.41237 31.4209C5.23434 31.4011 4.86844 31.3429 4.56862 31.043C4.26884 30.7431 4.21045 30.3772 4.19069 30.1992C4.17014 30.014 4.17213 29.7918 4.17213 29.6084ZM8.81959 21.0557L8.81978 22.056H1.52376L1.52369 21.0557H8.81959ZM21.5559 12.6719L21.5557 13.672H20.7878L20.7874 12.6719H21.5559ZM11.4436 0L11.4438 1H6.51582L6.51588 0H11.4436ZM21.0442 0L21.0438 1H11.4438L11.4436 0H21.0442ZM13.5491 25.7344C13.5177 26.0828 13.3637 26.2719 12.9158 26.216H10.0998C9.53998 26.272 9.42072 26.0831 9.39967 25.6494L9.39583 25.448V22.696C9.39583 22.312 9.26778 22.056 8.81978 22.056L8.81959 21.0557C9.23604 21.0557 9.72325 21.1835 10.0618 21.6143C10.359 21.9924 10.3958 22.4307 10.3958 22.6963V25.2158H12.5559V22.7598C12.5559 22.4206 12.6113 21.9064 13.009 21.5088C13.4068 21.1112 13.921 21.0557 14.26 21.0557L14.2598 22.056L14.0823 22.0654C13.7028 22.1093 13.5558 22.3123 13.5557 22.76V25.576L13.5491 25.7344ZM17.7799 21.352C17.7799 21.7441 17.7308 21.9889 17.3323 22.0439L17.1398 22.056H14.2598L14.26 21.0557H16.7796V18.832H5.81178C5.48247 18.832 4.98142 18.7673 4.59303 18.3789C4.20645 17.9923 4.13758 17.4977 4.17115 17.0957C4.1697 16.405 4.12321 15.5038 4.15455 14.6719H1.90748C1.71143 14.6719 1.46772 14.6743 1.26393 14.6484C1.05306 14.6217 0.668989 14.5423 0.37135 14.2021C0.0984734 13.8902 0.0486435 13.5232 0.0305293 13.3369C0.0107102 13.1331 0.0119732 12.8829 0.0119746 12.6484V1.74512C-0.0203557 1.3999 0.00143343 0.890469 0.383068 0.479492C0.78327 0.0485563 1.32861 1.9578e-05 1.65162 0H1.67115L1.69069 0.000976562C3.3323 0.0640929 4.8606 0 6.51588 0L6.51582 1L4.10768 1.02441C3.29972 1.03241 2.48375 1.032 1.65181 1C1.13981 1 0.947792 1.192 1.01179 1.704V12.648L1.01393 12.9863C1.0262 13.6719 1.12421 13.672 1.90779 13.672H4.46785C5.04385 13.608 5.17183 13.864 5.17183 14.376C5.10783 15.272 5.17183 16.232 5.17183 17.128C5.1158 17.5762 5.30506 17.7786 5.65358 17.8223L5.81184 17.832H17.0118C17.5878 17.832 17.8439 17.96 17.7799 18.536V21.352ZM17.7799 5.928C17.7799 6.824 17.8439 7.784 17.7799 8.68C17.7799 9.18416 17.9269 9.39394 18.3499 9.43848L18.5478 9.448C19.2197 9.40002 19.8918 9.38812 20.5637 9.41211L21.2358 9.448C21.7478 9.448 21.9398 9.256 21.9398 8.68V1.896C21.9398 1.16782 21.9398 1.02748 21.3391 1.00391L21.0438 1L21.0442 0C21.2593 3.00462e-06 21.5002 0.00235775 21.7112 0.0341797C21.9235 0.0662238 22.2758 0.150794 22.5588 0.454102C22.836 0.75122 22.8974 1.10046 22.9192 1.29199C22.9411 1.48471 22.9397 1.71222 22.9397 1.89648V8.67969C22.9397 9.02569 22.8939 9.55145 22.511 9.96191C22.1086 10.393 21.5735 10.4482 21.2356 10.4482H21.2005L21.1643 10.4453C20.316 10.3847 19.4678 10.3847 18.6194 10.4453L18.5833 10.4482H18.5481C18.2047 10.4482 17.657 10.4039 17.2405 9.9873C16.824 9.57073 16.7796 9.02303 16.7796 8.67969V8.64453L16.7825 8.6084C16.8359 7.85947 16.7966 7.12782 16.7854 6.28809H10.3958V8.44824H12.8137C13.2081 8.41543 13.7688 8.46024 14.1751 8.92871C14.5419 9.35205 14.5559 9.89069 14.5559 10.1523V12.6719H20.7874L20.7878 13.672H14.3238C13.6523 13.672 13.5674 13.623 13.5569 13.0967L13.5557 12.84V10.152C13.5557 9.64 13.4278 9.384 12.8518 9.448H9.90779L9.7942 9.44141C9.54294 9.41172 9.39583 9.2721 9.39583 8.936V5.8C9.39588 5.46398 9.54295 5.3236 9.83717 5.29395L9.97175 5.288H17.2038C17.6518 5.288 17.7799 5.48 17.7799 5.928Z" fill="black"/>
</svg>
