<svg width="157" height="37" viewBox="0 0 157 37" fill="none" xmlns="http://www.w3.org/2000/svg">
<path d="M7.93359 0.678888C9.99609 0.678888 11.7812 1.97847 13.2891 4.57764C14.8047 7.16388 15.5625 10.3967 15.5625 14.276C15.5625 18.2718 14.8008 21.5886 13.2773 24.2266C11.7539 26.8646 9.91016 28.1835 7.74609 28.1835C5.55859 28.1835 3.71875 26.8969 2.22656 24.3236C0.742188 21.7503 0 18.4205 0 14.3342C0 10.1575 0.859375 6.75008 2.57812 4.11212C4.07031 1.8233 5.85547 0.678888 7.93359 0.678888ZM7.71094 2.09485C6.28906 2.09485 5.14844 2.96771 4.28906 4.71342C3.21875 6.88586 2.68359 10.0669 2.68359 14.2566C2.68359 18.5498 3.23828 21.8537 4.34766 24.1684C5.19922 25.927 6.32422 26.8064 7.72266 26.8064C9.21484 26.8064 10.4453 25.843 11.4141 23.9162C12.3906 21.9895 12.8789 18.9507 12.8789 14.7998C12.8789 10.2997 12.3438 6.94405 11.2734 4.73282C10.4141 2.97417 9.22656 2.09485 7.71094 2.09485Z" fill="black"/>
<path d="M15.2766 11.5799L18.5812 9.36865H19.0266V13.5196C19.5812 11.9549 20.1359 10.8622 20.6906 10.2415C21.2531 9.60788 21.843 9.29106 22.4602 9.29106C23.5383 9.29106 24.4367 9.98935 25.1555 11.3859C26.0383 13.0928 26.4797 15.317 26.4797 18.0584C26.4797 21.1231 25.9484 23.6576 24.8859 25.662C24.0109 27.3042 22.9094 28.1254 21.5812 28.1254C21.0031 28.1254 20.5031 27.9896 20.0812 27.718C19.7687 27.5241 19.4172 27.1361 19.0266 26.5542V31.9659C19.0266 33.1815 19.0695 33.9509 19.1555 34.2741C19.2492 34.6103 19.4055 34.8754 19.6242 35.0694C19.8508 35.2634 20.257 35.3604 20.843 35.3604V36.078H15.218V35.3604H15.5109C15.9406 35.3733 16.3078 35.2375 16.6125 34.953C16.7609 34.8108 16.8742 34.578 16.9523 34.2547C17.0383 33.9444 17.0812 33.1427 17.0812 31.8495V15.0519C17.0812 13.901 17.05 13.1704 16.9875 12.8601C16.925 12.5497 16.8234 12.317 16.6828 12.1618C16.55 12.0066 16.3664 11.929 16.132 11.929C15.9445 11.929 15.7062 12.0195 15.4172 12.2006L15.2766 11.5799ZM19.0266 14.664V21.2977C19.0266 22.733 19.0617 23.677 19.132 24.1296C19.2414 24.8796 19.507 25.5391 19.9289 26.1081C20.3586 26.6771 20.8977 26.9615 21.5461 26.9615C22.3273 26.9615 22.9602 26.4572 23.4445 25.4486C24.0773 24.1296 24.3937 22.274 24.3937 19.8817C24.3937 17.1662 24.0344 15.0778 23.3156 13.6165C22.8156 12.6079 22.2219 12.1036 21.5344 12.1036C21.1594 12.1036 20.7883 12.2588 20.4211 12.5691C20.1398 12.8019 19.675 13.5002 19.0266 14.664Z" fill="black"/>
<path d="M28.6547 16.5067C28.6469 19.1446 29.0336 21.2136 29.8148 22.7136C30.5961 24.2137 31.5141 24.9637 32.5687 24.9637C33.2719 24.9637 33.8812 24.6469 34.3969 24.0132C34.9203 23.3667 35.3578 22.2675 35.7094 20.7158L36.0727 21.1037C35.9086 22.8753 35.432 24.4917 34.643 25.9529C33.8539 27.4012 32.8656 28.1254 31.6781 28.1254C30.3891 28.1254 29.2836 27.2978 28.3617 25.6426C27.4477 23.9744 26.9906 21.7373 26.9906 18.9313C26.9906 15.8924 27.4594 13.526 28.3969 11.832C29.3422 10.1251 30.5258 9.27167 31.9477 9.27167C33.1508 9.27167 34.1391 9.93116 34.9125 11.2501C35.6859 12.5562 36.0727 14.3084 36.0727 16.5067H28.6547ZM28.6547 15.3817H33.6234C33.5844 14.2437 33.5023 13.442 33.3773 12.9765C33.182 12.2523 32.8891 11.6833 32.4984 11.2695C32.1156 10.8557 31.7133 10.6488 31.2914 10.6488C30.643 10.6488 30.0609 11.0691 29.5453 11.9096C29.0375 12.7372 28.7406 13.8946 28.6547 15.3817Z" fill="black"/>
<path d="M39.443 13.054C40.7008 10.5454 41.9 9.29106 43.0406 9.29106C43.6266 9.29106 44.1305 9.53676 44.5523 10.0281C44.9742 10.5066 45.3102 11.3019 45.5602 12.4139C45.732 13.1898 45.818 14.3795 45.818 15.983V23.5671C45.818 24.6921 45.8727 25.4551 45.982 25.8559C46.068 26.1792 46.2047 26.4314 46.3922 26.6124C46.5875 26.7934 46.943 26.884 47.4586 26.884V27.5822H42.15V26.884H42.3727C42.8727 26.884 43.2203 26.7611 43.4156 26.5154C43.6188 26.2568 43.7594 25.8818 43.8375 25.3904C43.8688 25.1964 43.8844 24.5887 43.8844 23.5671V16.2933C43.8844 14.6769 43.7555 13.5066 43.4977 12.7825C43.2477 12.0454 42.8219 11.6769 42.2203 11.6769C41.2906 11.6769 40.3648 12.5174 39.443 14.1985V23.5671C39.443 24.7697 39.4859 25.5133 39.5719 25.7977C39.6813 26.1727 39.8297 26.4508 40.0172 26.6318C40.2125 26.7999 40.6031 26.884 41.1891 26.884V27.5822H35.8805V26.884H36.1148C36.6617 26.884 37.0289 26.6577 37.2164 26.2051C37.4117 25.7395 37.5094 24.8602 37.5094 23.5671V16.9722C37.5094 14.8385 37.4781 13.539 37.4156 13.0734C37.3609 12.6079 37.2711 12.2911 37.1461 12.123C37.0289 11.9549 36.8688 11.8708 36.6656 11.8708C36.4469 11.8708 36.1852 11.9678 35.8805 12.1618L35.7047 11.4635L38.9391 9.29106H39.443V13.054Z" fill="black"/>
<path d="M62.168 0.678888V9.77598H61.7344C61.5938 8.03027 61.3398 6.64017 60.9727 5.60567C60.6133 4.57118 60.0977 3.75005 59.4258 3.14228C58.7539 2.53451 58.0586 2.23063 57.3398 2.23063C56.5273 2.23063 55.8555 2.64443 55.3242 3.47203C54.793 4.28669 54.5273 5.21774 54.5273 6.26516C54.5273 7.0669 54.6953 7.79751 55.0312 8.457C55.5156 9.42684 56.668 10.72 58.4883 12.3364C59.9727 13.6553 60.9844 14.6704 61.5234 15.3817C62.0703 16.0799 62.4883 16.9075 62.7773 17.8644C63.0742 18.8214 63.2227 19.8235 63.2227 20.871C63.2227 22.8624 62.7539 24.5822 61.8164 26.0305C60.8867 27.4659 59.6875 28.1835 58.2188 28.1835C57.7578 28.1835 57.3242 28.1254 56.918 28.009C56.6758 27.9443 56.1719 27.7116 55.4062 27.3107C54.6484 26.8969 54.168 26.69 53.9648 26.69C53.7695 26.69 53.6133 26.787 53.4961 26.9809C53.3867 27.1749 53.3047 27.5758 53.25 28.1835H52.8164V19.164H53.25C53.4531 21.052 53.7266 22.468 54.0703 23.4119C54.4141 24.343 54.9375 25.1188 55.6406 25.7395C56.3516 26.3602 57.1289 26.6706 57.9727 26.6706C58.9492 26.6706 59.7188 26.2439 60.2812 25.3904C60.8516 24.5369 61.1367 23.5283 61.1367 22.3645C61.1367 21.7179 61.0273 21.0649 60.8086 20.4054C60.5977 19.7459 60.2656 19.1317 59.8125 18.5627C59.5078 18.1748 58.6758 17.3537 57.3164 16.0993C55.957 14.8321 54.9883 13.8234 54.4102 13.0734C53.8398 12.3234 53.4062 11.4958 53.1094 10.5906C52.8125 9.68547 52.6641 8.68976 52.6641 7.60354C52.6641 5.71559 53.1016 4.09272 53.9766 2.73495C54.8516 1.36424 55.9648 0.678888 57.3164 0.678888C58.1602 0.678888 59.0547 1.02156 60 1.70692C60.4375 2.0302 60.7461 2.19184 60.9258 2.19184C61.1289 2.19184 61.293 2.09485 61.418 1.90089C61.5508 1.69399 61.6562 1.28665 61.7344 0.678888H62.168Z" fill="black"/>
<path d="M67.1906 3.97634V9.81478H69.6984V11.1726H67.1906V22.6943C67.1906 23.8451 67.2883 24.621 67.4836 25.0219C67.6867 25.4227 67.9445 25.6232 68.257 25.6232C68.5148 25.6232 68.7648 25.4939 69.007 25.2352C69.2492 24.9637 69.4367 24.5693 69.5695 24.052H70.0266C69.7531 25.3193 69.3664 26.2762 68.8664 26.9228C68.3664 27.5564 67.8508 27.8732 67.3195 27.8732C66.9602 27.8732 66.6086 27.7116 66.2648 27.3883C65.9211 27.0521 65.6672 26.5801 65.5031 25.9723C65.3391 25.3516 65.257 24.4012 65.257 23.121V11.1726H63.5578V10.5325C63.9875 10.248 64.425 9.76952 64.8703 9.0971C65.3234 8.41174 65.7258 7.60354 66.0773 6.6725C66.257 6.18111 66.507 5.28239 66.8273 3.97634H67.1906Z" fill="black"/>
<path d="M71.3578 16.5067C71.35 19.1446 71.7367 21.2136 72.518 22.7136C73.2992 24.2137 74.2172 24.9637 75.2719 24.9637C75.975 24.9637 76.5844 24.6469 77.1 24.0132C77.6234 23.3667 78.0609 22.2675 78.4125 20.7158L78.7758 21.1037C78.6117 22.8753 78.1352 24.4917 77.3461 25.9529C76.557 27.4012 75.5687 28.1254 74.3812 28.1254C73.0922 28.1254 71.9867 27.2978 71.0648 25.6426C70.1508 23.9744 69.6937 21.7373 69.6937 18.9313C69.6937 15.8924 70.1625 13.526 71.1 11.832C72.0453 10.1251 73.2289 9.27167 74.6508 9.27167C75.8539 9.27167 76.8422 9.93116 77.6156 11.2501C78.3891 12.5562 78.7758 14.3084 78.7758 16.5067H71.3578ZM71.3578 15.3817H76.3266C76.2875 14.2437 76.2055 13.442 76.0805 12.9765C75.8852 12.2523 75.5922 11.6833 75.2016 11.2695C74.8187 10.8557 74.4164 10.6488 73.9945 10.6488C73.3461 10.6488 72.7641 11.0691 72.2484 11.9096C71.7406 12.7372 71.4437 13.8946 71.3578 15.3817Z" fill="black"/>
<path d="M82.2047 13.0734C82.9859 11.7803 83.4469 11.0368 83.5875 10.8428C83.9391 10.3514 84.318 9.96995 84.7242 9.6984C85.1305 9.42684 85.5328 9.29106 85.9313 9.29106C86.6031 9.29106 87.1813 9.61434 87.6656 10.2609C88.15 10.9075 88.4742 11.845 88.6383 13.0734C89.443 11.5217 90.1227 10.5066 90.6773 10.0281C91.232 9.53676 91.8023 9.29106 92.3883 9.29106C92.9586 9.29106 93.4625 9.53676 93.9 10.0281C94.3453 10.5066 94.6969 11.2954 94.9547 12.3946C95.1266 13.1446 95.2125 14.3213 95.2125 15.9248V23.5671C95.2125 24.6792 95.2633 25.4421 95.3648 25.8559C95.443 26.1404 95.5875 26.3861 95.7984 26.593C96.0094 26.787 96.3531 26.884 96.8297 26.884V27.5822H91.5328V26.884H91.7555C92.2164 26.884 92.5758 26.7352 92.8336 26.4378C93.0133 26.2309 93.1422 25.9012 93.2203 25.4486C93.2516 25.2288 93.2672 24.6016 93.2672 23.5671V15.9248C93.2672 14.4765 93.1617 13.4549 92.9508 12.8601C92.6461 12.0325 92.1578 11.6187 91.4859 11.6187C91.0719 11.6187 90.6539 11.7933 90.232 12.1424C89.818 12.4786 89.3141 13.1122 88.7203 14.0433L88.6969 14.2566L88.7203 15.0907V23.5671C88.7203 24.7826 88.7594 25.5391 88.8375 25.8365C88.9234 26.1339 89.0797 26.3861 89.3063 26.593C89.5328 26.787 89.9195 26.884 90.4664 26.884V27.5822H85.0406V26.884C85.6344 26.884 86.0406 26.7676 86.2594 26.5348C86.4859 26.3021 86.6422 25.9529 86.7281 25.4874C86.7672 25.2676 86.7867 24.6275 86.7867 23.5671V15.9248C86.7867 14.4765 86.6578 13.4355 86.4 12.8019C86.0563 11.9743 85.5758 11.5605 84.9586 11.5605C84.5367 11.5605 84.1188 11.748 83.7047 12.123C83.0563 12.692 82.5563 13.3321 82.2047 14.0433V23.5671C82.2047 24.7309 82.2516 25.4874 82.3453 25.8365C82.4469 26.1857 82.5914 26.4508 82.7789 26.6318C82.9742 26.7999 83.3648 26.884 83.9508 26.884V27.5822H78.6422V26.884C79.1344 26.884 79.4781 26.7999 79.6734 26.6318C79.8688 26.4508 80.0172 26.1727 80.1188 25.7977C80.2203 25.4098 80.2711 24.6663 80.2711 23.5671V16.7782C80.2711 14.8256 80.2359 13.5648 80.1656 12.9959C80.1109 12.5691 80.025 12.2782 79.9078 12.123C79.7906 11.9549 79.6305 11.8708 79.4273 11.8708C79.2086 11.8708 78.9469 11.9678 78.6422 12.1618L78.4664 11.4635L81.7008 9.29106H82.2047V13.0734Z" fill="black"/>
<path d="M105.469 15.2653V22.927C105.469 24.5822 105.578 25.6102 105.797 26.0111C106.094 26.5801 106.543 26.8646 107.145 26.8646H107.754V27.5822H100.945V26.8646H101.543C102.215 26.8646 102.695 26.5025 102.984 25.7783C103.141 25.3775 103.219 24.427 103.219 22.927V5.93542C103.219 4.28023 103.113 3.2522 102.902 2.85133C102.598 2.28236 102.145 1.99787 101.543 1.99787H100.945V1.28019H106.77C108.191 1.28019 109.312 1.52588 110.133 2.01727C110.953 2.49572 111.645 3.31039 112.207 4.46126C112.77 5.61214 113.051 6.97638 113.051 8.55399C113.051 10.7006 112.621 12.4463 111.762 13.7911C110.91 15.136 109.703 15.8084 108.141 15.8084C107.758 15.8084 107.344 15.7631 106.898 15.6726C106.453 15.5821 105.977 15.4463 105.469 15.2653ZM105.469 14.1597C105.883 14.289 106.25 14.386 106.57 14.4506C106.891 14.5153 107.164 14.5476 107.391 14.5476C108.203 14.5476 108.902 14.0303 109.488 12.9959C110.082 11.9484 110.379 10.5971 110.379 8.94192C110.379 7.80398 110.238 6.75008 109.957 5.78024C109.676 4.79747 109.277 4.06686 108.762 3.58841C108.246 3.09702 107.66 2.85133 107.004 2.85133C106.605 2.85133 106.094 2.97418 105.469 3.21987V14.1597Z" fill="black"/>
<path d="M117.148 0V23.5671C117.148 24.6792 117.195 25.4163 117.288 25.7783C117.39 26.1404 117.542 26.4184 117.745 26.6124C117.948 26.7934 118.327 26.884 118.882 26.884V27.5822H113.62V26.884C114.113 26.884 114.448 26.7999 114.628 26.6318C114.808 26.4637 114.948 26.1857 115.05 25.7977C115.152 25.4098 115.202 24.6663 115.202 23.5671V7.42897C115.202 5.42464 115.175 4.19617 115.12 3.74358C115.066 3.27806 114.976 2.96124 114.851 2.79314C114.734 2.62503 114.581 2.54098 114.394 2.54098C114.191 2.54098 113.933 2.64443 113.62 2.85133L113.421 2.17244L116.62 0H117.148Z" fill="black"/>
<path d="M125.018 25.0219C123.916 26.4314 123.225 27.246 122.944 27.4659C122.522 27.7891 122.073 27.9508 121.596 27.9508C120.854 27.9508 120.241 27.5305 119.756 26.69C119.28 25.8495 119.041 24.7438 119.041 23.3731C119.041 22.5067 119.159 21.7567 119.393 21.1231C119.713 20.2438 120.268 19.4162 121.057 18.6403C121.854 17.8644 123.174 16.9205 125.018 15.8084V15.1101C125.018 13.3385 124.846 12.123 124.502 11.4635C124.166 10.804 123.674 10.4743 123.026 10.4743C122.534 10.4743 122.143 10.6941 121.854 11.1338C121.557 11.5734 121.409 12.0777 121.409 12.6467L121.432 13.7717C121.432 14.3666 121.338 14.8256 121.151 15.1489C120.971 15.4722 120.733 15.6338 120.436 15.6338C120.147 15.6338 119.909 15.4657 119.721 15.1295C119.541 14.7933 119.452 14.3342 119.452 13.7523C119.452 12.6402 119.795 11.6187 120.483 10.6876C121.17 9.75659 122.135 9.29106 123.377 9.29106C124.33 9.29106 125.112 9.55615 125.721 10.0863C126.182 10.4872 126.522 11.1144 126.741 11.9678C126.881 12.5239 126.952 13.6618 126.952 15.3817V21.4141C126.952 23.108 126.971 24.149 127.01 24.5369C127.049 24.912 127.112 25.1641 127.198 25.2934C127.291 25.4227 127.397 25.4874 127.514 25.4874C127.639 25.4874 127.748 25.4421 127.842 25.3516C128.006 25.1835 128.323 24.7115 128.791 23.9356V25.0219C127.916 26.9615 127.08 27.9314 126.284 27.9314C125.901 27.9314 125.596 27.7116 125.37 27.2719C125.143 26.8322 125.026 26.0822 125.018 25.0219ZM125.018 23.7611V16.9916C123.838 17.7675 123.077 18.317 122.733 18.6403C122.116 19.2093 121.674 19.8041 121.409 20.4248C121.143 21.0455 121.01 21.7244 121.01 22.4615C121.01 23.3925 121.178 24.1684 121.514 24.7891C121.85 25.3969 122.237 25.7008 122.674 25.7008C123.268 25.7008 124.049 25.0542 125.018 23.7611Z" fill="black"/>
<path d="M127.791 9.81478H132.795V10.5325H132.548C132.197 10.5325 131.931 10.6618 131.752 10.9204C131.58 11.1661 131.494 11.4764 131.494 11.8514C131.494 12.3558 131.623 13.054 131.88 13.9463L134.494 22.9076L136.896 13.0928C137.029 12.5627 137.095 12.0389 137.095 11.5217C137.095 11.2889 137.068 11.1144 137.013 10.998C136.951 10.8557 136.853 10.7458 136.72 10.6682C136.587 10.5777 136.353 10.5325 136.017 10.5325V9.81478H139.509V10.5325C139.22 10.5842 138.998 10.6876 138.841 10.8428C138.685 10.998 138.513 11.2889 138.326 11.7157C138.255 11.8967 138.123 12.3946 137.927 13.2092L133.556 30.9379C133.134 32.6577 132.58 33.9573 131.892 34.8366C131.212 35.716 130.556 36.1556 129.923 36.1556C129.462 36.1556 129.084 35.9358 128.787 35.4961C128.49 35.0565 128.341 34.5522 128.341 33.9832C128.341 33.4401 128.447 33.0004 128.658 32.6642C128.877 32.3409 129.173 32.1793 129.548 32.1793C129.806 32.1793 130.158 32.3215 130.603 32.606C130.916 32.8 131.111 32.897 131.189 32.897C131.423 32.897 131.677 32.6965 131.951 32.2957C132.232 31.8948 132.513 31.1189 132.795 29.968L133.556 26.884L129.701 13.4808C129.584 13.0799 129.396 12.5821 129.138 11.9872C128.943 11.5346 128.783 11.2307 128.658 11.0756C128.478 10.8687 128.189 10.6876 127.791 10.5325V9.81478Z" fill="black"/>
<path d="M141.005 16.5067C140.997 19.1446 141.384 21.2136 142.165 22.7136C142.946 24.2137 143.864 24.9637 144.919 24.9637C145.622 24.9637 146.231 24.6469 146.747 24.0132C147.27 23.3667 147.708 22.2675 148.059 20.7158L148.423 21.1037C148.259 22.8753 147.782 24.4917 146.993 25.9529C146.204 27.4012 145.216 28.1254 144.028 28.1254C142.739 28.1254 141.634 27.2978 140.712 25.6426C139.798 23.9744 139.341 21.7373 139.341 18.9313C139.341 15.8924 139.809 13.526 140.747 11.832C141.692 10.1251 142.876 9.27167 144.298 9.27167C145.501 9.27167 146.489 9.93116 147.262 11.2501C148.036 12.5562 148.423 14.3084 148.423 16.5067H141.005ZM141.005 15.3817H145.973C145.934 14.2437 145.852 13.442 145.727 12.9765C145.532 12.2523 145.239 11.6833 144.848 11.2695C144.466 10.8557 144.063 10.6488 143.641 10.6488C142.993 10.6488 142.411 11.0691 141.895 11.9096C141.387 12.7372 141.091 13.8946 141.005 15.3817Z" fill="black"/>
<path d="M151.805 9.29106V13.2868C152.703 10.623 153.625 9.29106 154.57 9.29106C155 9.29106 155.355 9.51089 155.637 9.95055C155.918 10.3773 156.059 10.8751 156.059 11.4441C156.059 11.9484 155.957 12.3752 155.754 12.7243C155.551 13.0734 155.309 13.248 155.027 13.248C154.754 13.248 154.445 13.0282 154.102 12.5885C153.766 12.1359 153.516 11.9096 153.352 11.9096C153.211 11.9096 153.059 12.0389 152.895 12.2976C152.543 12.8277 152.18 13.7006 151.805 14.9161V23.4313C151.805 24.4141 151.879 25.1576 152.027 25.662C152.129 26.0111 152.309 26.3021 152.566 26.5348C152.824 26.7676 153.195 26.884 153.68 26.884V27.5822H148.184V26.884C148.73 26.884 149.137 26.7417 149.402 26.4572C149.598 26.2503 149.734 25.9206 149.812 25.468C149.852 25.2482 149.871 24.621 149.871 23.5865V16.7006C149.871 14.6316 149.844 13.4032 149.789 13.0152C149.742 12.6144 149.648 12.3234 149.508 12.1424C149.375 11.9614 149.207 11.8708 149.004 11.8708C148.762 11.8708 148.488 11.9678 148.184 12.1618L148.066 11.4635L151.312 9.29106H151.805Z" fill="black"/>
</svg>
