<svg width="105" height="28" viewBox="0 0 105 28" fill="none" xmlns="http://www.w3.org/2000/svg">
<path d="M1 1H16.4286V3.57143H19V24.1429H16.4286V26.7143H1V1ZM11.2857 19H13.8571V8.71428H11.2857V6.14285H6.14286V21.5714H11.2857V19Z" fill="white"/>
<path d="M31.8638 11.2857H29.2924V13.8571H26.721V26.7143H21.5781V6.14285H26.721V8.71428H29.2924V6.14285H34.4353V8.71428H37.0067V11.2857H34.4353V13.8571H31.8638V11.2857Z" fill="white"/>
<path d="M49.8638 26.7143H42.1496V24.1429H39.5781V6.14285H44.721V21.5714H52.4353V6.14285H57.5781V26.7143H52.4353V24.1429H49.8638V26.7143Z" fill="white"/>
<path d="M65.2991 8.71428H67.8705V6.14285H73.0134V8.71428H78.1562V6.14285H83.2991V8.71428H85.8705V26.7143H80.7277V11.2857H75.5848V26.7143H70.442V11.2857H65.2991V26.7143H60.1562V6.14285H65.2991V8.71428Z" fill="white"/>
<path d="M90.9933 24.1429H88.4219V21.5714H98.7076V19H90.9933V16.4286H88.4219V8.71428H90.9933V6.14285H101.279V8.71428H103.85V11.2857H93.5647V13.8571H101.279V16.4286H103.85V24.1429H101.279V26.7143H90.9933V24.1429Z" fill="white"/>
<path d="M19 24.1429V3.57143H16.4286V1H1V26.7143H16.4286V24.1429H19ZM103.85 24.1429V16.4286H101.279V13.8571H93.5647V11.2857H103.85V8.71428H101.279V6.14285H90.9933V8.71428H88.4219V16.4286H90.9933V19H98.7076V21.5714H88.4219V24.1429H90.9933V26.7143H101.279V24.1429H103.85ZM10.2861 7.14258H7.14258V20.5713H10.2861V18H12.8574V9.71387H10.2861V7.14258ZM44.721 6.14285H39.5781V24.1429H42.1496V26.7143H49.8638V24.1429H52.4353V26.7143H57.5781V6.14285H52.4353V21.5714H44.721V6.14285ZM26.721 6.14285H21.5781V26.7143H26.721V13.8571H29.2924V11.2857H31.8638V13.8571H34.4353V11.2857H37.0067V8.71428H34.4353V6.14285H29.2924V8.71428H26.721V6.14285ZM73.0134 6.14285H67.8705V8.71428H65.2991V6.14285H60.1562V26.7143H65.2991V11.2857H70.442V26.7143H75.5848V11.2857H80.7277V26.7143H85.8705V8.71428H83.2991V6.14285H78.1562V8.71428H73.0134V6.14285ZM13.8571 8.71428V19H11.2857V21.5714H6.14286V6.14285H11.2857V8.71428H13.8571ZM35.4355 7.71387H38.0068V12.2861H35.4355V14.8574H30.8643V12.2861H30.292V14.8574H27.7207V27.7139H20.5781V5.14258H27.7207V7.71387H28.292V5.14258H35.4355V7.71387ZM58.5781 27.7139H51.4355V25.1426H50.8643V27.7139H41.1494V25.1426H38.5781V5.14258H45.7207V20.5713H51.4355V5.14258H58.5781V27.7139ZM84.2988 7.71387H86.8701V27.7139H79.7275V12.2861H76.585V27.7139H69.4424V12.2861H66.2988V27.7139H59.1562V5.14258H66.2988V7.71387H66.8701V5.14258H74.0137V7.71387H77.1562V5.14258H84.2988V7.71387ZM102.279 7.71387H104.851V12.2861H94.5645V12.8574H102.279V15.4287H104.851V25.1426H102.279V27.7139H89.9932V25.1426H87.4219V20.5713H97.708V20H89.9932V17.4287H87.4219V7.71387H89.9932V5.14258H102.279V7.71387ZM17.4287 2.57129H20V25.1426H17.4287V27.7139H0V0H17.4287V2.57129Z" fill="black"/>
</svg>
