<svg width="77" height="28" viewBox="0 0 77 28" fill="none" xmlns="http://www.w3.org/2000/svg">
<path d="M13.8571 6.14285H6.14286V11.2857H13.8571V6.14285ZM6.14286 21.5714H13.8571V16.4286H6.14286V21.5714ZM16.4286 13.8571H19V24.1429H16.4286V26.7143H1V1H16.4286V3.57143H19V11.2857H16.4286V13.8571Z" fill="white"/>
<path d="M24.1496 24.1429H21.5781V16.4286H24.1496V13.8571H34.4353V11.2857H21.5781V8.71428H24.1496V6.14285H37.0067V8.71428H39.5781V26.7143H34.4353V24.1429H31.8638V26.7143H24.1496V24.1429ZM26.721 21.5714H34.4353V19H26.721V21.5714Z" fill="white"/>
<path d="M44.7277 24.1429H42.1562V21.5714H52.442V19H44.7277V16.4286H42.1562V8.71428H44.7277V6.14285H55.0134V8.71428H57.5848V11.2857H47.2991V13.8571H55.0134V16.4286H57.5848V24.1429H55.0134V26.7143H44.7277V24.1429Z" fill="white"/>
<path d="M62.7277 24.1429H60.1562V21.5714H70.442V19H62.7277V16.4286H60.1562V8.71428H62.7277V6.14285H73.0134V8.71428H75.5848V11.2857H65.2991V13.8571H73.0134V16.4286H75.5848V24.1429H73.0134V26.7143H62.7277V24.1429Z" fill="white"/>
<path d="M19 24.1429V13.8571H16.4286V11.2857H19V3.57143H16.4286V1H1V26.7143H16.4286V24.1429H19ZM39.5781 8.71428H37.0067V6.14285H24.1496V8.71428H21.5781V11.2857H34.4353V13.8571H24.1496V16.4286H21.5781V24.1429H24.1496V26.7143H31.8638V24.1429H34.4353V26.7143H39.5781V8.71428ZM57.5848 24.1429V16.4286H55.0134V13.8571H47.2991V11.2857H57.5848V8.71428H55.0134V6.14285H44.7277V8.71428H42.1562V16.4286H44.7277V19H52.442V21.5714H42.1562V24.1429H44.7277V26.7143H55.0134V24.1429H57.5848ZM75.5848 24.1429V16.4286H73.0134V13.8571H65.2991V11.2857H75.5848V8.71428H73.0134V6.14285H62.7277V8.71428H60.1562V16.4286H62.7277V19H70.442V21.5714H60.1562V24.1429H62.7277V26.7143H73.0134V24.1429H75.5848ZM13.8571 16.4286V21.5714H6.14286V16.4286H13.8571ZM34.4353 19V21.5714H26.721V19H34.4353ZM27.7207 20.5713H33.4355V20H27.7207V20.5713ZM7.14258 20.5713H12.8574V17.4287H7.14258V20.5713ZM13.8571 6.14285V11.2857H6.14286V6.14285H13.8571ZM7.14258 10.2861H12.8574V7.14258H7.14258V10.2861ZM38.0068 7.71387H40.5781V27.7139H33.4355V25.1426H32.8643V27.7139H23.1494V25.1426H20.5781V15.4287H23.1494V12.8574H33.4355V12.2861H20.5781V7.71387H23.1494V5.14258H38.0068V7.71387ZM56.0137 7.71387H58.585V12.2861H48.2988V12.8574H56.0137V15.4287H58.585V25.1426H56.0137V27.7139H43.7275V25.1426H41.1562V20.5713H51.4424V20H43.7275V17.4287H41.1562V7.71387H43.7275V5.14258H56.0137V7.71387ZM74.0137 7.71387H76.585V12.2861H66.2988V12.8574H74.0137V15.4287H76.585V25.1426H74.0137V27.7139H61.7275V25.1426H59.1562V20.5713H69.4424V20H61.7275V17.4287H59.1562V7.71387H61.7275V5.14258H74.0137V7.71387ZM17.4287 2.57129H20V12.2861H17.4287V12.8574H20V25.1426H17.4287V27.7139H0V0H17.4287V2.57129Z" fill="black"/>
</svg>
