<svg width="95" height="28" viewBox="0 0 95 28" fill="none" xmlns="http://www.w3.org/2000/svg">
<path d="M1 3.57143H3.57143V1H16.4286V3.57143H19V24.1429H16.4286V26.7143H3.57143V24.1429H1V3.57143ZM11.2857 19H13.8571V8.71428H11.2857V6.14285H8.71429V8.71428H6.14286V19H8.71429V21.5714H11.2857V19Z" fill="white"/>
<path d="M21.5781 8.71428H24.1496V3.57143H26.721V1H29.2924V8.71428H34.4353V13.8571H29.2924V21.5714H34.4353V26.7143H26.721V24.1429H24.1496V13.8571H21.5781V8.71428Z" fill="white"/>
<path d="M42.1429 8.71428H44.7143V6.14285H52.4286V8.71428H55V26.7143H49.8571V11.2857H42.1429V26.7143H37V1H42.1429V8.71428Z" fill="white"/>
<path d="M57.5781 8.71428H60.1496V6.14285H73.0067V8.71428H75.5781V19H62.721V21.5714H75.5781V24.1429H73.0067V26.7143H60.1496V24.1429H57.5781V8.71428ZM62.721 13.8571H70.4353V11.2857H62.721V13.8571Z" fill="white"/>
<path d="M88.442 11.2857H85.8705V13.8571H83.2991V26.7143H78.1562V6.14285H83.2991V8.71428H85.8705V6.14285H91.0134V8.71428H93.5848V11.2857H91.0134V13.8571H88.442V11.2857Z" fill="white"/>
<path d="M19 24.1429V3.57143H16.4286V1H3.57143V3.57143H1V24.1429H3.57143V26.7143H16.4286V24.1429H19ZM34.4353 21.5714H29.2924V13.8571H34.4353V8.71428H29.2924V1H26.721V3.57143H24.1496V8.71428H21.5781V13.8571H24.1496V24.1429H26.721V26.7143H34.4353V21.5714ZM55 8.71428H52.4286V6.14285H44.7143V8.71428H42.1429V1H37V26.7143H42.1429V11.2857H49.8571V26.7143H55V8.71428ZM75.5781 24.1429V21.5714H62.721V19H75.5781V8.71428H73.0067V6.14285H60.1496V8.71428H57.5781V24.1429H60.1496V26.7143H73.0067V24.1429H75.5781ZM10.2861 7.14258H9.71387V9.71387H7.14258V18H9.71387V20.5713H10.2861V18H12.8574V9.71387H10.2861V7.14258ZM70.4353 11.2857V13.8571H62.721V11.2857H70.4353ZM63.7207 12.8574H69.4355V12.2861H63.7207V12.8574ZM83.2991 6.14285H78.1562V26.7143H83.2991V13.8571H85.8705V11.2857H88.442V13.8571H91.0134V11.2857H93.5848V8.71428H91.0134V6.14285H85.8705V8.71428H83.2991V6.14285ZM13.8571 8.71428V19H11.2857V21.5714H8.71429V19H6.14286V8.71428H8.71429V6.14285H11.2857V8.71428H13.8571ZM74.0068 7.71387H76.5781V20H63.7207V20.5713H76.5781V25.1426H74.0068V27.7139H59.1494V25.1426H56.5781V7.71387H59.1494V5.14258H74.0068V7.71387ZM92.0137 7.71387H94.585V12.2861H92.0137V14.8574H87.4424V12.2861H86.8701V14.8574H84.2988V27.7139H77.1562V5.14258H84.2988V7.71387H84.8701V5.14258H92.0137V7.71387ZM17.4287 2.57129H20V25.1426H17.4287V27.7139H2.57129V25.1426H0V2.57129H2.57129V0H17.4287V2.57129ZM30.292 7.71387H35.4355V14.8574H30.292V20.5713H35.4355V27.7139H25.7207V25.1426H23.1494V14.8574H20.5781V7.71387H23.1494V2.57129H25.7207V0H30.292V7.71387ZM43.1426 7.71387H43.7139V5.14258H53.4287V7.71387H56V27.7139H48.8574V12.2861H43.1426V27.7139H36V0H43.1426V7.71387Z" fill="black"/>
</svg>
