<svg width="108" height="28" viewBox="0 0 108 28" fill="none" xmlns="http://www.w3.org/2000/svg">
<path d="M11.2857 16.4283H13.8571V0.999756H19V18.9998H16.4286V21.5712H13.8571V24.1426H11.2857V26.714H8.71429V24.1426H6.14286V21.5712H3.57143V18.9998H1V0.999756H6.14286V16.4283H8.71429V18.9998H11.2857V16.4283Z" fill="white"/>
<path d="M21.5781 8.71404H24.1496V6.14261H37.0067V8.71404H39.5781V24.1426H37.0067V26.714H24.1496V24.1426H21.5781V8.71404ZM34.4353 11.2855H26.721V21.5712H34.4353V11.2855Z" fill="white"/>
<path d="M55.0134 18.9998H60.1562V24.1426H57.5848V26.714H44.7277V24.1426H42.1562V8.71404H44.7277V6.14261H57.5848V8.71404H60.1562V13.8569H55.0134V11.2855H47.2991V21.5712H55.0134V18.9998Z" fill="white"/>
<path d="M65.3058 24.1426H62.7344V16.4283H65.3058V13.8569H75.5915V11.2855H62.7344V8.71404H65.3058V6.14261H78.1629V8.71404H80.7344V26.714H75.5915V24.1426H73.0201V26.714H65.3058V24.1426ZM67.8772 21.5712H75.5915V18.9998H67.8772V21.5712Z" fill="white"/>
<path d="M83.3125 0.999756H88.4554V26.714H83.3125V0.999756Z" fill="white"/>
<path d="M93.6183 24.1426H91.0469V21.5712H101.333V18.9998H93.6183V16.4283H91.0469V8.71404H93.6183V6.14261H103.904V8.71404H106.475V11.2855H96.1897V13.8569H103.904V16.4283H106.475V24.1426H103.904V26.714H93.6183V24.1426Z" fill="white"/>
<path d="M39.5781 24.1426V8.71404H37.0067V6.14261H24.1496V8.71404H21.5781V24.1426H24.1496V26.714H37.0067V24.1426H39.5781ZM80.7344 8.71404H78.1629V6.14261H65.3058V8.71404H62.7344V11.2855H75.5915V13.8569H65.3058V16.4283H62.7344V24.1426H65.3058V26.714H73.0201V24.1426H75.5915V26.714H80.7344V8.71404ZM88.4554 0.999756H83.3125V26.714H88.4554V0.999756ZM106.475 24.1426V16.4283H103.904V13.8569H96.1897V11.2855H106.475V8.71404H103.904V6.14261H93.6183V8.71404H91.0469V16.4283H93.6183V18.9998H101.333V21.5712H91.0469V24.1426H93.6183V26.714H103.904V24.1426H106.475ZM34.4353 11.2855V21.5712H26.721V11.2855H34.4353ZM75.5915 18.9998V21.5712H67.8772V18.9998H75.5915ZM68.877 20.5713H74.5918V20H68.877V20.5713ZM27.7207 20.5713H33.4355V12.2852H27.7207V20.5713ZM8.71429 16.4283H6.14286V0.999756H1V18.9998H3.57143V21.5712H6.14286V24.1426H8.71429V26.714H11.2857V24.1426H13.8571V21.5712H16.4286V18.9998H19V0.999756H13.8571V16.4283H11.2857V18.9998H8.71429V16.4283ZM60.1562 8.71404H57.5848V6.14261H44.7277V8.71404H42.1562V24.1426H44.7277V26.714H57.5848V24.1426H60.1562V18.9998H55.0134V21.5712H47.2991V11.2855H55.0134V13.8569H60.1562V8.71404ZM38.0068 7.71387H40.5781V25.1426H38.0068V27.7139H23.1494V25.1426H20.5781V7.71387H23.1494V5.14258H38.0068V7.71387ZM58.585 7.71387H61.1562V14.8564H54.0137V12.2852H48.2988V20.5713H54.0137V18H61.1562V25.1426H58.585V27.7139H43.7275V25.1426H41.1562V7.71387H43.7275V5.14258H58.585V7.71387ZM79.1631 7.71387H81.7344V27.7139H74.5918V25.1426H74.0205V27.7139H64.3057V25.1426H61.7344V15.4287H64.3057V12.8564H74.5918V12.2852H61.7344V7.71387H64.3057V5.14258H79.1631V7.71387ZM104.904 7.71387H107.476V12.2852H97.1895V12.8564H104.904V15.4287H107.476V25.1426H104.904V27.7139H92.6182V25.1426H90.0469V20.5713H100.333V20H92.6182V17.4287H90.0469V7.71387H92.6182V5.14258H104.904V7.71387ZM20 20H17.4287V22.5713H14.8574V25.1426H12.2861V27.7139H7.71387V25.1426H5.14258V22.5713H2.57129V20H0V0H7.14258V15.4287H9.71387V18H10.2861V15.4287H12.8574V0H20V20ZM89.4551 27.7139H82.3125V0H89.4551V27.7139Z" fill="black"/>
</svg>
