<svg width="646" height="167" viewBox="0 0 646 167" fill="none" xmlns="http://www.w3.org/2000/svg">
<path d="M135.325 1C142.138 1 147.02 3.83122 150.167 8.11133C153.285 12.3518 154.651 17.9418 154.651 23.4512C154.651 29.833 153.536 35.2554 151.122 39.1152C148.669 43.0363 144.907 45.2832 139.873 45.2832C138.625 45.2831 137.664 44.9783 136.885 44.4814C136.129 43.9996 135.6 43.37 135.18 42.8467C134.297 41.7463 133.868 41.1582 132.727 41.1582C129.644 41.1582 126.584 43.2121 123.58 47.5439C120.592 51.8543 117.805 58.2218 115.242 66.3691C110.121 82.6507 105.97 105.781 102.791 133.09V133.095C101.808 141.206 99.9958 147.045 97.5771 150.885C95.1387 154.756 92.0276 156.662 88.5459 156.662C85.9734 156.662 83.7968 155.745 82.0215 153.996C80.2731 152.274 78.9528 149.785 77.96 146.686C75.9774 140.496 75.2012 131.546 75.2012 120.393C75.2012 106.551 75.7177 89.8224 76.7607 73.9189V73.916C76.8527 72.5606 76.6991 71.6438 76.4795 71.1016C76.3087 70.6798 76.1534 70.5895 76.1143 70.5732C76.0693 70.5836 75.8878 70.6469 75.6289 71.0322C75.3151 71.4994 75.0022 72.303 74.8525 73.4902C70.6892 106.549 63.7454 129.446 55.0508 144.106C46.3407 158.793 35.7929 165.325 24.4824 165.325C16.4823 165.325 10.5759 160.649 6.71973 153.916C2.87517 147.203 1 138.357 1 129.674C1.00002 121.099 2.74399 112.54 5.84277 106.089C8.91375 99.6954 13.4905 95.0539 19.2842 95.0537C21.0599 95.0537 22.2334 96.7345 22.2334 98.5293C22.2335 107.185 27.4996 112.792 34.3623 112.792C38.5276 112.792 42.5302 110.538 46.2432 106.603C49.9514 102.672 53.2754 97.1613 56.0596 90.9033C61.6302 78.3821 64.9404 63.1024 64.9404 52.1211C64.9404 46.6239 64.1347 42.5276 62.7461 39.8438C61.3831 37.2096 59.5092 36.0011 57.2363 36.001C53.0161 36.001 48.6241 40.5712 48.624 49.6455C48.624 53.1375 49.3177 56.1687 50.4131 58.2881C51.5257 60.4406 52.917 61.4336 54.2559 61.4336H55.0166L55.2197 62.167C56.4766 66.7073 55.4181 73.1611 52.623 78.4482C49.8245 83.7417 45.1025 88.1844 38.7969 88.1846C33.1865 88.1846 28.4535 84.6736 25.1748 78.7754C22.0021 73.0678 20.1167 65.0241 20.002 55.333L19.9961 54.3896C19.9858 40.6241 23.4588 27.3685 30.1885 17.5234C36.9364 7.65175 46.972 1.20605 59.959 1.20605C65.2049 1.20612 69.9932 2.53029 74.2031 5.4834C78.4044 8.43049 81.9638 12.9538 84.8428 19.2451C90.5865 31.7966 93.7021 51.5688 93.7021 80.584C93.7021 82.1125 93.9239 83.0581 94.1738 83.5635C94.2921 83.8026 94.3824 83.8908 94.4297 83.9209C94.4585 83.9098 94.5214 83.8806 94.6123 83.7979C94.7416 83.68 94.8994 83.4834 95.0576 83.1875C95.3743 82.5952 95.6473 81.6927 95.7373 80.5088C97.1078 61.0691 100.66 41.3028 106.972 26.3623C113.257 11.4856 122.465 1.00012 135.325 1Z" fill="white" stroke="black" stroke-width="2"/>
<path d="M158.736 44.397C163.244 44.3971 167.587 45.8853 171.761 48.7915V48.7017L173.383 49.9868C178.052 53.6882 181.595 58.4798 184.027 64.3364C186.348 69.8717 187.893 76.3129 188.665 83.6255L188.79 84.605C189.395 89.6771 189.684 97.3281 189.684 107.533V108.533H139.896C140.172 118.586 141.687 126.679 144.394 132.842L144.67 133.453V133.454C146.136 136.639 147.976 138.963 150.157 140.492C152.33 142.015 154.901 142.792 157.911 142.792C163.433 142.792 167.902 139.936 171.314 133.934C173.281 130.418 174.681 126.342 175.51 121.662L175.656 120.836H188.803L188.722 121.912C188.415 125.977 187.412 130.476 185.721 135.403C184.032 140.324 182.121 144.39 179.997 147.566C176.436 153.083 171.977 156.856 166.631 158.829L166.63 158.828C163.747 159.948 160.523 160.5 156.962 160.5C148.036 160.499 140.581 155.309 134.593 145.36C128.583 135.375 125.632 121.484 125.632 103.809C125.632 86.1207 128.608 72.1303 134.634 61.1284C140.67 50.1076 148.703 44.397 158.736 44.397ZM158.035 62.186C153.254 62.186 149.14 64.8859 145.694 70.7085C142.377 76.314 140.538 83.4263 140.214 92.1147H175.882C175.388 84.8042 174.34 78.9897 172.769 74.6216C171.241 70.3679 169.235 67.2658 166.801 65.23C164.383 63.2085 161.48 62.1861 158.035 62.186Z" fill="white" stroke="black" stroke-width="2"/>
<path d="M221.51 51.5334V115.99H229.636V128.88H235.763V90.2073H243.89V77.3157H254.016V128.88H262.143V141.772H268.248V64.425H276.375V51.5334H286.502V130.88H278.375V143.772H270.27V156.662H251.996V143.772H237.753V156.662H219.51V143.772H211.383V130.88H203.257V92.2073H195.13V77.3157H203.257V64.425H211.383V51.5334H221.51Z" fill="white" stroke="black" stroke-width="2"/>
<path d="M354.279 6.71338V111.543C354.279 124.075 353.111 133.906 350.741 140.965L350.74 140.97C348.539 147.415 345.312 152.334 341.014 155.64C336.708 158.952 331.406 160.582 325.176 160.582C317.859 160.582 311.627 157.417 306.511 151.204C301.326 144.905 298.858 133.911 298.858 118.495V106.924H312.717V118.495C312.717 126.487 313.849 132.348 315.985 136.191C317.039 138.087 318.364 139.468 319.947 140.381C321.531 141.295 323.428 141.771 325.671 141.771C328.842 141.771 331.386 140.913 333.376 139.258C335.378 137.594 336.91 135.05 337.91 131.526C339.135 127.18 339.78 118.814 339.78 106.315V6.71338H354.279Z" fill="white" stroke="black" stroke-width="2"/>
<path d="M398.883 44.397C403.72 44.3971 408.369 46.1103 412.822 49.4517L412.842 49.4331L413.539 49.9868C418.208 53.6882 421.751 58.4798 424.184 64.3364C426.505 69.8716 428.049 76.3129 428.821 83.6255L428.947 84.605C429.552 89.6771 429.842 97.3282 429.842 107.533V108.533H380.054C380.338 118.587 381.845 126.68 384.552 132.842L384.826 133.453L384.827 133.454C386.293 136.639 388.134 138.963 390.314 140.492C392.487 142.015 395.058 142.792 398.067 142.792C403.588 142.792 408.055 139.938 411.468 133.94C413.436 130.422 414.838 126.344 415.667 121.662L415.813 120.836H428.961L428.88 121.912C428.573 125.977 427.57 130.476 425.879 135.403C424.19 140.324 422.278 144.39 420.143 147.568C416.582 153.084 412.123 156.856 406.777 158.829L406.776 158.828C403.894 159.948 400.67 160.5 397.108 160.5C388.183 160.499 380.728 155.309 374.739 145.36C368.729 135.375 365.778 121.484 365.778 103.809C365.778 86.1207 368.754 72.1303 374.78 61.1284C380.816 50.1076 388.849 44.397 398.883 44.397ZM398.191 62.186C393.411 62.1861 389.297 64.8861 385.852 70.7085C382.534 76.314 380.695 83.4263 380.371 92.1147H416.039C415.546 84.8042 414.497 78.9897 412.926 74.6216C411.397 70.3679 409.393 67.2657 406.958 65.23C404.54 63.2082 401.637 62.186 398.191 62.186Z" fill="white" stroke="black" stroke-width="2"/>
<path d="M490.09 47.9443C491.369 47.9445 492.479 48.7524 493.354 49.7168C494.255 50.7108 495.069 52.0479 495.75 53.4873C497.107 56.3515 498.051 59.8593 498.051 62.3818C498.051 63.5064 497.816 64.3794 497.282 65.2402C496.787 66.0368 496.043 66.8062 495.14 67.7393L495.139 67.7383L492.902 70.0723L495.233 78.8525L495.239 78.874C495.683 80.7087 496.195 82.524 496.195 84.0498C496.195 86.0943 495.428 88.7643 494.372 91.7197C493.307 94.6986 491.88 98.1418 490.48 101.729C487.651 108.98 484.902 116.908 484.902 123.826C484.902 125.782 485.274 127.134 485.834 127.967C486.359 128.747 487.088 129.138 488.079 129.138C488.961 129.138 490.042 128.718 491.383 127.677C492.716 126.641 494.211 125.065 495.9 122.933C499.278 118.668 503.308 112.341 508.26 104.108L510.069 101.102L510.118 104.61L510.272 115.861L510.275 116.113L510.159 116.337C502.664 130.724 496.646 142.156 491.608 149.988C489.09 153.902 486.784 156.97 484.626 159.068C482.489 161.147 480.352 162.417 478.178 162.417C475.48 162.417 473.2 160.461 471.651 157.568C470.085 154.645 469.134 150.564 469.134 145.782C469.134 140.544 470.181 134.211 471.652 125.836C466.516 135.152 462.166 142.384 458.578 147.494C456.455 150.517 454.574 152.833 452.935 154.403C452.115 155.189 451.331 155.811 450.585 156.241C449.844 156.669 449.082 156.94 448.323 156.94H447.323V156.658C447.25 156.619 447.181 156.579 447.115 156.536C446.777 156.319 446.453 156.024 446.146 155.688C445.532 155.017 444.892 154.077 444.247 152.951C442.953 150.691 441.562 147.536 440.283 143.882C437.725 136.577 435.566 127.133 435.566 118.618C435.566 107.916 440.782 93.7373 450.119 79.6602L450.123 79.6543L450.127 79.6475C457.151 69.4088 464.82 61.6284 474.069 55.5146C478.367 52.6028 481.978 50.7222 484.689 49.5654C486.045 48.9869 487.181 48.5869 488.07 48.3301C488.928 48.0819 489.632 47.9443 490.09 47.9443ZM482.97 78.1328C460.494 95.2104 449.013 106.327 449.013 125.487C449.013 127.471 449.276 129.058 449.666 130.111C449.863 130.64 450.071 130.981 450.248 131.173C450.334 131.265 450.399 131.309 450.437 131.328C450.47 131.345 450.485 131.345 450.489 131.345C450.583 131.344 450.966 131.246 451.708 130.689C452.402 130.17 453.269 129.36 454.297 128.229C456.351 125.973 458.968 122.53 462.026 117.84C467.765 109.038 475.013 95.9082 482.97 78.1328Z" fill="white" stroke="black" stroke-width="2"/>
<path d="M543.892 45.4177C548.607 45.4177 554.466 47.817 559.104 54.8611C563.721 61.8735 567.117 73.4589 567.117 91.8767V156.663H553.679V94.0837C553.679 85.5242 552.74 77.7844 550.52 72.2214C548.307 66.6749 544.941 63.5261 540.128 63.5261C536.795 63.5263 533.712 65.5231 531.171 68.9919C528.634 72.454 526.732 77.2675 525.777 82.5662L525.771 82.5974C525.275 84.9289 525.009 88.1638 525.009 91.4333V156.663H511.572V77.7488C511.572 66.7218 511.438 57.6926 511.057 48.8845L511.012 47.8416H523.158L523.193 48.8044L523.679 62.0105C525.257 58.3104 527.387 54.8 530.036 51.9685C533.679 48.0732 538.347 45.4177 543.892 45.4177Z" fill="white" stroke="black" stroke-width="2"/>
<path d="M645 47.2329V70.7144H606.832V90.1968H632.274V135.17H619.558V156.663H579.4V133.181H617.558V113.689H592.116V68.7144H604.842V47.2329H645Z" fill="white" stroke="black" stroke-width="2"/>
</svg>
