<svg width="27" height="26" viewBox="0 0 27 26" fill="none" xmlns="http://www.w3.org/2000/svg">
<path d="M2.60474 19.1641L2.60181 19.168C2.60421 19.1652 2.61048 19.1571 2.62134 19.1436C2.64248 19.1171 2.67313 19.0776 2.71118 19.0273C2.78691 18.9273 2.88722 18.7915 2.99146 18.6445L2.99438 18.6396C3.37513 18.1154 3.63013 17.773 4.60181 16.4609L4.60278 16.459C6.25736 14.2382 6.54031 13.8577 6.93286 13.3125L6.93579 13.3086C7.12025 13.0575 7.34602 12.75 7.42407 12.6641C7.42507 12.6629 7.42871 12.6588 7.43481 12.6514C7.44308 12.6413 7.45371 12.6274 7.46704 12.6104C7.49393 12.576 7.5283 12.5311 7.56763 12.4785C7.64628 12.3734 7.74231 12.2421 7.83521 12.1094L7.83813 12.1055C7.93589 11.9686 8.03412 11.8339 8.11353 11.7275C8.15309 11.6746 8.18938 11.6268 8.21899 11.5889C8.23509 11.5683 8.2623 11.5361 8.28931 11.5059L8.28833 11.5049C8.28468 11.5091 8.29166 11.5 8.31665 11.4668C8.33805 11.4384 8.36634 11.4001 8.39966 11.3545C8.46591 11.2637 8.54986 11.1468 8.63501 11.0244C8.72363 10.8958 8.81281 10.7721 8.88599 10.6748C8.9224 10.6264 8.95724 10.582 8.98657 10.5459C9.00396 10.5245 9.04881 10.4685 9.0979 10.4258C9.0868 10.4355 9.0784 10.4423 9.07544 10.4453C9.07723 10.4431 9.07987 10.4405 9.08228 10.4375C9.09767 10.4185 9.12004 10.3904 9.14771 10.3535C9.20278 10.2801 9.27228 10.1822 9.34302 10.0801C9.50662 9.8416 9.64946 9.65244 9.78052 9.51953C9.90241 9.39593 10.0997 9.23156 10.3762 9.23145C10.4408 9.23145 10.6142 9.23811 10.7678 9.37598C10.9 9.49466 10.9405 9.64443 10.9563 9.71094C10.9886 9.84699 11.0002 10.0499 11.0129 10.2988C11.0628 11.2657 11.4288 12.2196 11.9846 12.8818L11.9856 12.8838C12.3944 13.3743 12.561 13.5219 13.0667 13.8506H13.0676C13.5527 14.1678 13.8932 14.348 14.2366 14.46C14.5789 14.5715 14.9531 14.6246 15.5178 14.6484L15.5208 14.6494C15.762 14.6608 15.9839 14.6778 16.1516 14.6963C16.2342 14.7054 16.312 14.716 16.3743 14.7275C16.4035 14.7329 16.4422 14.7404 16.4807 14.752C16.4989 14.7574 16.5323 14.7681 16.5696 14.7861C16.5805 14.7914 16.6979 14.844 16.7805 14.9736H16.7815C16.7827 14.9755 16.7833 14.9777 16.7844 14.9795C16.7855 14.9812 16.7873 14.9826 16.7883 14.9844H16.7874C16.8761 15.1313 16.8664 15.2752 16.8538 15.3457C16.8403 15.4204 16.8132 15.4786 16.7971 15.5098C16.7641 15.5739 16.7219 15.6289 16.6917 15.666C16.6266 15.7458 16.5372 15.8381 16.4368 15.9346C16.2316 16.1317 15.932 16.3929 15.5627 16.6982C14.9643 17.1933 14.2833 17.7824 13.6125 18.3877L13.6067 18.3926C13.4486 18.5313 13.2979 18.6601 13.1829 18.7559C13.1259 18.8032 13.0739 18.8461 13.0325 18.8779C13.0127 18.8931 12.9888 18.9109 12.9651 18.9268C12.9543 18.934 12.9342 18.9452 12.9104 18.958H12.9124C12.8866 18.9779 12.8465 19.0109 12.7932 19.0557C12.6878 19.144 12.5446 19.2677 12.3909 19.4053L12.3889 19.4072C11.6613 20.0521 11.0485 20.5829 10.4622 21.0752C9.71289 21.7041 9.14575 22.1947 8.552 22.7285L8.55005 22.7295C8.39358 22.8692 8.24411 22.9994 8.12915 23.0957C8.07233 23.1433 8.02034 23.1857 7.97876 23.2178C7.95898 23.233 7.9351 23.2507 7.91138 23.2666C7.90092 23.2736 7.88164 23.2854 7.85864 23.2979C7.83348 23.3177 7.79548 23.3498 7.74536 23.3926C7.64206 23.4808 7.50192 23.6046 7.35083 23.7422L7.3479 23.7461L7.34692 23.7451C7.00227 24.0533 6.52619 24.4585 6.12524 24.7881C5.92477 24.9529 5.74026 25.1012 5.59888 25.2109C5.52876 25.2654 5.46532 25.3133 5.41431 25.3496C5.38947 25.3673 5.36236 25.386 5.33618 25.4023C5.32322 25.4104 5.30499 25.4219 5.28442 25.4326C5.27166 25.4393 5.22509 25.463 5.16333 25.4785L5.13794 25.4854L5.11255 25.4883C4.99371 25.5053 4.90085 25.4753 4.87524 25.4668C4.8367 25.4541 4.80576 25.4392 4.78735 25.4297C4.74963 25.4102 4.71523 25.3879 4.69067 25.3711C4.63913 25.3359 4.58108 25.2905 4.52271 25.2432C4.40346 25.1466 4.25485 25.0166 4.10376 24.877L4.10083 24.875C4.00805 24.788 3.92866 24.7165 3.86255 24.6592C3.85785 24.6631 3.85283 24.6668 3.8479 24.6709L3.84888 24.6719C3.78746 24.7238 3.7191 24.7698 3.65845 24.8057C3.62938 24.8228 3.59132 24.8421 3.55005 24.8613V24.8623C3.50657 24.9108 3.46079 24.9465 3.42896 24.9688C3.36533 25.0131 3.29312 25.0484 3.22485 25.0771L3.22583 25.0781C3.22421 25.0788 3.22253 25.0794 3.22095 25.0801C3.21451 25.0872 3.21054 25.0953 3.20532 25.1006C3.16455 25.1422 3.12263 25.1734 3.09302 25.1934C3.0339 25.2332 2.96557 25.2672 2.89771 25.2959C2.87629 25.3194 2.85761 25.3376 2.84399 25.3486C2.78624 25.3956 2.73046 25.419 2.7063 25.4287C2.65366 25.4499 2.60419 25.46 2.57935 25.4648C2.52194 25.476 2.45639 25.4833 2.39575 25.4883C2.26912 25.4986 2.1035 25.5049 1.927 25.5049H0.82251V24.2852C0.82251 23.9309 0.823382 23.6508 0.878174 23.4316C0.948373 23.1508 1.09744 22.9869 1.2395 22.8418L1.24341 22.8379C1.26639 22.8149 1.28496 22.7918 1.29907 22.7744C1.30045 22.7707 1.30076 22.7668 1.302 22.7637C1.31936 22.7195 1.34031 22.6813 1.35962 22.6504C1.38327 22.6126 1.41277 22.5753 1.44556 22.5391L1.37036 22.4727L1.36743 22.4707L0.988525 22.1299L0.661377 21.8359L0.911377 21.4736L1.24048 20.9961L1.24438 20.9902C1.42781 20.7313 1.64496 20.4366 1.72876 20.3389C1.77692 20.2826 1.97233 20.0217 2.16528 19.7461L2.16821 19.7422C2.26566 19.6058 2.35952 19.4762 2.43286 19.3779C2.46928 19.3291 2.50309 19.2855 2.52954 19.252C2.54243 19.2356 2.55642 19.2186 2.56958 19.2031C2.576 19.1956 2.5846 19.1849 2.59497 19.1738C2.59627 19.1724 2.59988 19.169 2.60474 19.1641ZM3.46509 24.8955L3.46606 24.8975C3.46808 24.8967 3.47161 24.8936 3.47778 24.8906C3.47352 24.8922 3.46939 24.894 3.46509 24.8955ZM9.07446 10.4473L9.07349 10.4492L9.06958 10.4531V10.4521L9.07446 10.4473Z" fill="white" stroke="black"/>
<path d="M13.6484 3.08325C13.8121 3.10727 13.9112 3.20498 13.9326 3.22583C13.9756 3.26781 14.0037 3.30948 14.0176 3.3313C14.0473 3.37826 14.0694 3.42646 14.084 3.46118C14.1151 3.53537 14.1434 3.62447 14.167 3.71509L14.291 4.16919C14.5713 5.16694 14.8065 5.7519 15.1807 6.45923L15.3135 6.69849C15.4598 6.95245 15.6427 7.24546 15.8252 7.51978C16.0709 7.88899 16.292 8.18818 16.4082 8.3147L16.9688 8.93091H16.9678C17.0584 9.03192 17.1515 9.12924 17.2275 9.20532C17.2657 9.2435 17.2974 9.27435 17.3213 9.29614L17.335 9.30981L17.3428 9.31567L17.3516 9.32153C17.4373 9.38394 17.669 9.58331 17.8682 9.77075L18.1758 10.0344C18.2644 10.1079 18.3416 10.1699 18.3896 10.2053L18.8867 10.5315C19.3431 10.8251 19.6861 11.0269 19.9883 11.1819H19.9873C20.2627 11.3221 20.7411 11.5275 21.1807 11.7004C21.3989 11.7863 21.6012 11.8616 21.7568 11.9143C21.8348 11.9407 21.896 11.96 21.9395 11.9719C21.9642 11.9787 21.9768 11.9812 21.9795 11.9817L21.9307 11.9788L22.0625 11.9885C22.1037 11.9947 22.1418 12.0033 22.1748 12.012C22.2051 12.0199 22.2434 12.0312 22.2842 12.0471L22.4092 12.1096L22.416 12.1135L22.4219 12.1174C22.4519 12.1374 22.5652 12.2125 22.6318 12.3577C22.719 12.5477 22.6741 12.7257 22.6191 12.8333C22.5746 12.9204 22.5142 12.9838 22.4834 13.0149C22.4462 13.0523 22.4031 13.0902 22.3613 13.1262L22.3564 13.1301C22.2529 13.2173 22.0742 13.3536 21.9414 13.4231L21.9424 13.4241C21.8911 13.4517 21.722 13.5543 21.5674 13.6536C21.0169 14.0165 20.2358 14.3498 19.5449 14.5217L19.5459 14.5227C19.2828 14.5912 18.7577 14.6299 18.2646 14.6467C17.7566 14.6641 17.1966 14.66 16.8262 14.6243V14.6252C15.9894 14.5509 14.8563 14.1211 14.1064 13.6272L14.0957 13.6194C13.9856 13.5428 13.8304 13.4516 13.7676 13.4202L13.7627 13.4172C13.6938 13.3817 13.6274 13.3313 13.584 13.2971C13.5321 13.2563 13.4742 13.2074 13.4141 13.1545C13.2931 13.0483 13.1504 12.915 13.0078 12.7766C12.7304 12.5074 12.419 12.1866 12.2656 11.9875V11.9866C11.6619 11.2123 11.1701 10.0348 11.0205 9.04419L11.0195 9.04517C10.9071 8.32922 10.9071 7.89206 11.0195 7.17603H11.0215C11.1547 6.26885 11.5169 5.35639 12.0459 4.55103C12.1734 4.35656 12.4567 4.01914 12.6973 3.74927C12.8216 3.60979 12.9455 3.47666 13.0449 3.37622C13.0935 3.32715 13.1427 3.27951 13.1865 3.24146C13.2074 3.22333 13.2364 3.19868 13.2695 3.17603C13.2857 3.16498 13.3136 3.147 13.3486 3.13013C13.3715 3.11915 13.4574 3.07837 13.5742 3.07837L13.6484 3.08325ZM21.918 12.9778L21.9307 12.9788L21.916 12.9768L21.918 12.9778Z" fill="white" stroke="black"/>
<path d="M18.1365 0.548828C19.6821 0.369798 20.9884 0.677867 22.575 1.54004L22.5779 1.54199C23.3111 1.94537 24.2258 2.80859 24.6931 3.53418C24.7558 3.62954 24.8174 3.72187 24.865 3.79297C24.8889 3.82864 24.9088 3.85836 24.9236 3.87988C24.9432 3.90845 24.9436 3.9078 24.9353 3.89746C24.9777 3.95042 25.0099 4.01158 25.0183 4.02734C25.0366 4.06143 25.0565 4.102 25.0769 4.14355C25.118 4.22716 25.1678 4.33264 25.2166 4.43555L25.2214 4.44629C25.7733 5.68506 25.9402 6.77628 25.7429 8.0498C25.5395 9.39938 24.9615 10.5459 23.9636 11.6025L23.9626 11.6035C23.8407 11.7319 23.7187 11.8614 23.5994 11.958C23.4685 12.0639 23.3076 12.1587 23.0994 12.1895C22.9042 12.2183 22.72 12.1819 22.5593 12.1357C22.4794 12.1127 22.392 12.0829 22.2976 12.0488L21.9929 11.9346C21.6671 11.8097 21.241 11.6289 21.0417 11.5244C20.9684 11.4877 20.8844 11.4488 20.8093 11.416C20.7301 11.3814 20.6758 11.3608 20.657 11.3545V11.3535C20.5315 11.3133 20.3647 11.2255 20.2234 11.1465C20.0531 11.0513 19.8481 10.9283 19.6355 10.7959C19.2129 10.5327 18.7389 10.2169 18.4294 9.98047C18.0363 9.68109 17.2996 9.00107 16.9822 8.64844V8.64746C16.3389 7.93702 16.2246 7.78796 15.8259 7.20703L15.825 7.20605C15.2875 6.4171 14.8182 5.51841 14.5066 4.6875L14.5056 4.68652C14.3935 4.38455 14.2596 3.97217 14.1541 3.61914C14.1012 3.44226 14.0546 3.27555 14.0203 3.1416C14.0032 3.07514 13.9874 3.01278 13.9763 2.95898C13.9723 2.93953 13.9666 2.90981 13.9617 2.87598L13.9529 2.76562L13.9607 2.67578C13.9746 2.59345 14.0047 2.53169 14.0222 2.49902C14.0495 2.44828 14.0803 2.40682 14.1042 2.37793C14.1524 2.3198 14.2099 2.26552 14.2625 2.21973C14.3703 2.12577 14.5114 2.02087 14.6638 1.91699C14.9707 1.70785 15.3662 1.47304 15.7332 1.29395C16.6127 0.854586 17.2658 0.656065 18.1335 0.549805L18.1365 0.548828Z" fill="white" stroke="black"/>
</svg>
